<?xml version="1.0" standalone="no"?>
<!DOCTYPE svg PUBLIC "-//W3C//DTD SVG 1.1//EN"
  "http://www.w3.org/Graphics/SVG/1.1/DTD/svg11.dtd">
<!-- Created with matplotlib (http://matplotlib.sourceforge.net/) -->
<svg width="586pt" height="442pt" viewBox="0 0 586 442"
   xmlns="http://www.w3.org/2000/svg"
   xmlns:xlink="http://www.w3.org/1999/xlink"
   version="1.1"
   id="svg1">
<g id="figure1">
<g id="patch1">
<path style="fill: #ffffff; stroke: #ffffff; stroke-width: 1.000000; stroke-linejoin: round; stroke-linecap: square;  opacity: 1.000000"  d="M0.000000 442.800000L586.800000 442.800000L586.800000 0.000000
L0.000000 0.000000L0.000000 442.800000"/>
</g>
<g id="axes1">
<g id="patch2">
<path style="fill: #ffffff; opacity: 1.000000"  d="M73.350000 398.520000L528.120000 398.520000L528.120000 44.280000
L73.350000 44.280000L73.350000 398.520000"/>
</g>
<g id="line2d1">
<defs>
  <clipPath id="p2105d4d122201762fd65f95470f6173f">
<rect x="73.350000" y="44.280000" width="454.770000" height="354.240000"/>
  </clipPath>
</defs><path style="fill: none; stroke: #0000ff; stroke-width: 1.000000; stroke-linejoin: round; stroke-linecap: square;  opacity: 1.000000" clip-path="url(#p2105d4d122201762fd65f95470f6173f)" d="M73.350000 384.350400L77.943636 383.914446L82.537273 383.465079
L87.130909 383.001887L91.724545 382.524444L96.318182 382.032311
L100.911818 381.525037L105.505455 381.002156L110.099091 380.463187
L114.692727 379.907636L119.286364 379.334992L123.880000 378.744730
L128.473636 378.136308L133.067273 377.509166L137.660909 376.862729
L142.254545 376.196403L146.848182 375.509576L151.441818 374.801618
L156.035455 374.071879L160.629091 373.319687L165.222727 372.544353
L169.816364 371.745165L174.410000 370.921388L179.003636 370.072266
L183.597273 369.197019L188.190909 368.294843L192.784545 367.364911
L197.378182 366.406367L201.971818 365.418332L206.565455 364.399898
L211.159091 363.350131L215.752727 362.268065L220.346364 361.152707
L224.940000 360.003034L229.533636 358.817988L234.127273 357.596483
L238.720909 356.337396L243.314545 355.039570L247.908182 353.701815
L252.501818 352.322901L257.095455 350.901562L261.689091 349.436493
L266.282727 347.926349L270.876364 346.369742L275.470000 344.765243
L280.063636 343.111379L284.657273 341.406631L289.250909 339.649433
L293.844545 337.838172L298.438182 335.971184L303.031818 334.046754
L307.625455 332.063116L312.219091 330.018448L316.812727 327.910872
L321.406364 325.738452L326.000000 323.499194L330.593636 321.191041
L335.187273 318.811873L339.780909 316.359506L344.374545 313.831687
L348.968182 311.226095L353.561818 308.540337L358.155455 305.771948
L362.749091 302.918383L367.342727 299.977023L371.936364 296.945167
L376.530000 293.820031L381.123636 290.598743L385.717273 287.278347
L390.310909 283.855793L394.904545 280.327938L399.498182 276.691542
L404.091818 272.943265L408.685455 269.079666L413.279091 265.097196
L417.872727 260.992197L422.466364 256.760901L427.060000 252.399422
L431.653636 247.903753L436.247273 243.269767L440.840909 238.493208
L445.434545 233.569690L450.028182 228.494690L454.621818 223.263548
L459.215455 217.871461L463.809091 212.313476L468.402727 206.584490
L472.996364 200.679241L477.590000 194.592306L482.183636 188.318095
L486.777273 181.850846L491.370909 175.184621L495.964545 168.313297
L500.558182 161.230565L505.151818 153.929918L509.745455 146.404654
L514.339091 138.647862L518.932727 130.652417L523.526364 122.410978
L528.120000 113.915976"/>
</g>
<g id="line2d2">
<path style="fill: none; stroke: #008000; stroke-width: 1.000000; stroke-linejoin: round; stroke-linecap: square;  opacity: 1.000000" clip-path="url(#p2105d4d122201762fd65f95470f6173f)" d="M73.350000 384.350400L77.943636 383.921018L82.537273 383.491636
L87.130909 383.062255L91.724545 382.632873L96.318182 382.203491
L100.911818 381.774109L105.505455 381.344727L110.099091 380.915345
L114.692727 380.485964L119.286364 380.056582L123.880000 379.627200
L128.473636 379.197818L133.067273 378.768436L137.660909 378.339055
L142.254545 377.909673L146.848182 377.480291L151.441818 377.050909
L156.035455 376.621527L160.629091 376.192145L165.222727 375.762764
L169.816364 375.333382L174.410000 374.904000L179.003636 374.474618
L183.597273 374.045236L188.190909 373.615855L192.784545 373.186473
L197.378182 372.757091L201.971818 372.327709L206.565455 371.898327
L211.159091 371.468945L215.752727 371.039564L220.346364 370.610182
L224.940000 370.180800L229.533636 369.751418L234.127273 369.322036
L238.720909 368.892655L243.314545 368.463273L247.908182 368.033891
L252.501818 367.604509L257.095455 367.175127L261.689091 366.745745
L266.282727 366.316364L270.876364 365.886982L275.470000 365.457600
L280.063636 365.028218L284.657273 364.598836L289.250909 364.169455
L293.844545 363.740073L298.438182 363.310691L303.031818 362.881309
L307.625455 362.451927L312.219091 362.022545L316.812727 361.593164
L321.406364 361.163782L326.000000 360.734400L330.593636 360.305018
L335.187273 359.875636L339.780909 359.446255L344.374545 359.016873
L348.968182 358.587491L353.561818 358.158109L358.155455 357.728727
L362.749091 357.299345L367.342727 356.869964L371.936364 356.440582
L376.530000 356.011200L381.123636 355.581818L385.717273 355.152436
L390.310909 354.723055L394.904545 354.293673L399.498182 353.864291
L404.091818 353.434909L408.685455 353.005527L413.279091 352.576145
L417.872727 352.146764L422.466364 351.717382L427.060000 351.288000
L431.653636 350.858618L436.247273 350.429236L440.840909 349.999855
L445.434545 349.570473L450.028182 349.141091L454.621818 348.711709
L459.215455 348.282327L463.809091 347.852945L468.402727 347.423564
L472.996364 346.994182L477.590000 346.564800L482.183636 346.135418
L486.777273 345.706036L491.370909 345.276655L495.964545 344.847273
L500.558182 344.417891L505.151818 343.988509L509.745455 343.559127
L514.339091 343.129745L518.932727 342.700364L523.526364 342.270982
L528.120000 341.841600"/>
</g>
<g id="line2d3">
<path style="fill: none; stroke: #ff0000; stroke-width: 1.000000; stroke-linejoin: round; stroke-linecap: square;  opacity: 1.000000" clip-path="url(#p2105d4d122201762fd65f95470f6173f)" d="M73.350000 384.350400L77.943636 383.914512L82.537273 383.465613
L87.130909 383.003702L91.724545 382.528780L96.318182 382.040846
L100.911818 381.539901L105.505455 381.025944L110.099091 380.498975
L114.692727 379.958995L119.286364 379.406003L123.880000 378.840000
L128.473636 378.260985L133.067273 377.668959L137.660909 377.063921
L142.254545 376.445871L146.848182 375.814810L151.441818 375.170737
L156.035455 374.513653L160.629091 373.843557L165.222727 373.160450
L169.816364 372.464331L174.410000 371.755200L179.003636 371.033058
L183.597273 370.297904L188.190909 369.549739L192.784545 368.788562
L197.378182 368.014374L201.971818 367.227174L206.565455 366.426962
L211.159091 365.613739L215.752727 364.787504L220.346364 363.948258
L224.940000 363.096000L229.533636 362.230731L234.127273 361.352450
L238.720909 360.461157L243.314545 359.556853L247.908182 358.639537
L252.501818 357.709210L257.095455 356.765871L261.689091 355.809521
L266.282727 354.840159L270.876364 353.857785L275.470000 352.862400
L280.063636 351.854003L284.657273 350.832595L289.250909 349.798175
L293.844545 348.750744L298.438182 347.690301L303.031818 346.616846
L307.625455 345.530380L312.219091 344.430902L316.812727 343.318413
L321.406364 342.192912L326.000000 341.054400L330.593636 339.902876
L335.187273 338.738340L339.780909 337.560793L344.374545 336.370235
L348.968182 335.166664L353.561818 333.950083L358.155455 332.720489
L362.749091 331.477884L367.342727 330.222268L371.936364 328.953640
L376.530000 327.672000L381.123636 326.377349L385.717273 325.069686
L390.310909 323.749012L394.904545 322.415326L399.498182 321.068628
L404.091818 319.708919L408.685455 318.336198L413.279091 316.950466
L417.872727 315.551722L422.466364 314.139967L427.060000 312.715200
L431.653636 311.277421L436.247273 309.826631L440.840909 308.362830
L445.434545 306.886017L450.028182 305.396192L454.621818 303.893355
L459.215455 302.377507L463.809091 300.848648L468.402727 299.306777
L472.996364 297.751894L477.590000 296.184000L482.183636 294.603094
L486.777273 293.009177L491.370909 291.402248L495.964545 289.782307
L500.558182 288.149355L505.151818 286.503392L509.745455 284.844417
L514.339091 283.172430L518.932727 281.487431L523.526364 279.789421
L528.120000 278.078400"/>
</g>
<g id="line2d4">
<path style="fill: none; stroke: #00bfbf; stroke-width: 1.000000; stroke-linejoin: round; stroke-linecap: square;  opacity: 1.000000" clip-path="url(#p2105d4d122201762fd65f95470f6173f)" d="M73.350000 384.350400L77.943636 383.914447L82.537273 383.465088
L87.130909 383.001928L91.724545 382.524574L96.318182 382.032632
L100.911818 381.525706L105.505455 381.003404L110.099091 380.465329
L114.692727 379.911089L119.286364 379.340288L123.880000 378.752533
L128.473636 378.147430L133.067273 377.524583L137.660909 376.883599
L142.254545 376.224083L146.848182 375.545641L151.441818 374.847879
L156.035455 374.130403L160.629091 373.392818L165.222727 372.634730
L169.816364 371.855744L174.410000 371.055467L179.003636 370.233503
L183.597273 369.389460L188.190909 368.522942L192.784545 367.633555
L197.378182 366.720905L201.971818 365.784598L206.565455 364.824239
L211.159091 363.839434L215.752727 362.829789L220.346364 361.794909
L224.940000 360.734400L229.533636 359.647868L234.127273 358.534919
L238.720909 357.395158L243.314545 356.228191L247.908182 355.033624
L252.501818 353.811062L257.095455 352.560111L261.689091 351.280377
L266.282727 349.971466L270.876364 348.632983L275.470000 347.264533
L280.063636 345.865724L284.657273 344.436160L289.250909 342.975447
L293.844545 341.483190L298.438182 339.958997L303.031818 338.402471
L307.625455 336.813220L312.219091 335.190848L316.812727 333.534961
L321.406364 331.845165L326.000000 330.121067L330.593636 328.362270
L335.187273 326.568382L339.780909 324.739008L344.374545 322.873753
L348.968182 320.972224L353.561818 319.034026L358.155455 317.058764
L362.749091 315.046045L367.342727 312.995474L371.936364 310.906657
L376.530000 308.779200L381.123636 306.612708L385.717273 304.406787
L390.310909 302.161042L394.904545 299.875080L399.498182 297.548506
L404.091818 295.180926L408.685455 292.771946L413.279091 290.321170
L417.872727 287.828206L422.466364 285.292659L427.060000 282.714133
L431.653636 280.092236L436.247273 277.426573L440.840909 274.716749
L445.434545 271.962371L450.028182 269.163043L454.621818 266.318372
L459.215455 263.427963L463.809091 260.491423L468.402727 257.508356
L472.996364 254.478369L477.590000 251.401067L482.183636 248.276055
L486.777273 245.102941L491.370909 241.881329L495.964545 238.610825
L500.558182 235.291034L505.151818 231.921563L509.745455 228.502017
L514.339091 225.032002L518.932727 221.511124L523.526364 217.938988
L528.120000 214.315200"/>
</g>
<g id="line2d5">
<path style="fill: none; stroke: #bf00bf; stroke-width: 1.000000; stroke-linejoin: round; stroke-linecap: square;  opacity: 1.000000" clip-path="url(#p2105d4d122201762fd65f95470f6173f)" d="M73.350000 384.350400L77.943636 383.914446L82.537273 383.465080
L87.130909 383.001888L91.724545 382.524447L96.318182 382.032321
L100.911818 381.525061L105.505455 381.002208L110.099091 380.463290
L114.692727 379.907822L119.286364 379.335310L123.880000 378.745244
L128.473636 378.137106L133.067273 377.510364L137.660909 376.864474
L142.254545 376.198880L146.848182 375.513015L151.441818 374.806299
L156.035455 374.078142L160.629091 373.327939L165.222727 372.555075
L169.816364 371.758923L174.410000 370.938844L179.003636 370.094187
L183.597273 369.224288L188.190909 368.328473L192.784545 367.406054
L197.378182 366.456332L201.971818 365.478597L206.565455 364.472125
L211.159091 363.436183L215.752727 362.370022L220.346364 361.272885
L224.940000 360.144000L229.533636 358.982585L234.127273 357.787846
L238.720909 356.558976L243.314545 355.295157L247.908182 353.995558
L252.501818 352.659336L257.095455 351.285638L261.689091 349.873598
L266.282727 348.422336L270.876364 346.930963L275.470000 345.398578
L280.063636 343.824265L284.657273 342.207099L289.250909 340.546142
L293.844545 338.840444L298.438182 337.089043L303.031818 335.290965
L307.625455 333.445226L312.219091 331.550826L316.812727 329.606757
L321.406364 327.611996L326.000000 325.565511L330.593636 323.466256
L335.187273 321.313173L339.780909 319.105193L344.374545 316.841235
L348.968182 314.520206L353.561818 312.141000L358.155455 309.702500
L362.749091 307.203577L367.342727 304.643090L371.936364 302.019886
L376.530000 299.332800L381.123636 296.580655L385.717273 293.762263
L390.310909 290.876422L394.904545 287.921920L399.498182 284.897532
L404.091818 281.802021L408.685455 278.634139L413.279091 275.392626
L417.872727 272.076208L422.466364 268.683602L427.060000 265.213511
L431.653636 261.664627L436.247273 258.035629L440.840909 254.325185
L445.434545 250.531951L450.028182 246.654572L454.621818 242.691678
L459.215455 238.641890L463.809091 234.503816L468.402727 230.276052
L472.996364 225.957182L477.590000 221.545778L482.183636 217.040401
L486.777273 212.439598L491.370909 207.741907L495.964545 202.945852
L500.558182 198.049944L505.151818 193.052685L509.745455 187.952563
L514.339091 182.748055L518.932727 177.437625L523.526364 172.019727
L528.120000 166.492800"/>
</g>
<g id="line2d6">
<path style="fill: none; stroke: #bfbf00; stroke-width: 1.000000; stroke-linejoin: round; stroke-linecap: square;  opacity: 1.000000" clip-path="url(#p2105d4d122201762fd65f95470f6173f)" d="M73.350000 384.350400L77.943636 383.914446L82.537273 383.465079
L87.130909 383.001887L91.724545 382.524444L96.318182 382.032311
L100.911818 381.525038L105.505455 381.002158L110.099091 380.463191
L114.692727 379.907644L119.286364 379.335008L123.880000 378.744759
L128.473636 378.136356L133.067273 377.509244L137.660909 376.862851
L142.254545 376.196589L146.848182 375.509851L151.441818 374.802015
L156.035455 374.072440L160.629091 373.320468L165.222727 372.545420
L169.816364 371.746601L174.410000 370.923295L179.003636 370.074767
L183.597273 369.200263L188.190909 368.299008L192.784545 367.370205
L197.378182 366.413038L201.971818 365.426670L206.565455 364.410239
L211.159091 363.362864L215.752727 362.283642L220.346364 361.171644
L224.940000 360.025920L229.533636 358.845497L234.127273 357.629376
L238.720909 356.376537L243.314545 355.085931L247.908182 353.756488
L252.501818 352.387110L257.095455 350.976675L261.689091 349.524034
L266.282727 348.028012L270.876364 346.487407L275.470000 344.900990
L280.063636 343.267503L284.657273 341.585664L289.250909 339.854158
L293.844545 338.071645L298.438182 336.236754L303.031818 334.348085
L307.625455 332.404209L312.219091 330.403668L316.812727 328.344970
L321.406364 326.226595L326.000000 324.046993L330.593636 321.804578
L335.187273 319.497737L339.780909 317.124822L344.374545 314.684153
L348.968182 312.174017L353.561818 309.592669L358.155455 306.938328
L362.749091 304.209180L367.342727 301.403377L371.936364 298.519037
L376.530000 295.554240L381.123636 292.507034L385.717273 289.375429
L390.310909 286.157399L394.904545 282.850882L399.498182 279.453779
L404.091818 275.963953L408.685455 272.379231L413.279091 268.697400
L417.872727 264.916209L422.466364 261.033370L427.060000 257.046554
L431.653636 252.953393L436.247273 248.751480L440.840909 244.438366
L445.434545 240.011564L450.028182 235.468544L454.621818 230.806735
L459.215455 226.023525L463.809091 221.116261L468.402727 216.082244
L472.996364 210.918737L477.590000 205.622957L482.183636 200.192078
L486.777273 194.623230L491.370909 188.913499L495.964545 183.059927
L500.558182 177.059512L505.151818 170.909203L509.745455 164.605908
L514.339091 158.146486L518.932727 151.527751L523.526364 144.746469
L528.120000 137.799360"/>
</g>
<g id="matplotlib.axis1">
<g id="xtick1">
<g id="line2d7">
<defs><path id="m30e32995789d870ad79a2e54c91cf9c6" d="M0.000000 0.000000L0.000000 -4.000000"/></defs>
<g ><use style="fill: none; stroke: #000000; stroke-width: 0.500000; stroke-linejoin: round; stroke-linecap: butt;  opacity: 1.000000" xlink:href="#m30e32995789d870ad79a2e54c91cf9c6" x="73.350000" y="398.520000"/>
</g></g>
<g id="line2d8">
<defs><path id="m9281cae24120827b11d5ea8a7ad3e96b" d="M0.000000 0.000000L0.000000 4.000000"/></defs>
<g ><use style="fill: none; stroke: #000000; stroke-width: 0.500000; stroke-linejoin: round; stroke-linecap: butt;  opacity: 1.000000" xlink:href="#m9281cae24120827b11d5ea8a7ad3e96b" x="73.350000" y="44.280000"/>
</g></g>
<g id="text1">
<defs>
<path id="c_7a2040fe3b94fcd41d0a72c84e93b115" d="M31.781250 -66.406250q-7.609375 0.000000 -11.453125 7.500000q-3.828125 7.484375 -3.828125 22.531250q0.000000 14.984375 3.828125 22.484375q3.843750 7.500000 11.453125 7.500000q7.671875 0.000000 11.500000 -7.500000q3.843750 -7.500000 3.843750 -22.484375q0.000000 -15.046875 -3.843750 -22.531250q-3.828125 -7.500000 -11.500000 -7.500000M31.781250 -74.218750q12.265625 0.000000 18.734375 9.703125q6.468750 9.687500 6.468750 28.140625q0.000000 18.406250 -6.468750 28.109375q-6.468750 9.687500 -18.734375 9.687500q-12.250000 0.000000 -18.718750 -9.687500q-6.468750 -9.703125 -6.468750 -28.109375q0.000000 -18.453125 6.468750 -28.140625q6.468750 -9.703125 18.718750 -9.703125"/>
<path id="c_ed3e21196fb739f392806f09ca0594ef" d="M10.687500 -12.406250l10.312500 0.000000l0.000000 12.406250l-10.312500 0.000000z"/>
</defs>
<g style="fill: #000000; opacity: 1.000000" transform="translate(64.600000,411.426250)scale(0.120000)">
<use xlink:href="#c_7a2040fe3b94fcd41d0a72c84e93b115"/>
<use xlink:href="#c_ed3e21196fb739f392806f09ca0594ef" x="63.623047"/>
<use xlink:href="#c_7a2040fe3b94fcd41d0a72c84e93b115" x="95.410156"/>
</g>
</g>
</g>
<g id="xtick2">
<g id="line2d9">
<g ><use style="fill: none; stroke: #000000; stroke-width: 0.500000; stroke-linejoin: round; stroke-linecap: butt;  opacity: 1.000000" xlink:href="#m30e32995789d870ad79a2e54c91cf9c6" x="149.145000" y="398.520000"/>
</g></g>
<g id="line2d10">
<g ><use style="fill: none; stroke: #000000; stroke-width: 0.500000; stroke-linejoin: round; stroke-linecap: butt;  opacity: 1.000000" xlink:href="#m9281cae24120827b11d5ea8a7ad3e96b" x="149.145000" y="44.280000"/>
</g></g>
<g id="text2">
<defs>
<path id="c_1260a2df50f305f3db244e29828f968e" d="M10.796875 -72.906250l38.718750 0.000000l0.000000 8.312500l-29.687500 0.000000l0.000000 17.859375q2.140625 -0.734375 4.281250 -1.093750q2.156250 -0.359375 4.312500 -0.359375q12.203125 0.000000 19.328125 6.687500q7.140625 6.687500 7.140625 18.109375q0.000000 11.765625 -7.328125 18.296875q-7.328125 6.515625 -20.656250 6.515625q-4.593750 0.000000 -9.359375 -0.781250q-4.750000 -0.781250 -9.828125 -2.343750l0.000000 -9.921875q4.390625 2.390625 9.078125 3.562500q4.687500 1.171875 9.906250 1.171875q8.453125 0.000000 13.375000 -4.437500q4.937500 -4.437500 4.937500 -12.062500q0.000000 -7.609375 -4.937500 -12.046875q-4.921875 -4.453125 -13.375000 -4.453125q-3.953125 0.000000 -7.890625 0.875000q-3.921875 0.875000 -8.015625 2.734375z"/>
</defs>
<g style="fill: #000000; opacity: 1.000000" transform="translate(140.520000,411.426250)scale(0.120000)">
<use xlink:href="#c_7a2040fe3b94fcd41d0a72c84e93b115"/>
<use xlink:href="#c_ed3e21196fb739f392806f09ca0594ef" x="63.623047"/>
<use xlink:href="#c_1260a2df50f305f3db244e29828f968e" x="95.410156"/>
</g>
</g>
</g>
<g id="xtick3">
<g id="line2d11">
<g ><use style="fill: none; stroke: #000000; stroke-width: 0.500000; stroke-linejoin: round; stroke-linecap: butt;  opacity: 1.000000" xlink:href="#m30e32995789d870ad79a2e54c91cf9c6" x="224.940000" y="398.520000"/>
</g></g>
<g id="line2d12">
<g ><use style="fill: none; stroke: #000000; stroke-width: 0.500000; stroke-linejoin: round; stroke-linecap: butt;  opacity: 1.000000" xlink:href="#m9281cae24120827b11d5ea8a7ad3e96b" x="224.940000" y="44.280000"/>
</g></g>
<g id="text3">
<defs>
<path id="c_42baa63129a918535c52adb20d687ea7" d="M12.406250 -8.296875l16.109375 0.000000l0.000000 -55.625000l-17.531250 3.515625l0.000000 -8.984375l17.437500 -3.515625l9.859375 0.000000l0.000000 64.609375l16.109375 0.000000l0.000000 8.296875l-41.984375 0.000000z"/>
</defs>
<g style="fill: #000000; opacity: 1.000000" transform="translate(216.447813,411.426250)scale(0.120000)">
<use xlink:href="#c_42baa63129a918535c52adb20d687ea7"/>
<use xlink:href="#c_ed3e21196fb739f392806f09ca0594ef" x="63.623047"/>
<use xlink:href="#c_7a2040fe3b94fcd41d0a72c84e93b115" x="95.410156"/>
</g>
</g>
</g>
<g id="xtick4">
<g id="line2d13">
<g ><use style="fill: none; stroke: #000000; stroke-width: 0.500000; stroke-linejoin: round; stroke-linecap: butt;  opacity: 1.000000" xlink:href="#m30e32995789d870ad79a2e54c91cf9c6" x="300.735000" y="398.520000"/>
</g></g>
<g id="line2d14">
<g ><use style="fill: none; stroke: #000000; stroke-width: 0.500000; stroke-linejoin: round; stroke-linecap: butt;  opacity: 1.000000" xlink:href="#m9281cae24120827b11d5ea8a7ad3e96b" x="300.735000" y="44.280000"/>
</g></g>
<g id="text4">
<g style="fill: #000000; opacity: 1.000000" transform="translate(292.367813,411.270000)scale(0.120000)">
<use xlink:href="#c_42baa63129a918535c52adb20d687ea7"/>
<use xlink:href="#c_ed3e21196fb739f392806f09ca0594ef" x="63.623047"/>
<use xlink:href="#c_1260a2df50f305f3db244e29828f968e" x="95.410156"/>
</g>
</g>
</g>
<g id="xtick5">
<g id="line2d15">
<g ><use style="fill: none; stroke: #000000; stroke-width: 0.500000; stroke-linejoin: round; stroke-linecap: butt;  opacity: 1.000000" xlink:href="#m30e32995789d870ad79a2e54c91cf9c6" x="376.530000" y="398.520000"/>
</g></g>
<g id="line2d16">
<g ><use style="fill: none; stroke: #000000; stroke-width: 0.500000; stroke-linejoin: round; stroke-linecap: butt;  opacity: 1.000000" xlink:href="#m9281cae24120827b11d5ea8a7ad3e96b" x="376.530000" y="44.280000"/>
</g></g>
<g id="text5">
<defs>
<path id="c_ed3f3ed3ebfbd18bcb9c012009a68ad1" d="M19.187500 -8.296875l34.421875 0.000000l0.000000 8.296875l-46.281250 0.000000l0.000000 -8.296875q5.609375 -5.812500 15.296875 -15.593750q9.703125 -9.796875 12.187500 -12.640625q4.734375 -5.312500 6.609375 -9.000000q1.890625 -3.687500 1.890625 -7.250000q0.000000 -5.812500 -4.078125 -9.468750q-4.078125 -3.671875 -10.625000 -3.671875q-4.640625 0.000000 -9.796875 1.609375q-5.140625 1.609375 -11.000000 4.890625l0.000000 -9.968750q5.953125 -2.390625 11.125000 -3.609375q5.187500 -1.218750 9.484375 -1.218750q11.328125 0.000000 18.062500 5.671875q6.734375 5.656250 6.734375 15.125000q0.000000 4.500000 -1.687500 8.531250q-1.671875 4.015625 -6.125000 9.484375q-1.218750 1.421875 -7.765625 8.187500q-6.531250 6.765625 -18.453125 18.921875"/>
</defs>
<g style="fill: #000000; opacity: 1.000000" transform="translate(367.819063,411.426250)scale(0.120000)">
<use xlink:href="#c_ed3f3ed3ebfbd18bcb9c012009a68ad1"/>
<use xlink:href="#c_ed3e21196fb739f392806f09ca0594ef" x="63.623047"/>
<use xlink:href="#c_7a2040fe3b94fcd41d0a72c84e93b115" x="95.410156"/>
</g>
</g>
</g>
<g id="xtick6">
<g id="line2d17">
<g ><use style="fill: none; stroke: #000000; stroke-width: 0.500000; stroke-linejoin: round; stroke-linecap: butt;  opacity: 1.000000" xlink:href="#m30e32995789d870ad79a2e54c91cf9c6" x="452.325000" y="398.520000"/>
</g></g>
<g id="line2d18">
<g ><use style="fill: none; stroke: #000000; stroke-width: 0.500000; stroke-linejoin: round; stroke-linecap: butt;  opacity: 1.000000" xlink:href="#m9281cae24120827b11d5ea8a7ad3e96b" x="452.325000" y="44.280000"/>
</g></g>
<g id="text6">
<g style="fill: #000000; opacity: 1.000000" transform="translate(443.739063,411.426250)scale(0.120000)">
<use xlink:href="#c_ed3f3ed3ebfbd18bcb9c012009a68ad1"/>
<use xlink:href="#c_ed3e21196fb739f392806f09ca0594ef" x="63.623047"/>
<use xlink:href="#c_1260a2df50f305f3db244e29828f968e" x="95.410156"/>
</g>
</g>
</g>
<g id="xtick7">
<g id="line2d19">
<g ><use style="fill: none; stroke: #000000; stroke-width: 0.500000; stroke-linejoin: round; stroke-linecap: butt;  opacity: 1.000000" xlink:href="#m30e32995789d870ad79a2e54c91cf9c6" x="528.120000" y="398.520000"/>
</g></g>
<g id="line2d20">
<g ><use style="fill: none; stroke: #000000; stroke-width: 0.500000; stroke-linejoin: round; stroke-linecap: butt;  opacity: 1.000000" xlink:href="#m9281cae24120827b11d5ea8a7ad3e96b" x="528.120000" y="44.280000"/>
</g></g>
<g id="text7">
<defs>
<path id="c_3dcfa38a02242cb63ec6726c6e70be7a" d="M40.578125 -39.312500q7.078125 1.515625 11.046875 6.312500q3.984375 4.781250 3.984375 11.812500q0.000000 10.781250 -7.421875 16.703125q-7.421875 5.906250 -21.093750 5.906250q-4.578125 0.000000 -9.437500 -0.906250q-4.859375 -0.906250 -10.031250 -2.718750l0.000000 -9.515625q4.093750 2.390625 8.968750 3.609375q4.890625 1.218750 10.218750 1.218750q9.265625 0.000000 14.125000 -3.656250q4.859375 -3.656250 4.859375 -10.640625q0.000000 -6.453125 -4.515625 -10.078125q-4.515625 -3.640625 -12.562500 -3.640625l-8.500000 0.000000l0.000000 -8.109375l8.890625 0.000000q7.265625 0.000000 11.125000 -2.906250q3.859375 -2.906250 3.859375 -8.375000q0.000000 -5.609375 -3.984375 -8.609375q-3.968750 -3.015625 -11.390625 -3.015625q-4.062500 0.000000 -8.703125 0.890625q-4.640625 0.875000 -10.203125 2.718750l0.000000 -8.781250q5.625000 -1.562500 10.531250 -2.343750q4.906250 -0.781250 9.250000 -0.781250q11.234375 0.000000 17.765625 5.109375q6.546875 5.093750 6.546875 13.781250q0.000000 6.062500 -3.468750 10.234375q-3.468750 4.171875 -9.859375 5.781250"/>
</defs>
<g style="fill: #000000; opacity: 1.000000" transform="translate(519.432500,411.426250)scale(0.120000)">
<use xlink:href="#c_3dcfa38a02242cb63ec6726c6e70be7a"/>
<use xlink:href="#c_ed3e21196fb739f392806f09ca0594ef" x="63.623047"/>
<use xlink:href="#c_7a2040fe3b94fcd41d0a72c84e93b115" x="95.410156"/>
</g>
</g>
</g>
</g>
<g id="matplotlib.axis2">
<g id="ytick1">
<g id="line2d21">
<defs><path id="m3400efa6b1638b3fea9e19e898273957" d="M0.000000 0.000000L4.000000 0.000000"/></defs>
<g ><use style="fill: none; stroke: #000000; stroke-width: 0.500000; stroke-linejoin: round; stroke-linecap: butt;  opacity: 1.000000" xlink:href="#m3400efa6b1638b3fea9e19e898273957" x="73.350000" y="398.520000"/>
</g></g>
<g id="line2d22">
<defs><path id="m20b58b2501143cb5e0a5e8f1ef6f1643" d="M0.000000 0.000000L-4.000000 0.000000"/></defs>
<g ><use style="fill: none; stroke: #000000; stroke-width: 0.500000; stroke-linejoin: round; stroke-linecap: butt;  opacity: 1.000000" xlink:href="#m20b58b2501143cb5e0a5e8f1ef6f1643" x="528.120000" y="398.520000"/>
</g></g>
<g id="text8">
<g style="fill: #000000; opacity: 1.000000" transform="translate(63.303125,402.887188)scale(0.120000)">
<use xlink:href="#c_7a2040fe3b94fcd41d0a72c84e93b115"/>
</g>
</g>
</g>
<g id="ytick2">
<g id="line2d23">
<g ><use style="fill: none; stroke: #000000; stroke-width: 0.500000; stroke-linejoin: round; stroke-linecap: butt;  opacity: 1.000000" xlink:href="#m3400efa6b1638b3fea9e19e898273957" x="73.350000" y="327.672000"/>
</g></g>
<g id="line2d24">
<g ><use style="fill: none; stroke: #000000; stroke-width: 0.500000; stroke-linejoin: round; stroke-linecap: butt;  opacity: 1.000000" xlink:href="#m20b58b2501143cb5e0a5e8f1ef6f1643" x="528.120000" y="327.672000"/>
</g></g>
<g id="text9">
<g style="fill: #000000; opacity: 1.000000" transform="translate(63.678125,331.961063)scale(0.120000)">
<use xlink:href="#c_1260a2df50f305f3db244e29828f968e"/>
</g>
</g>
</g>
<g id="ytick3">
<g id="line2d25">
<g ><use style="fill: none; stroke: #000000; stroke-width: 0.500000; stroke-linejoin: round; stroke-linecap: butt;  opacity: 1.000000" xlink:href="#m3400efa6b1638b3fea9e19e898273957" x="73.350000" y="256.824000"/>
</g></g>
<g id="line2d26">
<g ><use style="fill: none; stroke: #000000; stroke-width: 0.500000; stroke-linejoin: round; stroke-linecap: butt;  opacity: 1.000000" xlink:href="#m20b58b2501143cb5e0a5e8f1ef6f1643" x="528.120000" y="256.824000"/>
</g></g>
<g id="text10">
<g style="fill: #000000; opacity: 1.000000" transform="translate(56.178125,261.191187)scale(0.120000)">
<use xlink:href="#c_42baa63129a918535c52adb20d687ea7"/>
<use xlink:href="#c_7a2040fe3b94fcd41d0a72c84e93b115" x="63.623047"/>
</g>
</g>
</g>
<g id="ytick4">
<g id="line2d27">
<g ><use style="fill: none; stroke: #000000; stroke-width: 0.500000; stroke-linejoin: round; stroke-linecap: butt;  opacity: 1.000000" xlink:href="#m3400efa6b1638b3fea9e19e898273957" x="73.350000" y="185.976000"/>
</g></g>
<g id="line2d28">
<g ><use style="fill: none; stroke: #000000; stroke-width: 0.500000; stroke-linejoin: round; stroke-linecap: butt;  opacity: 1.000000" xlink:href="#m20b58b2501143cb5e0a5e8f1ef6f1643" x="528.120000" y="185.976000"/>
</g></g>
<g id="text11">
<g style="fill: #000000; opacity: 1.000000" transform="translate(56.428125,190.265063)scale(0.120000)">
<use xlink:href="#c_42baa63129a918535c52adb20d687ea7"/>
<use xlink:href="#c_1260a2df50f305f3db244e29828f968e" x="63.623047"/>
</g>
</g>
</g>
<g id="ytick5">
<g id="line2d29">
<g ><use style="fill: none; stroke: #000000; stroke-width: 0.500000; stroke-linejoin: round; stroke-linecap: butt;  opacity: 1.000000" xlink:href="#m3400efa6b1638b3fea9e19e898273957" x="73.350000" y="115.128000"/>
</g></g>
<g id="line2d30">
<g ><use style="fill: none; stroke: #000000; stroke-width: 0.500000; stroke-linejoin: round; stroke-linecap: butt;  opacity: 1.000000" xlink:href="#m20b58b2501143cb5e0a5e8f1ef6f1643" x="528.120000" y="115.128000"/>
</g></g>
<g id="text12">
<g style="fill: #000000; opacity: 1.000000" transform="translate(55.740625,119.495187)scale(0.120000)">
<use xlink:href="#c_ed3f3ed3ebfbd18bcb9c012009a68ad1"/>
<use xlink:href="#c_7a2040fe3b94fcd41d0a72c84e93b115" x="63.623047"/>
</g>
</g>
</g>
<g id="ytick6">
<g id="line2d31">
<g ><use style="fill: none; stroke: #000000; stroke-width: 0.500000; stroke-linejoin: round; stroke-linecap: butt;  opacity: 1.000000" xlink:href="#m3400efa6b1638b3fea9e19e898273957" x="73.350000" y="44.280000"/>
</g></g>
<g id="line2d32">
<g ><use style="fill: none; stroke: #000000; stroke-width: 0.500000; stroke-linejoin: round; stroke-linecap: butt;  opacity: 1.000000" xlink:href="#m20b58b2501143cb5e0a5e8f1ef6f1643" x="528.120000" y="44.280000"/>
</g></g>
<g id="text13">
<g style="fill: #000000; opacity: 1.000000" transform="translate(55.990625,48.647187)scale(0.120000)">
<use xlink:href="#c_ed3f3ed3ebfbd18bcb9c012009a68ad1"/>
<use xlink:href="#c_1260a2df50f305f3db244e29828f968e" x="63.623047"/>
</g>
</g>
</g>
</g>
<g id="patch3">
<path style="fill: none; stroke: #000000; stroke-width: 1.000000; stroke-linejoin: round; stroke-linecap: square;  opacity: 1.000000"  d="M73.350000 44.280000L528.120000 44.280000"/>
</g>
<g id="patch4">
<path style="fill: none; stroke: #000000; stroke-width: 1.000000; stroke-linejoin: round; stroke-linecap: square;  opacity: 1.000000"  d="M528.120000 398.520000L528.120000 44.280000"/>
</g>
<g id="patch5">
<path style="fill: none; stroke: #000000; stroke-width: 1.000000; stroke-linejoin: round; stroke-linecap: square;  opacity: 1.000000"  d="M73.350000 398.520000L528.120000 398.520000"/>
</g>
<g id="patch6">
<path style="fill: none; stroke: #000000; stroke-width: 1.000000; stroke-linejoin: round; stroke-linecap: square;  opacity: 1.000000"  d="M73.350000 398.520000L73.350000 44.280000"/>
</g>
<g id="legend1">
<g id="patch7">
<path style="fill: #ffffff; stroke: #000000; stroke-width: 1.000000; stroke-linejoin: round; stroke-linecap: square;  opacity: 1.000000"  d="M80.550000 177.578125L178.561875 177.578125L178.561875 51.480000
L80.550000 51.480000L80.550000 177.578125z"/>
</g>
<g id="line2d33">
<path style="fill: none; stroke: #0000ff; stroke-width: 1.000000; stroke-linejoin: round; stroke-linecap: square;  opacity: 1.000000"  d="M90.630000 62.840625L110.790000 62.840625"/>
</g>
<g id="line2d34">
</g>
<g id="text14">
<defs>
<path id="c_0bce5afba2dc6b9024b26277c38ad8e8" d="M56.203125 -29.593750l0.000000 4.390625l-41.312500 0.000000q0.593750 9.281250 5.593750 14.140625q5.000000 4.859375 13.937500 4.859375q5.171875 0.000000 10.031250 -1.265625q4.859375 -1.265625 9.656250 -3.812500l0.000000 8.500000q-4.843750 2.046875 -9.921875 3.125000q-5.078125 1.078125 -10.296875 1.078125q-13.093750 0.000000 -20.734375 -7.609375q-7.640625 -7.625000 -7.640625 -20.625000q0.000000 -13.421875 7.250000 -21.296875q7.250000 -7.890625 19.562500 -7.890625q11.031250 0.000000 17.453125 7.109375q6.421875 7.093750 6.421875 19.296875M47.218750 -32.234375q-0.093750 -7.359375 -4.125000 -11.750000q-4.031250 -4.406250 -10.671875 -4.406250q-7.515625 0.000000 -12.031250 4.250000q-4.515625 4.250000 -5.203125 11.968750z"/>
<path id="c_801fe2e877fad46da27c898b407b3b54" d="M54.890625 -54.687500l-19.781250 26.609375l20.796875 28.078125l-10.593750 0.000000l-15.921875 -21.484375l-15.906250 21.484375l-10.609375 0.000000l21.250000 -28.609375l-19.437500 -26.078125l10.593750 0.000000l14.500000 19.484375l14.500000 -19.484375z"/>
<path id="c_01d93a582460e35a7945ca50d148ffeb" d="M34.281250 -27.484375q-10.890625 0.000000 -15.093750 2.484375q-4.203125 2.484375 -4.203125 8.500000q0.000000 4.781250 3.156250 7.593750q3.156250 2.796875 8.562500 2.796875q7.484375 0.000000 12.000000 -5.296875q4.515625 -5.296875 4.515625 -14.078125l0.000000 -2.000000zM52.203125 -31.203125l0.000000 31.203125l-8.984375 0.000000l0.000000 -8.296875q-3.078125 4.968750 -7.671875 7.343750q-4.593750 2.375000 -11.234375 2.375000q-8.390625 0.000000 -13.359375 -4.718750q-4.953125 -4.718750 -4.953125 -12.625000q0.000000 -9.218750 6.171875 -13.906250q6.187500 -4.687500 18.437500 -4.687500l12.609375 0.000000l0.000000 -0.890625q0.000000 -6.203125 -4.078125 -9.593750q-4.078125 -3.390625 -11.453125 -3.390625q-4.687500 0.000000 -9.140625 1.125000q-4.437500 1.125000 -8.531250 3.375000l0.000000 -8.312500q4.921875 -1.906250 9.562500 -2.843750q4.640625 -0.953125 9.031250 -0.953125q11.875000 0.000000 17.734375 6.156250q5.859375 6.140625 5.859375 18.640625"/>
<path id="c_d650c37394b681142a10dfc54356d478" d="M48.781250 -52.593750l0.000000 8.406250q-3.812500 -2.109375 -7.640625 -3.156250q-3.828125 -1.046875 -7.734375 -1.046875q-8.750000 0.000000 -13.593750 5.546875q-4.828125 5.531250 -4.828125 15.546875q0.000000 10.015625 4.828125 15.562500q4.843750 5.531250 13.593750 5.531250q3.906250 0.000000 7.734375 -1.046875q3.828125 -1.046875 7.640625 -3.156250l0.000000 8.312500q-3.765625 1.750000 -7.796875 2.625000q-4.015625 0.890625 -8.562500 0.890625q-12.359375 0.000000 -19.640625 -7.765625q-7.265625 -7.765625 -7.265625 -20.953125q0.000000 -13.375000 7.343750 -21.031250q7.359375 -7.671875 20.156250 -7.671875q4.140625 0.000000 8.093750 0.859375q3.953125 0.843750 7.671875 2.546875"/>
<path id="c_0f8c41144cfbf448378cb6fd1cc8e549" d="M18.312500 -70.218750l0.000000 15.531250l18.500000 0.000000l0.000000 6.984375l-18.500000 0.000000l0.000000 29.687500q0.000000 6.687500 1.828125 8.593750q1.828125 1.906250 7.453125 1.906250l9.218750 0.000000l0.000000 7.515625l-9.218750 0.000000q-10.406250 0.000000 -14.359375 -3.875000q-3.953125 -3.890625 -3.953125 -14.140625l0.000000 -29.687500l-6.593750 0.000000l0.000000 -6.984375l6.593750 0.000000l0.000000 -15.531250z"/>
</defs>
<g style="fill: #000000; opacity: 1.000000" transform="translate(126.630000,67.880625)scale(0.144000)">
<use xlink:href="#c_0bce5afba2dc6b9024b26277c38ad8e8"/>
<use xlink:href="#c_801fe2e877fad46da27c898b407b3b54" x="59.773437"/>
<use xlink:href="#c_01d93a582460e35a7945ca50d148ffeb" x="118.953125"/>
<use xlink:href="#c_d650c37394b681142a10dfc54356d478" x="180.232422"/>
<use xlink:href="#c_0f8c41144cfbf448378cb6fd1cc8e549" x="235.212891"/>
<use xlink:href="#c_01d93a582460e35a7945ca50d148ffeb" x="274.421875"/>
</g>
</g>
<g id="line2d35">
<path style="fill: none; stroke: #008000; stroke-width: 1.000000; stroke-linejoin: round; stroke-linecap: square;  opacity: 1.000000"  d="M90.630000 83.587500L110.790000 83.587500"/>
</g>
<g id="line2d36">
</g>
<g id="text15">
<defs>
<path id="c_fe791a90f5471e2ab20a5ed41a7fa451" d="M54.890625 -33.015625l0.000000 33.015625l-8.984375 0.000000l0.000000 -32.718750q0.000000 -7.765625 -3.031250 -11.609375q-3.031250 -3.859375 -9.078125 -3.859375q-7.281250 0.000000 -11.484375 4.640625q-4.203125 4.625000 -4.203125 12.640625l0.000000 30.906250l-9.031250 0.000000l0.000000 -54.687500l9.031250 0.000000l0.000000 8.500000q3.234375 -4.937500 7.593750 -7.375000q4.375000 -2.437500 10.093750 -2.437500q9.421875 0.000000 14.250000 5.828125q4.843750 5.828125 4.843750 17.156250"/>
<path id="c_8c0379a31aa3b07b28207e25658c6113" d="M10.593750 -45.406250l62.593750 0.000000l0.000000 8.203125l-62.593750 0.000000zM10.593750 -25.484375l62.593750 0.000000l0.000000 8.296875l-62.593750 0.000000z"/>
</defs>
<g style="fill: #000000; opacity: 1.000000" transform="translate(126.630000,88.627500)scale(0.144000)">
<use xlink:href="#c_fe791a90f5471e2ab20a5ed41a7fa451"/>
<use xlink:href="#c_8c0379a31aa3b07b28207e25658c6113" x="63.378906"/>
<use xlink:href="#c_42baa63129a918535c52adb20d687ea7" x="147.167969"/>
</g>
</g>
<g id="line2d37">
<path style="fill: none; stroke: #ff0000; stroke-width: 1.000000; stroke-linejoin: round; stroke-linecap: square;  opacity: 1.000000"  d="M90.630000 104.334375L110.790000 104.334375"/>
</g>
<g id="line2d38">
</g>
<g id="text16">
<g style="fill: #000000; opacity: 1.000000" transform="translate(126.630000,109.374375)scale(0.144000)">
<use xlink:href="#c_fe791a90f5471e2ab20a5ed41a7fa451"/>
<use xlink:href="#c_8c0379a31aa3b07b28207e25658c6113" x="63.378906"/>
<use xlink:href="#c_ed3f3ed3ebfbd18bcb9c012009a68ad1" x="147.167969"/>
</g>
</g>
<g id="line2d39">
<path style="fill: none; stroke: #00bfbf; stroke-width: 1.000000; stroke-linejoin: round; stroke-linecap: square;  opacity: 1.000000"  d="M90.630000 125.081250L110.790000 125.081250"/>
</g>
<g id="line2d40">
</g>
<g id="text17">
<g style="fill: #000000; opacity: 1.000000" transform="translate(126.630000,130.121250)scale(0.144000)">
<use xlink:href="#c_fe791a90f5471e2ab20a5ed41a7fa451"/>
<use xlink:href="#c_8c0379a31aa3b07b28207e25658c6113" x="63.378906"/>
<use xlink:href="#c_3dcfa38a02242cb63ec6726c6e70be7a" x="147.167969"/>
</g>
</g>
<g id="line2d41">
<path style="fill: none; stroke: #bf00bf; stroke-width: 1.000000; stroke-linejoin: round; stroke-linecap: square;  opacity: 1.000000"  d="M90.630000 145.828125L110.790000 145.828125"/>
</g>
<g id="line2d42">
</g>
<g id="text18">
<defs>
<path id="c_a0416418d96557a09b8c1332d34883ba" d="M37.796875 -64.312500l-24.906250 38.921875l24.906250 0.000000zM35.203125 -72.906250l12.406250 0.000000l0.000000 47.515625l10.406250 0.000000l0.000000 8.203125l-10.406250 0.000000l0.000000 17.187500l-9.812500 0.000000l0.000000 -17.187500l-32.906250 0.000000l0.000000 -9.515625z"/>
</defs>
<g style="fill: #000000; opacity: 1.000000" transform="translate(126.630000,150.868125)scale(0.144000)">
<use xlink:href="#c_fe791a90f5471e2ab20a5ed41a7fa451"/>
<use xlink:href="#c_8c0379a31aa3b07b28207e25658c6113" x="63.378906"/>
<use xlink:href="#c_a0416418d96557a09b8c1332d34883ba" x="147.167969"/>
</g>
</g>
<g id="line2d43">
<path style="fill: none; stroke: #bfbf00; stroke-width: 1.000000; stroke-linejoin: round; stroke-linecap: square;  opacity: 1.000000"  d="M90.630000 166.575000L110.790000 166.575000"/>
</g>
<g id="line2d44">
</g>
<g id="text19">
<g style="fill: #000000; opacity: 1.000000" transform="translate(126.630000,171.615000)scale(0.144000)">
<use xlink:href="#c_fe791a90f5471e2ab20a5ed41a7fa451"/>
<use xlink:href="#c_8c0379a31aa3b07b28207e25658c6113" x="63.378906"/>
<use xlink:href="#c_1260a2df50f305f3db244e29828f968e" x="147.167969"/>
</g>
</g>
</g>
</g>
</g>
</svg>
