<?xml version="1.0" standalone="no"?>
<!DOCTYPE svg PUBLIC "-//W3C//DTD SVG 1.1//EN"
  "http://www.w3.org/Graphics/SVG/1.1/DTD/svg11.dtd">
<!-- Created with matplotlib (http://matplotlib.sourceforge.net/) -->
<svg width="576pt" height="432pt" viewBox="0 0 576 432"
   xmlns="http://www.w3.org/2000/svg"
   xmlns:xlink="http://www.w3.org/1999/xlink"
   version="1.1"
   id="svg1">
<g id="figure1">
<path style="fill: #ffffff; stroke: #ffffff; stroke-width: 1.000000; stroke-linejoin: miter; stroke-linecap: square;  opacity: 1.000000"  d="M0.000000 432.000000L576.000000 432.000000L576.000000 0.000000
L0.000000 0.000000L0.000000 432.000000"/>
<g id="axes1">
<path style="fill: #ffffff; opacity: 1.000000"  d="M72.000000 388.800000L518.400000 388.800000L518.400000 43.200000
L72.000000 43.200000L72.000000 388.800000"/>
<g id="line2d1">
<defs>
  <clipPath id="p50431ccdcb28178602d99d9270004dde">
<rect x="72.000000" y="43.200000" width="446.400000" height="345.600000"/>
  </clipPath>
</defs><path style="fill: none; stroke: #0000ff; stroke-width: 1.000000; stroke-linejoin: miter; stroke-linecap: square;  opacity: 1.000000" clip-path="url(#p50431ccdcb28178602d99d9270004dde)" d="M72.000000 216.000000L76.047351 205.040347L80.094701 194.124824
L84.142052 183.297385L88.189402 172.601628L92.236753 162.080621
L96.284103 151.776728L100.331454 141.731439L104.378804 131.985204
L108.426155 122.577267L112.473505 113.545510L116.520856 104.926301
L120.568206 96.754347L124.615557 89.062553L128.662907 81.881891
L132.710258 75.241275L136.757609 69.167446L140.804959 63.684859
L144.852310 58.815591L148.899660 54.579250L152.947011 50.992893
L156.994361 48.070961L161.041712 45.825220L165.089062 44.264713
L169.136413 43.395724L173.183763 43.221751L177.231114 43.743495
L181.278464 44.958855L185.325815 46.862937L189.373166 49.448075
L193.420516 52.703859L197.467867 56.617178L201.515217 61.172276
L205.562568 66.350810L209.609918 72.131929L213.657269 78.492354
L217.704619 85.406474L221.751970 92.846447L225.799320 100.782317
L229.846671 109.182127L233.894021 118.012056L237.941372 127.236547
L241.988722 136.818457L246.036073 146.719203L250.083424 156.898919
L254.130774 167.316614L258.178125 177.930340L262.225475 188.697359
L266.272826 199.574316L270.320176 210.517413L274.367527 221.482587
L278.414877 232.425684L282.462228 243.302641L286.509578 254.069660
L290.556929 264.683386L294.604279 275.101081L298.651630 285.280797
L302.698981 295.181543L306.746331 304.763453L310.793682 313.987944
L314.841032 322.817873L318.888383 331.217683L322.935733 339.153553
L326.983084 346.593526L331.030434 353.507646L335.077785 359.868071
L339.125135 365.649190L343.172486 370.827724L347.219836 375.382822
L351.267187 379.296141L355.314537 382.551925L359.361888 385.137063
L363.409239 387.041145L367.456589 388.256505L371.503940 388.778249
L375.551290 388.604276L379.598641 387.735287L383.645991 386.174780
L387.693342 383.929039L391.740692 381.007107L395.788043 377.420750
L399.835393 373.184409L403.882744 368.315141L407.930094 362.832554
L411.977445 356.758725L416.024796 350.118109L420.072146 342.937447
L424.119497 335.245653L428.166847 327.073699L432.214198 318.454490
L436.261548 309.422733L440.308899 300.014796L444.356249 290.268561
L448.403600 280.223272L452.450950 269.919379L456.498301 259.398372
L460.545651 248.702615L464.593002 237.875176L468.640352 226.959653"/>
</g>
<g id="line2d2">
<path style="fill: none; stroke: #008000; stroke-width: 1.000000; stroke-linejoin: miter; stroke-linecap: square;  opacity: 1.000000" clip-path="url(#p50431ccdcb28178602d99d9270004dde)" d="M72.000000 43.200000L76.047351 43.547902L80.094701 44.590208
L84.142052 46.322721L88.189402 48.738464L92.236753 51.827711
L96.284103 55.578021L100.331454 59.974294L104.378804 64.998828
L108.426155 70.631390L112.473505 76.849299L116.520856 83.627520
L120.568206 90.938758L124.615557 98.753574L128.662907 107.040499
L132.710258 115.766166L136.757609 124.895439L140.804959 134.391558
L144.852310 144.216286L148.899660 154.330061L152.947011 164.692159
L156.994361 175.260856L161.041712 185.993595L165.089062 196.847159
L169.136413 207.777845L173.183763 218.741639L177.231114 229.694393
L181.278464 240.592004L185.325815 251.390592L189.373166 262.046675
L193.420516 272.517344L197.467867 282.760438L201.515217 292.734711
L205.562568 302.400000L209.609918 311.717387L213.657269 320.649354
L217.704619 329.159935L221.751970 337.214861L225.799320 344.781697
L229.846671 351.829975L233.894021 358.331313L237.941372 364.259534
L241.988722 369.590766L246.036073 374.303541L250.083424 378.378885
L254.130774 381.800386L258.178125 384.554267L262.225475 386.629440
L266.272826 388.017548L270.320176 388.713003L274.367527 388.713003
L278.414877 388.017548L282.462228 386.629440L286.509578 384.554267
L290.556929 381.800386L294.604279 378.378885L298.651630 374.303541
L302.698981 369.590766L306.746331 364.259534L310.793682 358.331313
L314.841032 351.829975L318.888383 344.781697L322.935733 337.214861
L326.983084 329.159935L331.030434 320.649354L335.077785 311.717387
L339.125135 302.400000L343.172486 292.734711L347.219836 282.760438
L351.267187 272.517344L355.314537 262.046675L359.361888 251.390592
L363.409239 240.592004L367.456589 229.694393L371.503940 218.741639
L375.551290 207.777845L379.598641 196.847159L383.645991 185.993595
L387.693342 175.260856L391.740692 164.692159L395.788043 154.330061
L399.835393 144.216286L403.882744 134.391558L407.930094 124.895439
L411.977445 115.766166L416.024796 107.040499L420.072146 98.753574
L424.119497 90.938758L428.166847 83.627520L432.214198 76.849299
L436.261548 70.631390L440.308899 64.998828L444.356249 59.974294
L448.403600 55.578021L452.450950 51.827711L456.498301 48.738464
L460.545651 46.322721L464.593002 44.590208L468.640352 43.547902"/>
</g>
<g id="line2d3">
<path style="fill: none; stroke: #ff0000; stroke-width: 1.000000; stroke-linejoin: miter; stroke-linecap: square;  opacity: 1.000000" clip-path="url(#p50431ccdcb28178602d99d9270004dde)" d="M72.000000 216.000000L76.047351 205.062412L80.094701 194.300814
L84.142052 183.888364L88.189402 173.992602L92.236753 164.772755
L96.284103 156.377173L100.331454 148.940945L104.378804 142.583723
L108.426155 137.407796L112.473505 133.496446L116.520856 130.912610
L120.568206 129.697862L124.615557 129.871747L128.662907 131.431469
L132.710258 134.351929L136.757609 138.586138L140.804959 144.065965
L144.852310 150.703237L148.899660 158.391158L152.947011 167.006028
L156.994361 176.409229L161.041712 186.449460L165.089062 196.965170
L169.136413 207.787158L173.183763 218.741293L177.231114 229.651321
L181.278464 240.341693L185.325815 250.640398L189.373166 260.381727
L193.420516 269.408936L197.467867 277.576776L201.515217 284.753823
L205.562568 290.824595L209.609918 295.691411L213.657269 299.275962
L217.704619 301.520573L221.751970 302.389125L225.799320 301.867643
L229.846671 299.964520L233.894021 296.710375L237.941372 292.157571
L241.988722 286.379362L246.036073 279.468724L250.083424 271.536849
L254.130774 262.711367L258.178125 253.134280L262.225475 242.959690
L266.272826 232.351308L270.320176 221.479827L274.367527 210.520173
L278.414877 199.648692L282.462228 189.040310L286.509578 178.865720
L290.556929 169.288633L294.604279 160.463151L298.651630 152.531276
L302.698981 145.620638L306.746331 139.842429L310.793682 135.289625
L314.841032 132.035480L318.888383 130.132357L322.935733 129.610875
L326.983084 130.479427L331.030434 132.724038L335.077785 136.308589
L339.125135 141.175405L343.172486 147.246177L347.219836 154.423224
L351.267187 162.591064L355.314537 171.618273L359.361888 181.359602
L363.409239 191.658307L367.456589 202.348679L371.503940 213.258707
L375.551290 224.212842L379.598641 235.034830L383.645991 245.550540
L387.693342 255.590771L391.740692 264.993972L395.788043 273.608842
L399.835393 281.296763L403.882744 287.934035L407.930094 293.413862
L411.977445 297.648071L416.024796 300.568531L420.072146 302.128253
L424.119497 302.302138L428.166847 301.087390L432.214198 298.503554
L436.261548 294.592204L440.308899 289.416277L444.356249 283.059055
L448.403600 275.622827L452.450950 267.227245L456.498301 258.007398
L460.545651 248.111636L464.593002 237.699186L468.640352 226.937588"/>
</g>
<g id="matplotlib.axis1">
<g id="xtick1">
<g id="line2d4">
<defs><path id="m30e32995789d870ad79a2e54c91cf9c6" d="M0.000000 0.000000L0.000000 -4.000000"/></defs>
<g ><use style="fill: none; stroke: #000000; stroke-width: 0.500000; stroke-linejoin: miter; stroke-linecap: butt;  opacity: 1.000000" xlink:href="#m30e32995789d870ad79a2e54c91cf9c6" x="72.000000" y="388.800000"/>
</g></g>
<g id="line2d5">
<defs><path id="m9281cae24120827b11d5ea8a7ad3e96b" d="M0.000000 0.000000L0.000000 4.000000"/></defs>
<g ><use style="fill: none; stroke: #000000; stroke-width: 0.500000; stroke-linejoin: miter; stroke-linecap: butt;  opacity: 1.000000" xlink:href="#m9281cae24120827b11d5ea8a7ad3e96b" x="72.000000" y="43.200000"/>
</g></g>
<defs>
<path id="c_7a2040fe3b94fcd41d0a72c84e93b115" d="M31.781250 -66.406250q-7.609375 0.000000 -11.453125 7.500000q-3.828125 7.484375 -3.828125 22.531250q0.000000 14.984375 3.828125 22.484375q3.843750 7.500000 11.453125 7.500000q7.671875 0.000000 11.500000 -7.500000q3.843750 -7.500000 3.843750 -22.484375q0.000000 -15.046875 -3.843750 -22.531250q-3.828125 -7.500000 -11.500000 -7.500000M31.781250 -74.218750q12.265625 0.000000 18.734375 9.703125q6.468750 9.687500 6.468750 28.140625q0.000000 18.406250 -6.468750 28.109375q-6.468750 9.687500 -18.734375 9.687500q-12.250000 0.000000 -18.718750 -9.687500q-6.468750 -9.703125 -6.468750 -28.109375q0.000000 -18.453125 6.468750 -28.140625q6.468750 -9.703125 18.718750 -9.703125"/>
</defs>
<g style="fill: #000000; opacity: 1.000000" transform="translate(68.976562,401.706250)scale(0.120000)">
<use xlink:href="#c_7a2040fe3b94fcd41d0a72c84e93b115"/>
</g>
</g>
<g id="xtick2">
<g id="line2d6">
<g ><use style="fill: none; stroke: #000000; stroke-width: 0.500000; stroke-linejoin: miter; stroke-linecap: butt;  opacity: 1.000000" xlink:href="#m30e32995789d870ad79a2e54c91cf9c6" x="135.771429" y="388.800000"/>
</g></g>
<g id="line2d7">
<g ><use style="fill: none; stroke: #000000; stroke-width: 0.500000; stroke-linejoin: miter; stroke-linecap: butt;  opacity: 1.000000" xlink:href="#m9281cae24120827b11d5ea8a7ad3e96b" x="135.771429" y="43.200000"/>
</g></g>
<defs>
<path id="c_42baa63129a918535c52adb20d687ea7" d="M12.406250 -8.296875l16.109375 0.000000l0.000000 -55.625000l-17.531250 3.515625l0.000000 -8.984375l17.437500 -3.515625l9.859375 0.000000l0.000000 64.609375l16.109375 0.000000l0.000000 8.296875l-41.984375 0.000000z"/>
</defs>
<g style="fill: #000000; opacity: 1.000000" transform="translate(133.162054,401.550000)scale(0.120000)">
<use xlink:href="#c_42baa63129a918535c52adb20d687ea7"/>
</g>
</g>
<g id="xtick3">
<g id="line2d8">
<g ><use style="fill: none; stroke: #000000; stroke-width: 0.500000; stroke-linejoin: miter; stroke-linecap: butt;  opacity: 1.000000" xlink:href="#m30e32995789d870ad79a2e54c91cf9c6" x="199.542857" y="388.800000"/>
</g></g>
<g id="line2d9">
<g ><use style="fill: none; stroke: #000000; stroke-width: 0.500000; stroke-linejoin: miter; stroke-linecap: butt;  opacity: 1.000000" xlink:href="#m9281cae24120827b11d5ea8a7ad3e96b" x="199.542857" y="43.200000"/>
</g></g>
<defs>
<path id="c_ed3f3ed3ebfbd18bcb9c012009a68ad1" d="M19.187500 -8.296875l34.421875 0.000000l0.000000 8.296875l-46.281250 0.000000l0.000000 -8.296875q5.609375 -5.812500 15.296875 -15.593750q9.703125 -9.796875 12.187500 -12.640625q4.734375 -5.312500 6.609375 -9.000000q1.890625 -3.687500 1.890625 -7.250000q0.000000 -5.812500 -4.078125 -9.468750q-4.078125 -3.671875 -10.625000 -3.671875q-4.640625 0.000000 -9.796875 1.609375q-5.140625 1.609375 -11.000000 4.890625l0.000000 -9.968750q5.953125 -2.390625 11.125000 -3.609375q5.187500 -1.218750 9.484375 -1.218750q11.328125 0.000000 18.062500 5.671875q6.734375 5.656250 6.734375 15.125000q0.000000 4.500000 -1.687500 8.531250q-1.671875 4.015625 -6.125000 9.484375q-1.218750 1.421875 -7.765625 8.187500q-6.531250 6.765625 -18.453125 18.921875"/>
</defs>
<g style="fill: #000000; opacity: 1.000000" transform="translate(196.761607,401.706250)scale(0.120000)">
<use xlink:href="#c_ed3f3ed3ebfbd18bcb9c012009a68ad1"/>
</g>
</g>
<g id="xtick4">
<g id="line2d10">
<g ><use style="fill: none; stroke: #000000; stroke-width: 0.500000; stroke-linejoin: miter; stroke-linecap: butt;  opacity: 1.000000" xlink:href="#m30e32995789d870ad79a2e54c91cf9c6" x="263.314286" y="388.800000"/>
</g></g>
<g id="line2d11">
<g ><use style="fill: none; stroke: #000000; stroke-width: 0.500000; stroke-linejoin: miter; stroke-linecap: butt;  opacity: 1.000000" xlink:href="#m9281cae24120827b11d5ea8a7ad3e96b" x="263.314286" y="43.200000"/>
</g></g>
<defs>
<path id="c_3dcfa38a02242cb63ec6726c6e70be7a" d="M40.578125 -39.312500q7.078125 1.515625 11.046875 6.312500q3.984375 4.781250 3.984375 11.812500q0.000000 10.781250 -7.421875 16.703125q-7.421875 5.906250 -21.093750 5.906250q-4.578125 0.000000 -9.437500 -0.906250q-4.859375 -0.906250 -10.031250 -2.718750l0.000000 -9.515625q4.093750 2.390625 8.968750 3.609375q4.890625 1.218750 10.218750 1.218750q9.265625 0.000000 14.125000 -3.656250q4.859375 -3.656250 4.859375 -10.640625q0.000000 -6.453125 -4.515625 -10.078125q-4.515625 -3.640625 -12.562500 -3.640625l-8.500000 0.000000l0.000000 -8.109375l8.890625 0.000000q7.265625 0.000000 11.125000 -2.906250q3.859375 -2.906250 3.859375 -8.375000q0.000000 -5.609375 -3.984375 -8.609375q-3.968750 -3.015625 -11.390625 -3.015625q-4.062500 0.000000 -8.703125 0.890625q-4.640625 0.875000 -10.203125 2.718750l0.000000 -8.781250q5.625000 -1.562500 10.531250 -2.343750q4.906250 -0.781250 9.250000 -0.781250q11.234375 0.000000 17.765625 5.109375q6.546875 5.093750 6.546875 13.781250q0.000000 6.062500 -3.468750 10.234375q-3.468750 4.171875 -9.859375 5.781250"/>
</defs>
<g style="fill: #000000; opacity: 1.000000" transform="translate(260.439286,401.706250)scale(0.120000)">
<use xlink:href="#c_3dcfa38a02242cb63ec6726c6e70be7a"/>
</g>
</g>
<g id="xtick5">
<g id="line2d12">
<g ><use style="fill: none; stroke: #000000; stroke-width: 0.500000; stroke-linejoin: miter; stroke-linecap: butt;  opacity: 1.000000" xlink:href="#m30e32995789d870ad79a2e54c91cf9c6" x="327.085714" y="388.800000"/>
</g></g>
<g id="line2d13">
<g ><use style="fill: none; stroke: #000000; stroke-width: 0.500000; stroke-linejoin: miter; stroke-linecap: butt;  opacity: 1.000000" xlink:href="#m9281cae24120827b11d5ea8a7ad3e96b" x="327.085714" y="43.200000"/>
</g></g>
<defs>
<path id="c_a0416418d96557a09b8c1332d34883ba" d="M37.796875 -64.312500l-24.906250 38.921875l24.906250 0.000000zM35.203125 -72.906250l12.406250 0.000000l0.000000 47.515625l10.406250 0.000000l0.000000 8.203125l-10.406250 0.000000l0.000000 17.187500l-9.812500 0.000000l0.000000 -17.187500l-32.906250 0.000000l0.000000 -9.515625z"/>
</defs>
<g style="fill: #000000; opacity: 1.000000" transform="translate(323.898214,401.550000)scale(0.120000)">
<use xlink:href="#c_a0416418d96557a09b8c1332d34883ba"/>
</g>
</g>
<g id="xtick6">
<g id="line2d14">
<g ><use style="fill: none; stroke: #000000; stroke-width: 0.500000; stroke-linejoin: miter; stroke-linecap: butt;  opacity: 1.000000" xlink:href="#m30e32995789d870ad79a2e54c91cf9c6" x="390.857143" y="388.800000"/>
</g></g>
<g id="line2d15">
<g ><use style="fill: none; stroke: #000000; stroke-width: 0.500000; stroke-linejoin: miter; stroke-linecap: butt;  opacity: 1.000000" xlink:href="#m9281cae24120827b11d5ea8a7ad3e96b" x="390.857143" y="43.200000"/>
</g></g>
<defs>
<path id="c_1260a2df50f305f3db244e29828f968e" d="M10.796875 -72.906250l38.718750 0.000000l0.000000 8.312500l-29.687500 0.000000l0.000000 17.859375q2.140625 -0.734375 4.281250 -1.093750q2.156250 -0.359375 4.312500 -0.359375q12.203125 0.000000 19.328125 6.687500q7.140625 6.687500 7.140625 18.109375q0.000000 11.765625 -7.328125 18.296875q-7.328125 6.515625 -20.656250 6.515625q-4.593750 0.000000 -9.359375 -0.781250q-4.750000 -0.781250 -9.828125 -2.343750l0.000000 -9.921875q4.390625 2.390625 9.078125 3.562500q4.687500 1.171875 9.906250 1.171875q8.453125 0.000000 13.375000 -4.437500q4.937500 -4.437500 4.937500 -12.062500q0.000000 -7.609375 -4.937500 -12.046875q-4.921875 -4.453125 -13.375000 -4.453125q-3.953125 0.000000 -7.890625 0.875000q-3.921875 0.875000 -8.015625 2.734375z"/>
</defs>
<g style="fill: #000000; opacity: 1.000000" transform="translate(388.021205,401.550000)scale(0.120000)">
<use xlink:href="#c_1260a2df50f305f3db244e29828f968e"/>
</g>
</g>
<g id="xtick7">
<g id="line2d16">
<g ><use style="fill: none; stroke: #000000; stroke-width: 0.500000; stroke-linejoin: miter; stroke-linecap: butt;  opacity: 1.000000" xlink:href="#m30e32995789d870ad79a2e54c91cf9c6" x="454.628571" y="388.800000"/>
</g></g>
<g id="line2d17">
<g ><use style="fill: none; stroke: #000000; stroke-width: 0.500000; stroke-linejoin: miter; stroke-linecap: butt;  opacity: 1.000000" xlink:href="#m9281cae24120827b11d5ea8a7ad3e96b" x="454.628571" y="43.200000"/>
</g></g>
<defs>
<path id="c_cc8d6d580d1b10c8632f7a42cd53db8a" d="M33.015625 -40.375000q-6.640625 0.000000 -10.531250 4.546875q-3.875000 4.531250 -3.875000 12.437500q0.000000 7.859375 3.875000 12.437500q3.890625 4.562500 10.531250 4.562500q6.640625 0.000000 10.515625 -4.562500q3.875000 -4.578125 3.875000 -12.437500q0.000000 -7.906250 -3.875000 -12.437500q-3.875000 -4.546875 -10.515625 -4.546875M52.593750 -71.296875l0.000000 8.984375q-3.718750 -1.750000 -7.500000 -2.671875q-3.781250 -0.937500 -7.500000 -0.937500q-9.765625 0.000000 -14.921875 6.593750q-5.140625 6.593750 -5.875000 19.921875q2.875000 -4.250000 7.218750 -6.515625q4.359375 -2.265625 9.578125 -2.265625q10.984375 0.000000 17.359375 6.671875q6.375000 6.656250 6.375000 18.125000q0.000000 11.234375 -6.640625 18.031250q-6.640625 6.781250 -17.671875 6.781250q-12.656250 0.000000 -19.343750 -9.687500q-6.687500 -9.703125 -6.687500 -28.109375q0.000000 -17.281250 8.203125 -27.562500q8.203125 -10.281250 22.015625 -10.281250q3.718750 0.000000 7.500000 0.734375q3.781250 0.734375 7.890625 2.187500"/>
</defs>
<g style="fill: #000000; opacity: 1.000000" transform="translate(451.612946,401.706250)scale(0.120000)">
<use xlink:href="#c_cc8d6d580d1b10c8632f7a42cd53db8a"/>
</g>
</g>
<g id="xtick8">
<g id="line2d18">
<g ><use style="fill: none; stroke: #000000; stroke-width: 0.500000; stroke-linejoin: miter; stroke-linecap: butt;  opacity: 1.000000" xlink:href="#m30e32995789d870ad79a2e54c91cf9c6" x="518.400000" y="388.800000"/>
</g></g>
<g id="line2d19">
<g ><use style="fill: none; stroke: #000000; stroke-width: 0.500000; stroke-linejoin: miter; stroke-linecap: butt;  opacity: 1.000000" xlink:href="#m9281cae24120827b11d5ea8a7ad3e96b" x="518.400000" y="43.200000"/>
</g></g>
<defs>
<path id="c_956f18cfdaf972f35a6c2b4aaac2532b" d="M8.203125 -72.906250l46.875000 0.000000l0.000000 4.203125l-26.468750 68.703125l-10.296875 0.000000l24.906250 -64.593750l-35.015625 0.000000z"/>
</defs>
<g style="fill: #000000; opacity: 1.000000" transform="translate(515.587500,401.550000)scale(0.120000)">
<use xlink:href="#c_956f18cfdaf972f35a6c2b4aaac2532b"/>
</g>
</g>
<defs>
<path id="c_eb1e92470a4110d909865a24321813de" d="M19.390625 19.484375l4.484375 -18.062500q-5.078125 0.000000 -9.468750 -2.375000q-4.390625 -2.375000 -7.062500 -6.609375q-2.656250 -4.250000 -2.656250 -9.234375q0.000000 -5.421875 2.687500 -10.343750q2.687500 -4.937500 7.343750 -8.968750q4.671875 -4.031250 10.031250 -6.203125q5.375000 -2.171875 10.656250 -2.171875l6.000000 -24.312500q0.203125 -0.593750 0.781250 -0.593750l1.218750 0.000000q0.390625 0.000000 0.625000 0.343750q0.250000 0.343750 0.250000 0.640625l-6.000000 23.921875q3.765625 0.000000 7.281250 1.375000q3.515625 1.359375 6.218750 3.828125q2.718750 2.468750 4.218750 5.812500q1.515625 3.343750 1.515625 7.156250q0.000000 5.406250 -2.687500 10.343750q-2.671875 4.937500 -7.218750 8.890625q-4.546875 3.953125 -10.140625 6.234375q-5.578125 2.265625 -10.656250 2.265625l-4.593750 18.500000q-0.203125 0.593750 -0.828125 0.593750l-1.171875 0.000000q-0.390625 0.000000 -0.609375 -0.375000q-0.218750 -0.359375 -0.218750 -0.656250M24.515625 -1.218750l10.203125 -40.671875q-2.546875 0.000000 -5.328125 1.031250q-2.781250 1.015625 -5.250000 2.578125q-2.453125 1.562500 -4.468750 3.562500q-2.437500 2.437500 -4.296875 5.765625q-1.843750 3.312500 -2.796875 7.000000q-0.953125 3.687500 -0.953125 7.250000q0.000000 3.765625 1.609375 6.843750q1.609375 3.078125 4.531250 4.859375q2.937500 1.781250 6.750000 1.781250M27.484375 -1.218750q3.765625 0.000000 8.015625 -2.140625q4.250000 -2.156250 6.984375 -5.046875q3.750000 -3.703125 5.921875 -9.093750q2.187500 -5.406250 2.187500 -10.921875q0.000000 -3.703125 -1.625000 -6.796875q-1.609375 -3.109375 -4.546875 -4.890625q-2.921875 -1.781250 -6.718750 -1.781250z"/>
</defs>
<g id="mathtext1">
<g style="fill: #000000" transform="translate(290.200000,422.878125)">
<use xlink:href="#c_eb1e92470a4110d909865a24321813de" transform="translate(0.000000,-4.890625)scale(0.160000)"/>
</g>
</g>
</g>
<g id="matplotlib.axis2">
<g id="ytick1">
<g id="line2d20">
<defs><path id="m3400efa6b1638b3fea9e19e898273957" d="M0.000000 0.000000L4.000000 0.000000"/></defs>
<g ><use style="fill: none; stroke: #000000; stroke-width: 0.500000; stroke-linejoin: miter; stroke-linecap: butt;  opacity: 1.000000" xlink:href="#m3400efa6b1638b3fea9e19e898273957" x="72.000000" y="388.800000"/>
</g></g>
<g id="line2d21">
<defs><path id="m20b58b2501143cb5e0a5e8f1ef6f1643" d="M0.000000 0.000000L-4.000000 0.000000"/></defs>
<g ><use style="fill: none; stroke: #000000; stroke-width: 0.500000; stroke-linejoin: miter; stroke-linecap: butt;  opacity: 1.000000" xlink:href="#m20b58b2501143cb5e0a5e8f1ef6f1643" x="518.400000" y="388.800000"/>
</g></g>
<defs>
<path id="c_6a8d56c819c37117ab4cf023bec22a5a" d="M10.593750 -35.500000l62.593750 0.000000l0.000000 8.296875l-62.593750 0.000000z"/>
<path id="c_ed3e21196fb739f392806f09ca0594ef" d="M10.687500 -12.406250l10.312500 0.000000l0.000000 12.406250l-10.312500 0.000000z"/>
</defs>
<g style="fill: #000000; opacity: 1.000000" transform="translate(40.906250,393.167188)scale(0.120000)">
<use xlink:href="#c_6a8d56c819c37117ab4cf023bec22a5a"/>
<use xlink:href="#c_42baa63129a918535c52adb20d687ea7" x="83.789062"/>
<use xlink:href="#c_ed3e21196fb739f392806f09ca0594ef" x="147.412109"/>
<use xlink:href="#c_7a2040fe3b94fcd41d0a72c84e93b115" x="179.199219"/>
</g>
</g>
<g id="ytick2">
<g id="line2d22">
<g ><use style="fill: none; stroke: #000000; stroke-width: 0.500000; stroke-linejoin: miter; stroke-linecap: butt;  opacity: 1.000000" xlink:href="#m3400efa6b1638b3fea9e19e898273957" x="72.000000" y="302.400000"/>
</g></g>
<g id="line2d23">
<g ><use style="fill: none; stroke: #000000; stroke-width: 0.500000; stroke-linejoin: miter; stroke-linecap: butt;  opacity: 1.000000" xlink:href="#m20b58b2501143cb5e0a5e8f1ef6f1643" x="518.400000" y="302.400000"/>
</g></g>
<g style="fill: #000000; opacity: 1.000000" transform="translate(41.156250,306.767187)scale(0.120000)">
<use xlink:href="#c_6a8d56c819c37117ab4cf023bec22a5a"/>
<use xlink:href="#c_7a2040fe3b94fcd41d0a72c84e93b115" x="83.789062"/>
<use xlink:href="#c_ed3e21196fb739f392806f09ca0594ef" x="147.412109"/>
<use xlink:href="#c_1260a2df50f305f3db244e29828f968e" x="179.199219"/>
</g>
</g>
<g id="ytick3">
<g id="line2d24">
<g ><use style="fill: none; stroke: #000000; stroke-width: 0.500000; stroke-linejoin: miter; stroke-linecap: butt;  opacity: 1.000000" xlink:href="#m3400efa6b1638b3fea9e19e898273957" x="72.000000" y="216.000000"/>
</g></g>
<g id="line2d25">
<g ><use style="fill: none; stroke: #000000; stroke-width: 0.500000; stroke-linejoin: miter; stroke-linecap: butt;  opacity: 1.000000" xlink:href="#m20b58b2501143cb5e0a5e8f1ef6f1643" x="518.400000" y="216.000000"/>
</g></g>
<g style="fill: #000000; opacity: 1.000000" transform="translate(50.500000,220.367188)scale(0.120000)">
<use xlink:href="#c_7a2040fe3b94fcd41d0a72c84e93b115"/>
<use xlink:href="#c_ed3e21196fb739f392806f09ca0594ef" x="63.623047"/>
<use xlink:href="#c_7a2040fe3b94fcd41d0a72c84e93b115" x="95.410156"/>
</g>
</g>
<g id="ytick4">
<g id="line2d26">
<g ><use style="fill: none; stroke: #000000; stroke-width: 0.500000; stroke-linejoin: miter; stroke-linecap: butt;  opacity: 1.000000" xlink:href="#m3400efa6b1638b3fea9e19e898273957" x="72.000000" y="129.600000"/>
</g></g>
<g id="line2d27">
<g ><use style="fill: none; stroke: #000000; stroke-width: 0.500000; stroke-linejoin: miter; stroke-linecap: butt;  opacity: 1.000000" xlink:href="#m20b58b2501143cb5e0a5e8f1ef6f1643" x="518.400000" y="129.600000"/>
</g></g>
<g style="fill: #000000; opacity: 1.000000" transform="translate(50.750000,133.967188)scale(0.120000)">
<use xlink:href="#c_7a2040fe3b94fcd41d0a72c84e93b115"/>
<use xlink:href="#c_ed3e21196fb739f392806f09ca0594ef" x="63.623047"/>
<use xlink:href="#c_1260a2df50f305f3db244e29828f968e" x="95.410156"/>
</g>
</g>
<g id="ytick5">
<g id="line2d28">
<g ><use style="fill: none; stroke: #000000; stroke-width: 0.500000; stroke-linejoin: miter; stroke-linecap: butt;  opacity: 1.000000" xlink:href="#m3400efa6b1638b3fea9e19e898273957" x="72.000000" y="43.200000"/>
</g></g>
<g id="line2d29">
<g ><use style="fill: none; stroke: #000000; stroke-width: 0.500000; stroke-linejoin: miter; stroke-linecap: butt;  opacity: 1.000000" xlink:href="#m20b58b2501143cb5e0a5e8f1ef6f1643" x="518.400000" y="43.200000"/>
</g></g>
<g style="fill: #000000; opacity: 1.000000" transform="translate(51.015625,47.567187)scale(0.120000)">
<use xlink:href="#c_42baa63129a918535c52adb20d687ea7"/>
<use xlink:href="#c_ed3e21196fb739f392806f09ca0594ef" x="63.623047"/>
<use xlink:href="#c_7a2040fe3b94fcd41d0a72c84e93b115" x="95.410156"/>
</g>
</g>
<defs>
<path id="c_ada8429b49f97e9b59ddeeed8d06fc73" d="M10.593750 -10.890625q0.000000 -3.265625 0.875000 -6.703125q0.890625 -3.453125 2.468750 -7.671875q1.593750 -4.234375 2.765625 -7.359375q1.312500 -3.656250 1.312500 -6.000000q0.000000 -2.984375 -2.187500 -2.984375q-3.968750 0.000000 -6.531250 4.078125q-2.562500 4.078125 -3.781250 9.109375q-0.187500 0.640625 -0.828125 0.640625l-1.171875 0.000000q-0.828125 0.000000 -0.828125 -0.937500l0.000000 -0.281250q1.609375 -5.968750 4.921875 -10.578125q3.328125 -4.609375 8.406250 -4.609375q3.562500 0.000000 6.031250 2.343750q2.468750 2.343750 2.468750 5.953125q0.000000 1.859375 -0.828125 3.906250q-0.437500 1.218750 -2.000000 5.328125q-1.562500 4.093750 -2.406250 6.781250q-0.828125 2.687500 -1.359375 5.281250q-0.531250 2.578125 -0.531250 5.171875q0.000000 3.312500 1.406250 5.609375q1.421875 2.296875 4.593750 2.296875q6.390625 0.000000 11.234375 -7.906250q0.093750 -0.390625 0.156250 -0.750000q0.078125 -0.375000 0.125000 -0.718750l7.187500 -29.000000q0.343750 -1.328125 1.562500 -2.265625q1.218750 -0.953125 2.640625 -0.953125q1.218750 0.000000 2.109375 0.781250q0.906250 0.781250 0.906250 2.046875q0.000000 0.578125 -0.093750 0.781250l-7.218750 28.812500q-0.687500 2.968750 -0.687500 4.875000q0.000000 4.296875 2.875000 4.296875q3.218750 0.000000 4.812500 -3.968750q1.593750 -3.984375 2.703125 -9.218750q0.203125 -0.578125 0.781250 -0.578125l1.234375 0.000000q0.390625 0.000000 0.625000 0.343750q0.250000 0.343750 0.250000 0.625000q-1.078125 4.296875 -2.078125 7.375000q-1.000000 3.078125 -3.156250 5.578125q-2.140625 2.484375 -5.359375 2.484375q-3.171875 0.000000 -5.687500 -1.734375q-2.515625 -1.734375 -3.406250 -4.718750q-2.281250 2.937500 -5.312500 4.703125q-3.031250 1.750000 -6.406250 1.750000q-5.750000 0.000000 -9.171875 -3.140625q-3.421875 -3.156250 -3.421875 -8.875000"/>
<path id="c_01bd98e0cf1b355b13e73042b8c9bdee" d="M9.906250 18.015625q0.000000 -0.437500 0.390625 -0.828125q3.625000 -3.468750 5.625000 -8.015625q2.000000 -4.531250 2.000000 -9.562500l0.000000 -1.218750q-1.609375 1.609375 -4.000000 1.609375q-2.296875 0.000000 -3.906250 -1.609375q-1.609375 -1.609375 -1.609375 -3.906250q0.000000 -2.343750 1.609375 -3.906250q1.609375 -1.562500 3.906250 -1.562500q3.562500 0.000000 5.078125 3.296875q1.515625 3.296875 1.515625 7.296875q0.000000 5.562500 -2.234375 10.562500q-2.218750 5.015625 -6.265625 9.015625q-0.390625 0.203125 -0.640625 0.203125q-0.484375 0.000000 -0.984375 -0.453125q-0.484375 -0.437500 -0.484375 -0.921875"/>
</defs>
<g id="mathtext2">
<g style="fill: #000000" transform="translate(35.906250,253.000000)rotate(-90.0)">
<use xlink:href="#c_ada8429b49f97e9b59ddeeed8d06fc73" transform="translate(0.000000,-7.921875)scale(0.160000)"/>
<use xlink:href="#c_01bd98e0cf1b355b13e73042b8c9bdee" transform="translate(9.148438,-7.921875)scale(0.160000)"/>
<use xlink:href="#c_ada8429b49f97e9b59ddeeed8d06fc73" transform="translate(18.109375,-7.921875)scale(0.160000)"/>
<use xlink:href="#c_eb1e92470a4110d909865a24321813de" transform="translate(27.257812,-3.840375)scale(0.112000)"/>
<use xlink:href="#c_01bd98e0cf1b355b13e73042b8c9bdee" transform="translate(36.781250,-7.921875)scale(0.160000)"/>
<use xlink:href="#c_ada8429b49f97e9b59ddeeed8d06fc73" transform="translate(45.742188,-7.921875)scale(0.160000)"/>
<use xlink:href="#c_ada8429b49f97e9b59ddeeed8d06fc73" transform="translate(54.890625,-7.921875)scale(0.160000)"/>
<use xlink:href="#c_eb1e92470a4110d909865a24321813de" transform="translate(64.039062,-3.840375)scale(0.112000)"/>
</g>
</g>
</g>
<path style="fill: none; stroke: #000000; stroke-width: 1.000000; stroke-linejoin: miter; stroke-linecap: square;  opacity: 1.000000"  d="M72.000000 388.800000L518.400000 388.800000L518.400000 43.200000
L72.000000 43.200000L72.000000 388.800000"/>
<g id="legend1">
<path style="fill: #ffffff; stroke: #000000; stroke-width: 1.000000; stroke-linejoin: miter; stroke-linecap: square;  opacity: 1.000000"  d="M433.360000 123.148125L511.200000 123.148125L511.200000 50.400000
L433.360000 50.400000L433.360000 123.148125z"/>
<g id="line2d30">
<path style="fill: none; stroke: #0000ff; stroke-width: 1.000000; stroke-linejoin: miter; stroke-linecap: square;  opacity: 1.000000"  d="M443.440000 61.760625L463.600000 61.760625"/>
</g>
<g id="line2d31">
</g>
<g id="mathtext3">
<g style="fill: #000000" transform="translate(479.440000,67.800625)">
<use xlink:href="#c_ada8429b49f97e9b59ddeeed8d06fc73" transform="translate(0.000000,-1.640625)scale(0.144000)"/>
</g>
</g>
<g id="line2d32">
<path style="fill: none; stroke: #008000; stroke-width: 1.000000; stroke-linejoin: miter; stroke-linecap: square;  opacity: 1.000000"  d="M443.440000 82.507500L463.600000 82.507500"/>
</g>
<g id="line2d33">
</g>
<g id="mathtext4">
<g style="fill: #000000" transform="translate(479.440000,93.547500)">
<use xlink:href="#c_ada8429b49f97e9b59ddeeed8d06fc73" transform="translate(0.000000,-6.640625)scale(0.144000)"/>
<use xlink:href="#c_eb1e92470a4110d909865a24321813de" transform="translate(8.228226,-2.967275)scale(0.100800)"/>
</g>
</g>
<g id="line2d34">
<path style="fill: none; stroke: #ff0000; stroke-width: 1.000000; stroke-linejoin: miter; stroke-linecap: square;  opacity: 1.000000"  d="M443.440000 106.348125L463.600000 106.348125"/>
</g>
<g id="line2d35">
</g>
<g id="mathtext5">
<g style="fill: #000000" transform="translate(479.440000,117.388125)">
<use xlink:href="#c_ada8429b49f97e9b59ddeeed8d06fc73" transform="translate(0.000000,-6.640625)scale(0.144000)"/>
<use xlink:href="#c_ada8429b49f97e9b59ddeeed8d06fc73" transform="translate(8.228226,-6.640625)scale(0.144000)"/>
<use xlink:href="#c_eb1e92470a4110d909865a24321813de" transform="translate(16.456451,-2.967275)scale(0.100800)"/>
</g>
</g>
</g>
</g>
</g>
</svg>
