<?xml version="1.0" standalone="no"?>
<!DOCTYPE svg PUBLIC "-//W3C//DTD SVG 1.1//EN"
  "http://www.w3.org/Graphics/SVG/1.1/DTD/svg11.dtd">
<!-- Created with matplotlib (http://matplotlib.sourceforge.net/) -->
<svg width="576pt" height="432pt" viewBox="0 0 576 432"
   xmlns="http://www.w3.org/2000/svg"
   xmlns:xlink="http://www.w3.org/1999/xlink"
   version="1.1"
   id="svg1">
<g id="figure1">
<path style="fill: #ffffff; stroke: #ffffff; stroke-width: 1.000000; stroke-linejoin: miter; stroke-linecap: square;  opacity: 1.000000"  d="M0.000000 432.000000L576.000000 432.000000L576.000000 0.000000
L0.000000 0.000000L0.000000 432.000000"/>
<g id="axes1">
<path style="fill: #ffffff; opacity: 1.000000"  d="M72.000000 388.800000L518.400000 388.800000L518.400000 43.200000
L72.000000 43.200000L72.000000 388.800000"/>
<g id="line2d1">
<defs>
  <clipPath id="p50431ccdcb28178602d99d9270004dde">
<rect x="72.000000" y="43.200000" width="446.400000" height="345.600000"/>
  </clipPath>
</defs><path style="fill: none; stroke: #0000ff; stroke-width: 1.000000; stroke-linejoin: miter; stroke-linecap: square;  opacity: 1.000000" clip-path="url(#p50431ccdcb28178602d99d9270004dde)" d="M119.899130 216.000000L122.638206 224.478894L125.377282 232.937362
L128.116358 241.355026L130.855434 249.711608L133.594510 257.986975
L136.333586 266.161192L139.072663 274.214567L141.811739 282.127697
L144.550815 289.881520L147.289891 297.457356L150.028967 304.836954
L152.768043 312.002536L155.507119 318.936840L158.246195 325.623160
L160.985271 332.045387L163.724347 338.188052L166.463424 344.036354
L169.202500 349.576206L171.941576 354.794261L174.680652 359.677949
L177.419728 364.215504L180.158804 368.395994L182.897880 372.209350
L185.636956 375.646383L188.376032 378.698814L191.115108 381.359290
L193.854184 383.621401L196.593261 385.479696L199.332337 386.929701
L202.071413 387.967921L204.810489 388.591855L207.549565 388.800000
L210.288641 388.591855L213.027717 387.967921L215.766793 386.929701
L218.505869 385.479696L221.244945 383.621401L223.984022 381.359290
L226.723098 378.698814L229.462174 375.646383L232.201250 372.209350
L234.940326 368.395994L237.679402 364.215504L240.418478 359.677949
L243.157554 354.794261L245.896630 349.576206L248.635706 344.036354
L251.374782 338.188052L254.113859 332.045387L256.852935 325.623160
L259.592011 318.936840L262.331087 312.002536L265.070163 304.836954
L267.809239 297.457356L270.548315 289.881520L273.287391 282.127697
L276.026467 274.214567L278.765543 266.161192L281.504620 257.986975
L284.243696 249.711608L286.982772 241.355026L289.721848 232.937362
L292.460924 224.478894L295.200000 216.000000L297.939076 207.521106
L300.678152 199.062638L303.417228 190.644974L306.156304 182.288392
L308.895380 174.013025L311.634457 165.838808L314.373533 157.785433
L317.112609 149.872303L319.851685 142.118480L322.590761 134.542644
L325.329837 127.163046L328.068913 119.997464L330.807989 113.063160
L333.547065 106.376840L336.286141 99.954613L339.025218 93.811948
L341.764294 87.963646L344.503370 82.423794L347.242446 77.205739
L349.981522 72.322051L352.720598 67.784496L355.459674 63.604006
L358.198750 59.790650L360.937826 56.353617L363.676902 53.301186
L366.415978 50.640710L369.155055 48.378599L371.894131 46.520304
L374.633207 45.070299L377.372283 44.032079L380.111359 43.408145
L382.850435 43.200000L385.589511 43.408145L388.328587 44.032079
L391.067663 45.070299L393.806739 46.520304L396.545816 48.378599
L399.284892 50.640710L402.023968 53.301186L404.763044 56.353617
L407.502120 59.790650L410.241196 63.604006L412.980272 67.784496
L415.719348 72.322051L418.458424 77.205739L421.197500 82.423794
L423.936576 87.963646L426.675653 93.811948L429.414729 99.954613
L432.153805 106.376840L434.892881 113.063160L437.631957 119.997464
L440.371033 127.163046L443.110109 134.542644L445.849185 142.118480
L448.588261 149.872303L451.327337 157.785433L454.066414 165.838808
L456.805490 174.013025L459.544566 182.288392L462.283642 190.644974
L465.022718 199.062638L467.761794 207.521106"/>
</g>
<g id="line2d2">
<path style="fill: none; stroke: #008000; stroke-width: 1.000000; stroke-linejoin: miter; stroke-linecap: square;  opacity: 1.000000" clip-path="url(#p50431ccdcb28178602d99d9270004dde)" d="M119.899130 216.000000L122.638206 240.402301L125.377282 263.655571
L128.116358 284.832246L130.855434 303.359581L133.594510 319.032079
L136.333586 331.933387L139.072663 342.324918L141.811739 350.545925
L144.550815 356.943930L147.289891 361.835928L150.028967 365.492719
L152.768043 368.136994L155.507119 369.947774L158.246195 371.067234
L160.985271 371.607973L163.724347 371.659472L166.463424 371.293152
L169.202500 370.566365L171.941576 369.525685L174.680652 368.209417
L177.419728 366.649293L180.158804 364.871786L182.897880 362.899302
L185.636956 360.751044L188.376032 358.443515L191.115108 355.990956
L193.854184 353.405852L196.593261 350.699267L199.332337 347.880966
L202.071413 344.959590L204.810489 341.942921L207.549565 338.838032
L210.288641 335.651285L213.027717 332.388408L215.766793 329.054676
L218.505869 325.654978L221.244945 322.193767L223.984022 318.675111
L226.723098 315.102825L229.462174 311.480505L232.201250 307.811452
L234.940326 304.098719L237.679402 300.345221L240.418478 296.553741
L243.157554 292.726852L245.896630 288.866959L248.635706 284.976399
L251.374782 281.057427L254.113859 277.112139L256.852935 273.142519
L259.592011 269.150527L262.331087 265.138068L265.070163 261.106929
L267.809239 257.058818L270.548315 252.995449L273.287391 248.918506
L276.026467 244.829574L278.765543 240.730193L281.504620 236.621929
L284.243696 232.506332L286.982772 228.384874L289.721848 224.259003
L292.460924 220.130216L295.200000 216.000000L297.939076 211.869784
L300.678152 207.740997L303.417228 203.615126L306.156304 199.493668
L308.895380 195.378071L311.634457 191.269807L314.373533 187.170426
L317.112609 183.081494L319.851685 179.004551L322.590761 174.941182
L325.329837 170.893071L328.068913 166.861932L330.807989 162.849473
L333.547065 158.857481L336.286141 154.887861L339.025218 150.942573
L341.764294 147.023601L344.503370 143.133041L347.242446 139.273148
L349.981522 135.446259L352.720598 131.654779L355.459674 127.901281
L358.198750 124.188548L360.937826 120.519495L363.676902 116.897175
L366.415978 113.324889L369.155055 109.806233L371.894131 106.345022
L374.633207 102.945324L377.372283 99.611592L380.111359 96.348715
L382.850435 93.161968L385.589511 90.057079L388.328587 87.040410
L391.067663 84.119034L393.806739 81.300733L396.545816 78.594148
L399.284892 76.009044L402.023968 73.556485L404.763044 71.248956
L407.502120 69.100698L410.241196 67.128214L412.980272 65.350707
L415.719348 63.790583L418.458424 62.474315L421.197500 61.433635
L423.936576 60.706848L426.675653 60.340528L429.414729 60.392027
L432.153805 60.932766L434.892881 62.052226L437.631957 63.863006
L440.371033 66.507281L443.110109 70.164072L445.849185 75.056070
L448.588261 81.454075L451.327337 89.675082L454.066414 100.066613
L456.805490 112.967921L459.544566 128.640419L462.283642 147.167754
L465.022718 168.344429L467.761794 191.597699"/>
</g>
<g id="line2d3">
<path style="fill: none; stroke: #ff0000; stroke-width: 1.000000; stroke-linejoin: miter; stroke-linecap: square;  opacity: 1.000000" clip-path="url(#p50431ccdcb28178602d99d9270004dde)" d="M119.899130 216.000000L122.638206 245.372192L125.377282 272.249445
L128.116358 294.880429L130.855434 312.580835L133.594510 325.567106
L136.333586 334.556499L139.072663 340.412660L141.811739 343.938883
L144.550815 345.789774L147.289891 346.455803L150.028967 346.289161
L152.768043 345.539455L155.507119 344.379650L158.246195 342.925751
L160.985271 341.256711L163.724347 339.428903L166.463424 337.481346
L169.202500 335.439206L171.941576 333.320389L174.680652 331.139658
L177.419728 328.907558L180.158804 326.630236L182.897880 324.312831
L185.636956 321.960988L188.376032 319.578686L191.115108 317.167696
L193.854184 314.730150L196.593261 312.269254L199.332337 309.787042
L202.071413 307.284032L204.810489 304.761485L207.549565 302.221706
L210.288641 299.665927L213.027717 297.094203L215.766793 294.507477
L218.505869 291.907600L221.244945 289.295367L223.984022 286.670628
L226.723098 284.034188L229.462174 281.387618L232.201250 278.731432
L234.940326 276.065378L237.679402 273.390203L240.418478 270.707283
L243.157554 268.016931L245.896630 265.318848L248.635706 262.613765
L251.374782 259.902910L254.113859 257.186444L256.852935 254.464057
L259.592011 251.736482L262.331087 249.004835L265.070163 246.269159
L267.809239 243.529149L270.548315 240.785562L273.287391 238.039421
L276.026467 235.290672L278.765543 232.539037L281.504620 229.785304
L284.243696 227.030419L286.982772 224.274254L289.721848 221.516566
L292.460924 218.758187L295.200000 216.000000L297.939076 213.241813
L300.678152 210.483434L303.417228 207.725746L306.156304 204.969581
L308.895380 202.214696L311.634457 199.460963L314.373533 196.709328
L317.112609 193.960579L319.851685 191.214438L322.590761 188.470851
L325.329837 185.730841L328.068913 182.995165L330.807989 180.263518
L333.547065 177.535943L336.286141 174.813556L339.025218 172.097090
L341.764294 169.386235L344.503370 166.681152L347.242446 163.983069
L349.981522 161.292717L352.720598 158.609797L355.459674 155.934622
L358.198750 153.268568L360.937826 150.612382L363.676902 147.965812
L366.415978 145.329372L369.155055 142.704633L371.894131 140.092400
L374.633207 137.492523L377.372283 134.905797L380.111359 132.334073
L382.850435 129.778294L385.589511 127.238515L388.328587 124.715968
L391.067663 122.212958L393.806739 119.730746L396.545816 117.269850
L399.284892 114.832304L402.023968 112.421314L404.763044 110.039012
L407.502120 107.687169L410.241196 105.369764L412.980272 103.092442
L415.719348 100.860342L418.458424 98.679611L421.197500 96.560794
L423.936576 94.518654L426.675653 92.571097L429.414729 90.743289
L432.153805 89.074249L434.892881 87.620350L437.631957 86.460545
L440.371033 85.710839L443.110109 85.544197L445.849185 86.210226
L448.588261 88.061117L451.327337 91.587340L454.066414 97.443501
L456.805490 106.432894L459.544566 119.419165L462.283642 137.119571
L465.022718 159.750555L467.761794 186.627808"/>
</g>
<g id="line2d4">
<path style="fill: none; stroke: #00bfbf; stroke-width: 1.000000; stroke-linejoin: miter; stroke-linecap: square;  opacity: 1.000000" clip-path="url(#p50431ccdcb28178602d99d9270004dde)" d="M119.899130 216.000000L122.638206 236.239393L125.377282 255.167225
L128.116358 271.766731L130.855434 285.480943L133.594510 296.206270
L136.333586 304.168908L139.072663 309.771077L141.811739 313.466090
L144.550815 315.680198L147.289891 316.775655L150.028967 317.041942
L152.768043 316.701610L155.507119 315.921053L158.246195 314.822086
L160.985271 313.492936L163.724347 311.997282L166.463424 310.380715
L169.202500 308.675545L171.941576 306.904803L174.680652 305.085136
L177.419728 303.228439L180.158804 301.343060L182.897880 299.435049
L185.636956 297.508982L188.376032 295.568173L191.115108 293.614909
L193.854184 291.650959L196.593261 289.677824L199.332337 287.696605
L202.071413 285.708026L204.810489 283.712745L207.549565 281.711433
L210.288641 279.704574L213.027717 277.692460L215.766793 275.675433
L218.505869 273.653911L221.244945 271.628175L223.984022 269.598377
L226.723098 267.564760L229.462174 265.527641L232.201250 263.487215
L234.940326 261.443582L237.679402 259.396943L240.418478 257.347565
L243.157554 255.295598L245.896630 253.241115L248.635706 251.184298
L251.374782 249.125383L254.113859 247.064489L256.852935 245.001676
L259.592011 242.937116L262.331087 240.871024L265.070163 238.803496
L267.809239 236.734586L270.548315 234.664462L273.287391 232.593323
L276.026467 230.521249L278.765543 228.448290L281.504620 226.374616
L284.243696 224.300413L286.982772 222.225749L289.721848 220.150676
L292.460924 218.075368L295.200000 216.000000L297.939076 213.924632
L300.678152 211.849324L303.417228 209.774251L306.156304 207.699587
L308.895380 205.625384L311.634457 203.551710L314.373533 201.478751
L317.112609 199.406677L319.851685 197.335538L322.590761 195.265414
L325.329837 193.196504L328.068913 191.128976L330.807989 189.062884
L333.547065 186.998324L336.286141 184.935511L339.025218 182.874617
L341.764294 180.815702L344.503370 178.758885L347.242446 176.704402
L349.981522 174.652435L352.720598 172.603057L355.459674 170.556418
L358.198750 168.512785L360.937826 166.472359L363.676902 164.435240
L366.415978 162.401623L369.155055 160.371825L371.894131 158.346089
L374.633207 156.324567L377.372283 154.307540L380.111359 152.295426
L382.850435 150.288567L385.589511 148.287255L388.328587 146.291974
L391.067663 144.303395L393.806739 142.322176L396.545816 140.349041
L399.284892 138.385091L402.023968 136.431827L404.763044 134.491018
L407.502120 132.564951L410.241196 130.656940L412.980272 128.771561
L415.719348 126.914864L418.458424 125.095197L421.197500 123.324455
L423.936576 121.619285L426.675653 120.002718L429.414729 118.507064
L432.153805 117.177914L434.892881 116.078947L437.631957 115.298390
L440.371033 114.958058L443.110109 115.224345L445.849185 116.319802
L448.588261 118.533910L451.327337 122.228923L454.066414 127.831092
L456.805490 135.793730L459.544566 146.519057L462.283642 160.233269
L465.022718 176.832775L467.761794 195.760607"/>
</g>
<g id="line2d5">
<path style="fill: none; stroke: #bf00bf; stroke-width: 1.000000; stroke-linejoin: miter; stroke-linecap: square;  opacity: 1.000000" clip-path="url(#p50431ccdcb28178602d99d9270004dde)" d="M119.899130 216.000000L122.638206 229.585407L125.377282 242.539480
L128.116358 254.331949L130.855434 264.602140L133.594510 273.179211
L136.333586 280.059666L139.072663 285.360867L141.811739 289.270018
L144.550815 292.001353L147.289891 293.766422L150.028967 294.756980
L152.768043 295.137449L155.507119 295.043509L158.246195 294.584113
L160.985271 293.845071L163.724347 292.893032L166.463424 291.779227
L169.202500 290.542731L171.941576 289.213195L174.680652 287.813048
L177.419728 286.359203L180.158804 284.864385L182.897880 283.338170
L185.636956 281.787770L188.376032 280.218613L191.115108 278.634782
L193.854184 277.039359L196.593261 275.434686L199.332337 273.822540
L202.071413 272.204267L204.810489 270.580900L207.549565 268.953247
L210.288641 267.321927L213.027717 265.687424L215.766793 264.050122
L218.505869 262.410336L221.244945 260.768319L223.984022 259.124272
L226.723098 257.478370L229.462174 255.830768L232.201250 254.181593
L234.940326 252.530955L237.679402 250.878954L240.418478 249.225690
L243.157554 247.571245L245.896630 245.915694L248.635706 244.259112
L251.374782 242.601575L254.113859 240.943148L256.852935 239.283890
L259.592011 237.623868L262.331087 235.963144L265.070163 234.301776
L267.809239 232.639819L270.548315 230.977329L273.287391 229.314367
L276.026467 227.650986L278.765543 225.987235L281.504620 224.323170
L284.243696 222.658848L286.982772 220.994319L289.721848 219.329632
L292.460924 217.664840L295.200000 216.000000L297.939076 214.335160
L300.678152 212.670368L303.417228 211.005681L306.156304 209.341152
L308.895380 207.676830L311.634457 206.012765L314.373533 204.349014
L317.112609 202.685633L319.851685 201.022671L322.590761 199.360181
L325.329837 197.698224L328.068913 196.036856L330.807989 194.376132
L333.547065 192.716110L336.286141 191.056852L339.025218 189.398425
L341.764294 187.740888L344.503370 186.084306L347.242446 184.428755
L349.981522 182.774310L352.720598 181.121046L355.459674 179.469045
L358.198750 177.818407L360.937826 176.169232L363.676902 174.521630
L366.415978 172.875728L369.155055 171.231681L371.894131 169.589664
L374.633207 167.949878L377.372283 166.312576L380.111359 164.678073
L382.850435 163.046753L385.589511 161.419100L388.328587 159.795733
L391.067663 158.177460L393.806739 156.565314L396.545816 154.960641
L399.284892 153.365218L402.023968 151.781387L404.763044 150.212230
L407.502120 148.661830L410.241196 147.135615L412.980272 145.640797
L415.719348 144.186952L418.458424 142.786805L421.197500 141.457269
L423.936576 140.220773L426.675653 139.106968L429.414729 138.154929
L432.153805 137.415887L434.892881 136.956491L437.631957 136.862551
L440.371033 137.243020L443.110109 138.233578L445.849185 139.998647
L448.588261 142.729982L451.327337 146.639133L454.066414 151.940334
L456.805490 158.820789L459.544566 167.397860L462.283642 177.668051
L465.022718 189.460520L467.761794 202.414593"/>
</g>
<g id="line2d6">
<path style="fill: none; stroke: #bfbf00; stroke-width: 1.000000; stroke-linejoin: miter; stroke-linecap: square;  opacity: 1.000000" clip-path="url(#p50431ccdcb28178602d99d9270004dde)" d="M119.899130 216.000000L122.638206 225.507632L125.377282 234.688045
L128.116358 243.252329L130.855434 250.979042L133.594510 257.728618
L136.333586 263.442594L139.072663 268.131377L141.811739 271.856095
L144.550815 274.709599L147.289891 276.799989L150.028967 278.238185
L152.768043 279.129683L155.507119 279.569847L158.246195 279.641830
L160.985271 279.416249L163.724347 278.951901L166.463424 278.297023
L169.202500 277.490735L171.941576 276.564492L174.680652 275.543418
L177.419728 274.447477L180.158804 273.292473L182.897880 272.090879
L185.636956 270.852519L188.376032 269.585118L191.115108 268.294744
L193.854184 266.986159L196.593261 265.663102L199.332337 264.328508
L202.071413 262.984679L204.810489 261.633425L207.549565 260.276170
L210.288641 258.914036L213.027717 257.547907L215.766793 256.178482
L218.505869 254.806316L221.244945 253.431851L223.984022 252.055440
L226.723098 250.677365L229.462174 249.297857L232.201250 247.917101
L234.940326 246.535250L237.679402 245.152429L240.418478 243.768746
L243.157554 242.384289L245.896630 240.999135L248.635706 239.613350
L251.374782 238.226991L254.113859 236.840112L256.852935 235.452758
L259.592011 234.064972L262.331087 232.676794L265.070163 231.288261
L267.809239 229.899407L270.548315 228.510265L273.287391 227.120867
L276.026467 225.731244L278.765543 224.341425L281.504620 222.951439
L284.243696 221.561316L286.982772 220.171083L289.721848 218.780767
L292.460924 217.390397L295.200000 216.000000L297.939076 214.609603
L300.678152 213.219233L303.417228 211.828917L306.156304 210.438684
L308.895380 209.048561L311.634457 207.658575L314.373533 206.268756
L317.112609 204.879133L319.851685 203.489735L322.590761 202.100593
L325.329837 200.711739L328.068913 199.323206L330.807989 197.935028
L333.547065 196.547242L336.286141 195.159888L339.025218 193.773009
L341.764294 192.386650L344.503370 191.000865L347.242446 189.615711
L349.981522 188.231254L352.720598 186.847571L355.459674 185.464750
L358.198750 184.082899L360.937826 182.702143L363.676902 181.322635
L366.415978 179.944560L369.155055 178.568149L371.894131 177.193684
L374.633207 175.821518L377.372283 174.452093L380.111359 173.085964
L382.850435 171.723830L385.589511 170.366575L388.328587 169.015321
L391.067663 167.671492L393.806739 166.336898L396.545816 165.013841
L399.284892 163.705256L402.023968 162.414882L404.763044 161.147481
L407.502120 159.909121L410.241196 158.707527L412.980272 157.552523
L415.719348 156.456582L418.458424 155.435508L421.197500 154.509265
L423.936576 153.702977L426.675653 153.048099L429.414729 152.583751
L432.153805 152.358170L434.892881 152.430153L437.631957 152.870317
L440.371033 153.761815L443.110109 155.200011L445.849185 157.290401
L448.588261 160.143905L451.327337 163.868623L454.066414 168.557406
L456.805490 174.271382L459.544566 181.020958L462.283642 188.747671
L465.022718 197.311955L467.761794 206.492368"/>
</g>
<g id="line2d7">
<path style="fill: none; stroke: #000000; stroke-width: 1.000000; stroke-linejoin: miter; stroke-linecap: square;  opacity: 1.000000" clip-path="url(#p50431ccdcb28178602d99d9270004dde)" d="M119.899130 216.000000L122.638206 222.936689L125.377282 229.689681
L128.116358 236.091560L130.855434 242.004490L133.594510 247.328476
L136.333586 252.003888L139.072663 256.008932L141.811739 259.353588
L144.550815 262.071816L147.289891 264.213569L150.028967 265.837677
L152.768043 267.006154L155.507119 267.780050L158.246195 268.216729
L160.985271 268.368298L163.724347 268.280904L166.463424 267.994632
L169.202500 267.543777L171.941576 266.957337L174.680652 266.259605
L177.419728 265.470776L180.158804 264.607547L182.897880 263.683654
L185.636956 262.710354L188.376032 261.696849L191.115108 260.650643
L193.854184 259.577841L196.593261 258.483405L199.332337 257.371366
L202.071413 256.244992L204.810489 255.106934L207.549565 253.959339
L210.288641 252.803950L213.027717 251.642178L215.766793 250.475169
L218.505869 249.303850L221.244945 248.128976L223.984022 246.951159
L226.723098 245.770897L229.462174 244.588598L232.201250 243.404591
L234.940326 242.219149L237.679402 241.032493L240.418478 239.844807
L243.157554 238.656241L245.896630 237.466920L248.635706 236.276948
L251.374782 235.086413L254.113859 233.895389L256.852935 232.703938
L259.592011 231.512114L262.331087 230.319962L265.070163 229.127524
L267.809239 227.934835L270.548315 226.741928L273.287391 225.548829
L276.026467 224.355567L278.765543 223.162164L281.504620 221.968645
L284.243696 220.775029L286.982772 219.581337L289.721848 218.387589
L292.460924 217.193804L295.200000 216.000000L297.939076 214.806196
L300.678152 213.612411L303.417228 212.418663L306.156304 211.224971
L308.895380 210.031355L311.634457 208.837836L314.373533 207.644433
L317.112609 206.451171L319.851685 205.258072L322.590761 204.065165
L325.329837 202.872476L328.068913 201.680038L330.807989 200.487886
L333.547065 199.296062L336.286141 198.104611L339.025218 196.913587
L341.764294 195.723052L344.503370 194.533080L347.242446 193.343759
L349.981522 192.155193L352.720598 190.967507L355.459674 189.780851
L358.198750 188.595409L360.937826 187.411402L363.676902 186.229103
L366.415978 185.048841L369.155055 183.871024L371.894131 182.696150
L374.633207 181.524831L377.372283 180.357822L380.111359 179.196050
L382.850435 178.040661L385.589511 176.893066L388.328587 175.755008
L391.067663 174.628634L393.806739 173.516595L396.545816 172.422159
L399.284892 171.349357L402.023968 170.303151L404.763044 169.289646
L407.502120 168.316346L410.241196 167.392453L412.980272 166.529224
L415.719348 165.740395L418.458424 165.042663L421.197500 164.456223
L423.936576 164.005368L426.675653 163.719096L429.414729 163.631702
L432.153805 163.783271L434.892881 164.219950L437.631957 164.993846
L440.371033 166.162323L443.110109 167.786431L445.849185 169.928184
L448.588261 172.646412L451.327337 175.991068L454.066414 179.996112
L456.805490 184.671524L459.544566 189.995510L462.283642 195.908440
L465.022718 202.310319L467.761794 209.063311"/>
</g>
<g id="line2d8">
<path style="fill: none; stroke: #0000ff; stroke-width: 1.000000; stroke-linejoin: miter; stroke-linecap: square;  opacity: 1.000000" clip-path="url(#p50431ccdcb28178602d99d9270004dde)" d="M119.899130 216.000000L122.638206 221.237553L125.377282 226.364788
L128.116358 231.279016L130.855434 235.891707L133.594510 240.133100
L136.333586 243.954475L139.072663 247.328167L141.811739 250.245710
L144.550815 252.714766L147.289891 254.755451L150.028967 256.396619
L152.768043 257.672481L155.507119 258.619779L158.246195 259.275604
L160.985271 259.675811L163.724347 259.853986L166.463424 259.840837
L169.202500 259.663916L171.941576 259.347580L174.680652 258.913103
L177.419728 258.378892L180.158804 257.760743L182.897880 257.072133
L185.636956 256.324494L188.376032 255.527486L191.115108 254.689242
L193.854184 253.816591L196.593261 252.915251L199.332337 251.990003
L202.071413 251.044840L204.810489 250.083089L207.549565 249.107520
L210.288641 248.120442L213.027717 247.123773L215.766793 246.119107
L218.505869 245.107771L221.244945 244.090868L223.984022 243.069313
L226.723098 242.043867L229.462174 241.015165L232.201250 239.983731
L234.940326 238.950006L237.679402 237.914353L240.418478 236.877077
L243.157554 235.838432L245.896630 234.798629L248.635706 233.757847
L251.374782 232.716234L254.113859 231.673915L256.852935 230.630995
L259.592011 229.587564L262.331087 228.543696L265.070163 227.499457
L267.809239 226.454900L270.548315 225.410075L273.287391 224.365021
L276.026467 223.319775L278.765543 222.274369L281.504620 221.228831
L284.243696 220.183187L286.982772 219.137460L289.721848 218.091673
L292.460924 217.045846L295.200000 216.000000L297.939076 214.954154
L300.678152 213.908327L303.417228 212.862540L306.156304 211.816813
L308.895380 210.771169L311.634457 209.725631L314.373533 208.680225
L317.112609 207.634979L319.851685 206.589925L322.590761 205.545100
L325.329837 204.500543L328.068913 203.456304L330.807989 202.412436
L333.547065 201.369005L336.286141 200.326085L339.025218 199.283766
L341.764294 198.242153L344.503370 197.201371L347.242446 196.161568
L349.981522 195.122923L352.720598 194.085647L355.459674 193.049994
L358.198750 192.016269L360.937826 190.984835L363.676902 189.956133
L366.415978 188.930687L369.155055 187.909132L371.894131 186.892229
L374.633207 185.880893L377.372283 184.876227L380.111359 183.879558
L382.850435 182.892480L385.589511 181.916911L388.328587 180.955160
L391.067663 180.009997L393.806739 179.084749L396.545816 178.183409
L399.284892 177.310758L402.023968 176.472514L404.763044 175.675506
L407.502120 174.927867L410.241196 174.239257L412.980272 173.621108
L415.719348 173.086897L418.458424 172.652420L421.197500 172.336084
L423.936576 172.159163L426.675653 172.146014L429.414729 172.324189
L432.153805 172.724396L434.892881 173.380221L437.631957 174.327519
L440.371033 175.603381L443.110109 177.244549L445.849185 179.285234
L448.588261 181.754290L451.327337 184.671833L454.066414 188.045525
L456.805490 191.866900L459.544566 196.108293L462.283642 200.720984
L465.022718 205.635212L467.761794 210.762447"/>
</g>
<g id="line2d9">
<path style="fill: none; stroke: #008000; stroke-width: 1.000000; stroke-linejoin: miter; stroke-linecap: square;  opacity: 1.000000" clip-path="url(#p50431ccdcb28178602d99d9270004dde)" d="M119.899130 216.000000L122.638206 220.065209L125.377282 224.060420
L128.116358 227.919506L130.855434 231.583645L133.594510 235.003932
L136.333586 238.142983L139.072663 240.975469L141.811739 243.487699
L144.550815 245.676459L147.289891 247.547372L150.028967 249.113029
L152.768043 250.391107L155.507119 251.402638L158.246195 252.170509
L160.985271 252.718247L163.724347 253.069093L166.463424 253.245328
L169.202500 253.267835L171.941576 253.155830L174.680652 252.926741
L177.419728 252.596191L180.158804 252.178047L182.897880 251.684522
L185.636956 251.126298L188.376032 250.512667L191.115108 249.851678
L193.854184 249.150272L196.593261 248.414418L199.332337 247.649235
L202.071413 246.859103L204.810489 246.047762L207.549565 245.218400
L210.288641 244.373734L213.027717 243.516073L215.766793 242.647382
L218.505869 241.769328L221.244945 240.883326L223.984022 239.990576
L226.723098 239.092099L229.462174 238.188756L232.201250 237.281281
L234.940326 236.370295L237.679402 235.456324L240.418478 234.539815
L243.157554 233.621146L245.896630 232.700640L248.635706 231.778569
L251.374782 230.855165L254.113859 229.930626L256.852935 229.005121
L259.592011 228.078791L262.331087 227.151761L265.070163 226.224135
L267.809239 225.296003L270.548315 224.367442L273.287391 223.438521
L276.026467 222.509299L278.765543 221.579825L281.504620 220.650147
L284.243696 219.720305L286.982772 218.790336L289.721848 217.860275
L292.460924 216.930152L295.200000 216.000000L297.939076 215.069848
L300.678152 214.139725L303.417228 213.209664L306.156304 212.279695
L308.895380 211.349853L311.634457 210.420175L314.373533 209.490701
L317.112609 208.561479L319.851685 207.632558L322.590761 206.703997
L325.329837 205.775865L328.068913 204.848239L330.807989 203.921209
L333.547065 202.994879L336.286141 202.069374L339.025218 201.144835
L341.764294 200.221431L344.503370 199.299360L347.242446 198.378854
L349.981522 197.460185L352.720598 196.543676L355.459674 195.629705
L358.198750 194.718719L360.937826 193.811244L363.676902 192.907901
L366.415978 192.009424L369.155055 191.116674L371.894131 190.230672
L374.633207 189.352618L377.372283 188.483927L380.111359 187.626266
L382.850435 186.781600L385.589511 185.952238L388.328587 185.140897
L391.067663 184.350765L393.806739 183.585582L396.545816 182.849728
L399.284892 182.148322L402.023968 181.487333L404.763044 180.873702
L407.502120 180.315478L410.241196 179.821953L412.980272 179.403809
L415.719348 179.073259L418.458424 178.844170L421.197500 178.732165
L423.936576 178.754672L426.675653 178.930907L429.414729 179.281753
L432.153805 179.829491L434.892881 180.597362L437.631957 181.608893
L440.371033 182.886971L443.110109 184.452628L445.849185 186.323541
L448.588261 188.512301L451.327337 191.024531L454.066414 193.857017
L456.805490 196.996068L459.544566 200.416355L462.283642 204.080494
L465.022718 207.939580L467.761794 211.934791"/>
</g>
<g id="line2d10">
<path style="fill: none; stroke: #ff0000; stroke-width: 1.000000; stroke-linejoin: miter; stroke-linecap: square;  opacity: 1.000000" clip-path="url(#p50431ccdcb28178602d99d9270004dde)" d="M119.899130 216.000000L122.638206 219.226427L125.377282 222.406393
L128.116358 225.495537L130.855434 228.453507L133.594510 231.245490
L136.333586 233.843276L139.072663 236.225794L141.811739 238.379148
L144.550815 240.296228L147.289891 241.975995L150.028967 243.422561
L152.768043 244.644179L155.507119 245.652222L158.246195 246.460231
L160.985271 247.083082L163.724347 247.536275L166.463424 247.835373
L169.202500 247.995574L171.941576 248.031395L174.680652 247.956468
L177.419728 247.783414L180.158804 247.523782L182.897880 247.188041
L185.636956 246.785603L188.376032 246.324876L191.115108 245.813323
L193.854184 245.257542L196.593261 244.663339L199.332337 244.035806
L202.071413 243.379396L204.810489 242.697993L207.549565 241.994978
L210.288641 241.273289L213.027717 240.535473L215.766793 239.783738
L218.505869 239.019994L221.244945 238.245893L223.984022 237.462862
L226.723098 236.672133L229.462174 235.874768L232.201250 235.071684
L234.940326 234.263673L237.679402 233.451416L240.418478 232.635500
L243.157554 231.816432L245.896630 230.994648L248.635706 230.170526
L251.374782 229.344391L254.113859 228.516522L256.852935 227.687162
L259.592011 226.856521L262.331087 226.024781L265.070163 225.192098
L267.809239 224.358610L270.548315 223.524436L273.287391 222.689682
L276.026467 221.854438L278.765543 221.018787L281.504620 220.182803
L284.243696 219.346550L286.982772 218.510089L289.721848 217.673476
L292.460924 216.836762L295.200000 216.000000L297.939076 215.163238
L300.678152 214.326524L303.417228 213.489911L306.156304 212.653450
L308.895380 211.817197L311.634457 210.981213L314.373533 210.145562
L317.112609 209.310318L319.851685 208.475564L322.590761 207.641390
L325.329837 206.807902L328.068913 205.975219L330.807989 205.143479
L333.547065 204.312838L336.286141 203.483478L339.025218 202.655609
L341.764294 201.829474L344.503370 201.005352L347.242446 200.183568
L349.981522 199.364500L352.720598 198.548584L355.459674 197.736327
L358.198750 196.928316L360.937826 196.125232L363.676902 195.327867
L366.415978 194.537138L369.155055 193.754107L371.894131 192.980006
L374.633207 192.216262L377.372283 191.464527L380.111359 190.726711
L382.850435 190.005022L385.589511 189.302007L388.328587 188.620604
L391.067663 187.964194L393.806739 187.336661L396.545816 186.742458
L399.284892 186.186677L402.023968 185.675124L404.763044 185.214397
L407.502120 184.811959L410.241196 184.476218L412.980272 184.216586
L415.719348 184.043532L418.458424 183.968605L421.197500 184.004426
L423.936576 184.164627L426.675653 184.463725L429.414729 184.916918
L432.153805 185.539769L434.892881 186.347778L437.631957 187.355821
L440.371033 188.577439L443.110109 190.024005L445.849185 191.703772
L448.588261 193.620852L451.327337 195.774206L454.066414 198.156724
L456.805490 200.754510L459.544566 203.546493L462.283642 206.504463
L465.022718 209.593607L467.761794 212.773573"/>
</g>
<g id="line2d11">
<path style="fill: none; stroke: #00bfbf; stroke-width: 1.000000; stroke-linejoin: miter; stroke-linecap: square;  opacity: 1.000000" clip-path="url(#p50431ccdcb28178602d99d9270004dde)" d="M119.899130 216.000000L122.638206 218.607858L125.377282 221.183707
L128.116358 223.696741L130.855434 226.118473L133.594510 228.423659
L136.333586 230.591003L139.072663 232.603576L141.811739 234.448973
L144.550815 236.119230L147.289891 237.610523L150.028967 238.922732
L152.768043 240.058896L155.507119 241.024636L158.246195 241.827569
L160.985271 242.476764L163.724347 242.982244L166.463424 243.354562
L169.202500 243.604452L171.941576 243.742541L174.680652 243.779143
L177.419728 243.724098L180.158804 243.586669L182.897880 243.375480
L185.636956 243.098482L188.376032 242.762947L191.115108 242.375482
L193.854184 241.942057L196.593261 241.468037L199.332337 240.958224
L202.071413 240.416900L204.810489 239.847874L207.549565 239.254519
L210.288641 238.639823L213.027717 238.006420L215.766793 237.356632
L218.505869 236.692504L221.244945 236.015831L223.984022 235.328190
L226.723098 234.630962L229.462174 233.925359L232.201250 233.212442
L234.940326 232.493140L237.679402 231.768265L240.418478 231.038527
L243.157554 230.304549L245.896630 229.566874L248.635706 228.825976
L251.374782 228.082273L254.113859 227.336129L256.852935 226.587861
L259.592011 225.837750L262.331087 225.086042L265.070163 224.332952
L267.809239 223.578671L270.548315 222.823368L273.287391 222.067191
L276.026467 221.310274L278.765543 220.552737L281.504620 219.794688
L284.243696 219.036227L286.982772 218.277444L289.721848 217.518425
L292.460924 216.759251L295.200000 216.000000L297.939076 215.240749
L300.678152 214.481575L303.417228 213.722556L306.156304 212.963773
L308.895380 212.205312L311.634457 211.447263L314.373533 210.689726
L317.112609 209.932809L319.851685 209.176632L322.590761 208.421329
L325.329837 207.667048L328.068913 206.913958L330.807989 206.162250
L333.547065 205.412139L336.286141 204.663871L339.025218 203.917727
L341.764294 203.174024L344.503370 202.433126L347.242446 201.695451
L349.981522 200.961473L352.720598 200.231735L355.459674 199.506860
L358.198750 198.787558L360.937826 198.074641L363.676902 197.369038
L366.415978 196.671810L369.155055 195.984169L371.894131 195.307496
L374.633207 194.643368L377.372283 193.993580L380.111359 193.360177
L382.850435 192.745481L385.589511 192.152126L388.328587 191.583100
L391.067663 191.041776L393.806739 190.531963L396.545816 190.057943
L399.284892 189.624518L402.023968 189.237053L404.763044 188.901518
L407.502120 188.624520L410.241196 188.413331L412.980272 188.275902
L415.719348 188.220857L418.458424 188.257459L421.197500 188.395548
L423.936576 188.645438L426.675653 189.017756L429.414729 189.523236
L432.153805 190.172431L434.892881 190.975364L437.631957 191.941104
L440.371033 193.077268L443.110109 194.389477L445.849185 195.880770
L448.588261 197.551027L451.327337 199.396424L454.066414 201.408997
L456.805490 203.576341L459.544566 205.881527L462.283642 208.303259
L465.022718 210.816293L467.761794 213.392142"/>
</g>
<g id="matplotlib.axis1">
<g id="xtick1">
<g id="line2d12">
<defs><path id="m30e32995789d870ad79a2e54c91cf9c6" d="M0.000000 0.000000L0.000000 -4.000000"/></defs>
<g ><use style="fill: none; stroke: #000000; stroke-width: 0.500000; stroke-linejoin: miter; stroke-linecap: butt;  opacity: 1.000000" xlink:href="#m30e32995789d870ad79a2e54c91cf9c6" x="72.000000" y="388.800000"/>
</g></g>
<g id="line2d13">
<defs><path id="m9281cae24120827b11d5ea8a7ad3e96b" d="M0.000000 0.000000L0.000000 4.000000"/></defs>
<g ><use style="fill: none; stroke: #000000; stroke-width: 0.500000; stroke-linejoin: miter; stroke-linecap: butt;  opacity: 1.000000" xlink:href="#m9281cae24120827b11d5ea8a7ad3e96b" x="72.000000" y="43.200000"/>
</g></g>
<defs>
<path id="c_6a8d56c819c37117ab4cf023bec22a5a" d="M10.593750 -35.500000l62.593750 0.000000l0.000000 8.296875l-62.593750 0.000000z"/>
<path id="c_a0416418d96557a09b8c1332d34883ba" d="M37.796875 -64.312500l-24.906250 38.921875l24.906250 0.000000zM35.203125 -72.906250l12.406250 0.000000l0.000000 47.515625l10.406250 0.000000l0.000000 8.203125l-10.406250 0.000000l0.000000 17.187500l-9.812500 0.000000l0.000000 -17.187500l-32.906250 0.000000l0.000000 -9.515625z"/>
</defs>
<g style="fill: #000000; opacity: 1.000000" transform="translate(64.117188,401.550000)scale(0.120000)">
<use xlink:href="#c_6a8d56c819c37117ab4cf023bec22a5a"/>
<use xlink:href="#c_a0416418d96557a09b8c1332d34883ba" x="83.789062"/>
</g>
</g>
<g id="xtick2">
<g id="line2d14">
<g ><use style="fill: none; stroke: #000000; stroke-width: 0.500000; stroke-linejoin: miter; stroke-linecap: butt;  opacity: 1.000000" xlink:href="#m30e32995789d870ad79a2e54c91cf9c6" x="127.800000" y="388.800000"/>
</g></g>
<g id="line2d15">
<g ><use style="fill: none; stroke: #000000; stroke-width: 0.500000; stroke-linejoin: miter; stroke-linecap: butt;  opacity: 1.000000" xlink:href="#m9281cae24120827b11d5ea8a7ad3e96b" x="127.800000" y="43.200000"/>
</g></g>
<defs>
<path id="c_3dcfa38a02242cb63ec6726c6e70be7a" d="M40.578125 -39.312500q7.078125 1.515625 11.046875 6.312500q3.984375 4.781250 3.984375 11.812500q0.000000 10.781250 -7.421875 16.703125q-7.421875 5.906250 -21.093750 5.906250q-4.578125 0.000000 -9.437500 -0.906250q-4.859375 -0.906250 -10.031250 -2.718750l0.000000 -9.515625q4.093750 2.390625 8.968750 3.609375q4.890625 1.218750 10.218750 1.218750q9.265625 0.000000 14.125000 -3.656250q4.859375 -3.656250 4.859375 -10.640625q0.000000 -6.453125 -4.515625 -10.078125q-4.515625 -3.640625 -12.562500 -3.640625l-8.500000 0.000000l0.000000 -8.109375l8.890625 0.000000q7.265625 0.000000 11.125000 -2.906250q3.859375 -2.906250 3.859375 -8.375000q0.000000 -5.609375 -3.984375 -8.609375q-3.968750 -3.015625 -11.390625 -3.015625q-4.062500 0.000000 -8.703125 0.890625q-4.640625 0.875000 -10.203125 2.718750l0.000000 -8.781250q5.625000 -1.562500 10.531250 -2.343750q4.906250 -0.781250 9.250000 -0.781250q11.234375 0.000000 17.765625 5.109375q6.546875 5.093750 6.546875 13.781250q0.000000 6.062500 -3.468750 10.234375q-3.468750 4.171875 -9.859375 5.781250"/>
</defs>
<g style="fill: #000000; opacity: 1.000000" transform="translate(120.065625,401.706250)scale(0.120000)">
<use xlink:href="#c_6a8d56c819c37117ab4cf023bec22a5a"/>
<use xlink:href="#c_3dcfa38a02242cb63ec6726c6e70be7a" x="83.789062"/>
</g>
</g>
<g id="xtick3">
<g id="line2d16">
<g ><use style="fill: none; stroke: #000000; stroke-width: 0.500000; stroke-linejoin: miter; stroke-linecap: butt;  opacity: 1.000000" xlink:href="#m30e32995789d870ad79a2e54c91cf9c6" x="183.600000" y="388.800000"/>
</g></g>
<g id="line2d17">
<g ><use style="fill: none; stroke: #000000; stroke-width: 0.500000; stroke-linejoin: miter; stroke-linecap: butt;  opacity: 1.000000" xlink:href="#m9281cae24120827b11d5ea8a7ad3e96b" x="183.600000" y="43.200000"/>
</g></g>
<defs>
<path id="c_ed3f3ed3ebfbd18bcb9c012009a68ad1" d="M19.187500 -8.296875l34.421875 0.000000l0.000000 8.296875l-46.281250 0.000000l0.000000 -8.296875q5.609375 -5.812500 15.296875 -15.593750q9.703125 -9.796875 12.187500 -12.640625q4.734375 -5.312500 6.609375 -9.000000q1.890625 -3.687500 1.890625 -7.250000q0.000000 -5.812500 -4.078125 -9.468750q-4.078125 -3.671875 -10.625000 -3.671875q-4.640625 0.000000 -9.796875 1.609375q-5.140625 1.609375 -11.000000 4.890625l0.000000 -9.968750q5.953125 -2.390625 11.125000 -3.609375q5.187500 -1.218750 9.484375 -1.218750q11.328125 0.000000 18.062500 5.671875q6.734375 5.656250 6.734375 15.125000q0.000000 4.500000 -1.687500 8.531250q-1.671875 4.015625 -6.125000 9.484375q-1.218750 1.421875 -7.765625 8.187500q-6.531250 6.765625 -18.453125 18.921875"/>
</defs>
<g style="fill: #000000; opacity: 1.000000" transform="translate(175.982812,401.706250)scale(0.120000)">
<use xlink:href="#c_6a8d56c819c37117ab4cf023bec22a5a"/>
<use xlink:href="#c_ed3f3ed3ebfbd18bcb9c012009a68ad1" x="83.789062"/>
</g>
</g>
<g id="xtick4">
<g id="line2d18">
<g ><use style="fill: none; stroke: #000000; stroke-width: 0.500000; stroke-linejoin: miter; stroke-linecap: butt;  opacity: 1.000000" xlink:href="#m30e32995789d870ad79a2e54c91cf9c6" x="239.400000" y="388.800000"/>
</g></g>
<g id="line2d19">
<g ><use style="fill: none; stroke: #000000; stroke-width: 0.500000; stroke-linejoin: miter; stroke-linecap: butt;  opacity: 1.000000" xlink:href="#m9281cae24120827b11d5ea8a7ad3e96b" x="239.400000" y="43.200000"/>
</g></g>
<defs>
<path id="c_42baa63129a918535c52adb20d687ea7" d="M12.406250 -8.296875l16.109375 0.000000l0.000000 -55.625000l-17.531250 3.515625l0.000000 -8.984375l17.437500 -3.515625l9.859375 0.000000l0.000000 64.609375l16.109375 0.000000l0.000000 8.296875l-41.984375 0.000000z"/>
</defs>
<g style="fill: #000000; opacity: 1.000000" transform="translate(231.735937,401.550000)scale(0.120000)">
<use xlink:href="#c_6a8d56c819c37117ab4cf023bec22a5a"/>
<use xlink:href="#c_42baa63129a918535c52adb20d687ea7" x="83.789062"/>
</g>
</g>
<g id="xtick5">
<g id="line2d20">
<g ><use style="fill: none; stroke: #000000; stroke-width: 0.500000; stroke-linejoin: miter; stroke-linecap: butt;  opacity: 1.000000" xlink:href="#m30e32995789d870ad79a2e54c91cf9c6" x="295.200000" y="388.800000"/>
</g></g>
<g id="line2d21">
<g ><use style="fill: none; stroke: #000000; stroke-width: 0.500000; stroke-linejoin: miter; stroke-linecap: butt;  opacity: 1.000000" xlink:href="#m9281cae24120827b11d5ea8a7ad3e96b" x="295.200000" y="43.200000"/>
</g></g>
<defs>
<path id="c_7a2040fe3b94fcd41d0a72c84e93b115" d="M31.781250 -66.406250q-7.609375 0.000000 -11.453125 7.500000q-3.828125 7.484375 -3.828125 22.531250q0.000000 14.984375 3.828125 22.484375q3.843750 7.500000 11.453125 7.500000q7.671875 0.000000 11.500000 -7.500000q3.843750 -7.500000 3.843750 -22.484375q0.000000 -15.046875 -3.843750 -22.531250q-3.828125 -7.500000 -11.500000 -7.500000M31.781250 -74.218750q12.265625 0.000000 18.734375 9.703125q6.468750 9.687500 6.468750 28.140625q0.000000 18.406250 -6.468750 28.109375q-6.468750 9.687500 -18.734375 9.687500q-12.250000 0.000000 -18.718750 -9.687500q-6.468750 -9.703125 -6.468750 -28.109375q0.000000 -18.453125 6.468750 -28.140625q6.468750 -9.703125 18.718750 -9.703125"/>
</defs>
<g style="fill: #000000; opacity: 1.000000" transform="translate(292.176562,401.706250)scale(0.120000)">
<use xlink:href="#c_7a2040fe3b94fcd41d0a72c84e93b115"/>
</g>
</g>
<g id="xtick6">
<g id="line2d22">
<g ><use style="fill: none; stroke: #000000; stroke-width: 0.500000; stroke-linejoin: miter; stroke-linecap: butt;  opacity: 1.000000" xlink:href="#m30e32995789d870ad79a2e54c91cf9c6" x="351.000000" y="388.800000"/>
</g></g>
<g id="line2d23">
<g ><use style="fill: none; stroke: #000000; stroke-width: 0.500000; stroke-linejoin: miter; stroke-linecap: butt;  opacity: 1.000000" xlink:href="#m9281cae24120827b11d5ea8a7ad3e96b" x="351.000000" y="43.200000"/>
</g></g>
<g style="fill: #000000; opacity: 1.000000" transform="translate(348.390625,401.550000)scale(0.120000)">
<use xlink:href="#c_42baa63129a918535c52adb20d687ea7"/>
</g>
</g>
<g id="xtick7">
<g id="line2d24">
<g ><use style="fill: none; stroke: #000000; stroke-width: 0.500000; stroke-linejoin: miter; stroke-linecap: butt;  opacity: 1.000000" xlink:href="#m30e32995789d870ad79a2e54c91cf9c6" x="406.800000" y="388.800000"/>
</g></g>
<g id="line2d25">
<g ><use style="fill: none; stroke: #000000; stroke-width: 0.500000; stroke-linejoin: miter; stroke-linecap: butt;  opacity: 1.000000" xlink:href="#m9281cae24120827b11d5ea8a7ad3e96b" x="406.800000" y="43.200000"/>
</g></g>
<g style="fill: #000000; opacity: 1.000000" transform="translate(404.018750,401.706250)scale(0.120000)">
<use xlink:href="#c_ed3f3ed3ebfbd18bcb9c012009a68ad1"/>
</g>
</g>
<g id="xtick8">
<g id="line2d26">
<g ><use style="fill: none; stroke: #000000; stroke-width: 0.500000; stroke-linejoin: miter; stroke-linecap: butt;  opacity: 1.000000" xlink:href="#m30e32995789d870ad79a2e54c91cf9c6" x="462.600000" y="388.800000"/>
</g></g>
<g id="line2d27">
<g ><use style="fill: none; stroke: #000000; stroke-width: 0.500000; stroke-linejoin: miter; stroke-linecap: butt;  opacity: 1.000000" xlink:href="#m9281cae24120827b11d5ea8a7ad3e96b" x="462.600000" y="43.200000"/>
</g></g>
<g style="fill: #000000; opacity: 1.000000" transform="translate(459.725000,401.706250)scale(0.120000)">
<use xlink:href="#c_3dcfa38a02242cb63ec6726c6e70be7a"/>
</g>
</g>
<g id="xtick9">
<g id="line2d28">
<g ><use style="fill: none; stroke: #000000; stroke-width: 0.500000; stroke-linejoin: miter; stroke-linecap: butt;  opacity: 1.000000" xlink:href="#m30e32995789d870ad79a2e54c91cf9c6" x="518.400000" y="388.800000"/>
</g></g>
<g id="line2d29">
<g ><use style="fill: none; stroke: #000000; stroke-width: 0.500000; stroke-linejoin: miter; stroke-linecap: butt;  opacity: 1.000000" xlink:href="#m9281cae24120827b11d5ea8a7ad3e96b" x="518.400000" y="43.200000"/>
</g></g>
<g style="fill: #000000; opacity: 1.000000" transform="translate(515.212500,401.550000)scale(0.120000)">
<use xlink:href="#c_a0416418d96557a09b8c1332d34883ba"/>
</g>
</g>
<defs>
<path id="c_277960698c3e9ebfcde4d2161536ce57" d="M7.812500 -2.875000q1.765625 1.359375 4.984375 1.359375q3.125000 0.000000 5.515625 -3.000000q2.390625 -3.000000 3.265625 -6.562500l4.546875 -17.734375q1.078125 -4.828125 1.078125 -6.593750q0.000000 -2.484375 -1.390625 -4.343750q-1.390625 -1.859375 -3.890625 -1.859375q-3.171875 0.000000 -5.953125 1.984375q-2.781250 1.984375 -4.687500 5.031250q-1.906250 3.046875 -2.687500 6.171875q-0.187500 0.640625 -0.781250 0.640625l-1.218750 0.000000q-0.781250 0.000000 -0.781250 -0.937500l0.000000 -0.281250q0.968750 -3.718750 3.312500 -7.250000q2.343750 -3.546875 5.734375 -5.734375q3.406250 -2.203125 7.265625 -2.203125q3.656250 0.000000 6.609375 1.953125q2.953125 1.953125 4.171875 5.312500q1.718750 -3.062500 4.375000 -5.156250q2.656250 -2.109375 5.828125 -2.109375q2.156250 0.000000 4.390625 0.765625q2.250000 0.750000 3.671875 2.312500q1.421875 1.562500 1.421875 3.906250q0.000000 2.531250 -1.640625 4.375000q-1.640625 1.828125 -4.171875 1.828125q-1.609375 0.000000 -2.687500 -1.031250q-1.078125 -1.031250 -1.078125 -2.593750q0.000000 -2.093750 1.437500 -3.671875q1.453125 -1.593750 3.453125 -1.890625q-1.812500 -1.421875 -4.984375 -1.421875q-3.218750 0.000000 -5.593750 2.984375q-2.359375 2.984375 -3.343750 6.640625l-4.390625 17.671875q-1.078125 4.015625 -1.078125 6.593750q0.000000 2.546875 1.437500 4.375000q1.437500 1.828125 3.843750 1.828125q4.687500 0.000000 8.359375 -4.125000q3.687500 -4.125000 4.859375 -9.062500q0.203125 -0.578125 0.781250 -0.578125l1.234375 0.000000q0.390625 0.000000 0.625000 0.265625q0.250000 0.265625 0.250000 0.609375q0.000000 0.093750 -0.093750 0.296875q-1.421875 5.953125 -5.968750 10.593750q-4.531250 4.640625 -10.250000 4.640625q-3.656250 0.000000 -6.609375 -1.968750q-2.953125 -1.984375 -4.187500 -5.359375q-1.562500 2.937500 -4.328125 5.140625q-2.750000 2.187500 -5.875000 2.187500q-2.140625 0.000000 -4.421875 -0.765625q-2.265625 -0.750000 -3.687500 -2.312500q-1.406250 -1.562500 -1.406250 -3.953125q0.000000 -2.343750 1.625000 -4.265625q1.640625 -1.937500 4.093750 -1.937500q1.656250 0.000000 2.781250 1.000000q1.125000 1.000000 1.125000 2.609375q0.000000 2.109375 -1.406250 3.671875q-1.390625 1.562500 -3.484375 1.953125"/>
</defs>
<g id="mathtext1">
<g style="fill: #000000" transform="translate(290.200000,415.878125)">
<use xlink:href="#c_277960698c3e9ebfcde4d2161536ce57" transform="translate(0.000000,-1.921875)scale(0.160000)"/>
</g>
</g>
</g>
<g id="matplotlib.axis2">
<g id="ytick1">
<g id="line2d30">
<defs><path id="m3400efa6b1638b3fea9e19e898273957" d="M0.000000 0.000000L4.000000 0.000000"/></defs>
<g ><use style="fill: none; stroke: #000000; stroke-width: 0.500000; stroke-linejoin: miter; stroke-linecap: butt;  opacity: 1.000000" xlink:href="#m3400efa6b1638b3fea9e19e898273957" x="72.000000" y="388.800000"/>
</g></g>
<g id="line2d31">
<defs><path id="m20b58b2501143cb5e0a5e8f1ef6f1643" d="M0.000000 0.000000L-4.000000 0.000000"/></defs>
<g ><use style="fill: none; stroke: #000000; stroke-width: 0.500000; stroke-linejoin: miter; stroke-linecap: butt;  opacity: 1.000000" xlink:href="#m20b58b2501143cb5e0a5e8f1ef6f1643" x="518.400000" y="388.800000"/>
</g></g>
<g style="fill: #000000; opacity: 1.000000" transform="translate(44.718750,393.167188)scale(0.120000)">
<use xlink:href="#c_6a8d56c819c37117ab4cf023bec22a5a"/>
<use xlink:href="#c_42baa63129a918535c52adb20d687ea7" x="83.789062"/>
<use xlink:href="#c_7a2040fe3b94fcd41d0a72c84e93b115" x="147.412109"/>
</g>
</g>
<g id="ytick2">
<g id="line2d32">
<g ><use style="fill: none; stroke: #000000; stroke-width: 0.500000; stroke-linejoin: miter; stroke-linecap: butt;  opacity: 1.000000" xlink:href="#m3400efa6b1638b3fea9e19e898273957" x="72.000000" y="302.400000"/>
</g></g>
<g id="line2d33">
<g ><use style="fill: none; stroke: #000000; stroke-width: 0.500000; stroke-linejoin: miter; stroke-linecap: butt;  opacity: 1.000000" xlink:href="#m20b58b2501143cb5e0a5e8f1ef6f1643" x="518.400000" y="302.400000"/>
</g></g>
<defs>
<path id="c_1260a2df50f305f3db244e29828f968e" d="M10.796875 -72.906250l38.718750 0.000000l0.000000 8.312500l-29.687500 0.000000l0.000000 17.859375q2.140625 -0.734375 4.281250 -1.093750q2.156250 -0.359375 4.312500 -0.359375q12.203125 0.000000 19.328125 6.687500q7.140625 6.687500 7.140625 18.109375q0.000000 11.765625 -7.328125 18.296875q-7.328125 6.515625 -20.656250 6.515625q-4.593750 0.000000 -9.359375 -0.781250q-4.750000 -0.781250 -9.828125 -2.343750l0.000000 -9.921875q4.390625 2.390625 9.078125 3.562500q4.687500 1.171875 9.906250 1.171875q8.453125 0.000000 13.375000 -4.437500q4.937500 -4.437500 4.937500 -12.062500q0.000000 -7.609375 -4.937500 -12.046875q-4.921875 -4.453125 -13.375000 -4.453125q-3.953125 0.000000 -7.890625 0.875000q-3.921875 0.875000 -8.015625 2.734375z"/>
</defs>
<g style="fill: #000000; opacity: 1.000000" transform="translate(52.609375,306.689062)scale(0.120000)">
<use xlink:href="#c_6a8d56c819c37117ab4cf023bec22a5a"/>
<use xlink:href="#c_1260a2df50f305f3db244e29828f968e" x="83.789062"/>
</g>
</g>
<g id="ytick3">
<g id="line2d34">
<g ><use style="fill: none; stroke: #000000; stroke-width: 0.500000; stroke-linejoin: miter; stroke-linecap: butt;  opacity: 1.000000" xlink:href="#m3400efa6b1638b3fea9e19e898273957" x="72.000000" y="216.000000"/>
</g></g>
<g id="line2d35">
<g ><use style="fill: none; stroke: #000000; stroke-width: 0.500000; stroke-linejoin: miter; stroke-linecap: butt;  opacity: 1.000000" xlink:href="#m20b58b2501143cb5e0a5e8f1ef6f1643" x="518.400000" y="216.000000"/>
</g></g>
<g style="fill: #000000; opacity: 1.000000" transform="translate(61.953125,220.367188)scale(0.120000)">
<use xlink:href="#c_7a2040fe3b94fcd41d0a72c84e93b115"/>
</g>
</g>
<g id="ytick4">
<g id="line2d36">
<g ><use style="fill: none; stroke: #000000; stroke-width: 0.500000; stroke-linejoin: miter; stroke-linecap: butt;  opacity: 1.000000" xlink:href="#m3400efa6b1638b3fea9e19e898273957" x="72.000000" y="129.600000"/>
</g></g>
<g id="line2d37">
<g ><use style="fill: none; stroke: #000000; stroke-width: 0.500000; stroke-linejoin: miter; stroke-linecap: butt;  opacity: 1.000000" xlink:href="#m20b58b2501143cb5e0a5e8f1ef6f1643" x="518.400000" y="129.600000"/>
</g></g>
<g style="fill: #000000; opacity: 1.000000" transform="translate(62.328125,133.889063)scale(0.120000)">
<use xlink:href="#c_1260a2df50f305f3db244e29828f968e"/>
</g>
</g>
<g id="ytick5">
<g id="line2d38">
<g ><use style="fill: none; stroke: #000000; stroke-width: 0.500000; stroke-linejoin: miter; stroke-linecap: butt;  opacity: 1.000000" xlink:href="#m3400efa6b1638b3fea9e19e898273957" x="72.000000" y="43.200000"/>
</g></g>
<g id="line2d39">
<g ><use style="fill: none; stroke: #000000; stroke-width: 0.500000; stroke-linejoin: miter; stroke-linecap: butt;  opacity: 1.000000" xlink:href="#m20b58b2501143cb5e0a5e8f1ef6f1643" x="518.400000" y="43.200000"/>
</g></g>
<g style="fill: #000000; opacity: 1.000000" transform="translate(54.828125,47.567187)scale(0.120000)">
<use xlink:href="#c_42baa63129a918535c52adb20d687ea7"/>
<use xlink:href="#c_7a2040fe3b94fcd41d0a72c84e93b115" x="63.623047"/>
</g>
</g>
<defs>
<path id="c_ada8429b49f97e9b59ddeeed8d06fc73" d="M10.593750 -10.890625q0.000000 -3.265625 0.875000 -6.703125q0.890625 -3.453125 2.468750 -7.671875q1.593750 -4.234375 2.765625 -7.359375q1.312500 -3.656250 1.312500 -6.000000q0.000000 -2.984375 -2.187500 -2.984375q-3.968750 0.000000 -6.531250 4.078125q-2.562500 4.078125 -3.781250 9.109375q-0.187500 0.640625 -0.828125 0.640625l-1.171875 0.000000q-0.828125 0.000000 -0.828125 -0.937500l0.000000 -0.281250q1.609375 -5.968750 4.921875 -10.578125q3.328125 -4.609375 8.406250 -4.609375q3.562500 0.000000 6.031250 2.343750q2.468750 2.343750 2.468750 5.953125q0.000000 1.859375 -0.828125 3.906250q-0.437500 1.218750 -2.000000 5.328125q-1.562500 4.093750 -2.406250 6.781250q-0.828125 2.687500 -1.359375 5.281250q-0.531250 2.578125 -0.531250 5.171875q0.000000 3.312500 1.406250 5.609375q1.421875 2.296875 4.593750 2.296875q6.390625 0.000000 11.234375 -7.906250q0.093750 -0.390625 0.156250 -0.750000q0.078125 -0.375000 0.125000 -0.718750l7.187500 -29.000000q0.343750 -1.328125 1.562500 -2.265625q1.218750 -0.953125 2.640625 -0.953125q1.218750 0.000000 2.109375 0.781250q0.906250 0.781250 0.906250 2.046875q0.000000 0.578125 -0.093750 0.781250l-7.218750 28.812500q-0.687500 2.968750 -0.687500 4.875000q0.000000 4.296875 2.875000 4.296875q3.218750 0.000000 4.812500 -3.968750q1.593750 -3.984375 2.703125 -9.218750q0.203125 -0.578125 0.781250 -0.578125l1.234375 0.000000q0.390625 0.000000 0.625000 0.343750q0.250000 0.343750 0.250000 0.625000q-1.078125 4.296875 -2.078125 7.375000q-1.000000 3.078125 -3.156250 5.578125q-2.140625 2.484375 -5.359375 2.484375q-3.171875 0.000000 -5.687500 -1.734375q-2.515625 -1.734375 -3.406250 -4.718750q-2.281250 2.937500 -5.312500 4.703125q-3.031250 1.750000 -6.406250 1.750000q-5.750000 0.000000 -9.171875 -3.140625q-3.421875 -3.156250 -3.421875 -8.875000"/>
</defs>
<g id="mathtext2">
<g style="fill: #000000" transform="translate(39.718750,221.000000)rotate(-90.0)">
<use xlink:href="#c_ada8429b49f97e9b59ddeeed8d06fc73" transform="translate(0.000000,-1.921875)scale(0.160000)"/>
</g>
</g>
</g>
<path style="fill: none; stroke: #000000; stroke-width: 1.000000; stroke-linejoin: miter; stroke-linecap: square;  opacity: 1.000000"  d="M72.000000 388.800000L518.400000 388.800000L518.400000 43.200000
L72.000000 43.200000L72.000000 388.800000"/>
<defs>
<path id="c_06a7a4502300c60b4feec85758ecf628" d="M31.000000 24.812500q-5.562500 -4.406250 -9.593750 -10.093750q-4.015625 -5.687500 -6.593750 -12.140625q-2.562500 -6.437500 -3.828125 -13.468750q-1.265625 -7.031250 -1.265625 -14.109375q0.000000 -7.171875 1.265625 -14.203125q1.265625 -7.031250 3.875000 -13.531250q2.625000 -6.500000 6.671875 -12.156250q4.062500 -5.671875 9.468750 -9.921875q0.000000 -0.187500 0.500000 -0.187500l0.921875 0.000000q0.296875 0.000000 0.531250 0.265625q0.250000 0.265625 0.250000 0.609375q0.000000 0.437500 -0.187500 0.640625q-4.890625 4.781250 -8.140625 10.250000q-3.250000 5.468750 -5.234375 11.656250q-1.968750 6.171875 -2.843750 12.796875q-0.875000 6.609375 -0.875000 13.781250q0.000000 31.781250 16.984375 48.296875q0.296875 0.281250 0.296875 0.828125q0.000000 0.234375 -0.265625 0.546875q-0.265625 0.328125 -0.515625 0.328125l-0.921875 0.000000q-0.500000 0.000000 -0.500000 -0.187500"/>
<path id="c_d385b7bbe58e08154ff387bfd902116e" d="M6.203125 -8.109375q0.000000 -1.468750 0.296875 -2.781250l7.218750 -28.703125l-10.500000 0.000000q-1.015625 0.000000 -1.015625 -1.328125q0.390625 -2.187500 1.312500 -2.187500l11.078125 0.000000l4.015625 -16.312500q0.390625 -1.328125 1.562500 -2.250000q1.171875 -0.921875 2.625000 -0.921875q1.281250 0.000000 2.125000 0.765625q0.859375 0.750000 0.859375 2.015625q0.000000 0.296875 -0.031250 0.468750q-0.015625 0.156250 -0.062500 0.359375l-4.000000 15.875000l10.296875 0.000000q1.031250 0.000000 1.031250 1.312500q-0.062500 0.250000 -0.203125 0.843750q-0.140625 0.578125 -0.390625 0.968750q-0.250000 0.390625 -0.734375 0.390625l-10.890625 0.000000l-7.171875 28.906250q-0.734375 2.828125 -0.734375 4.875000q0.000000 4.296875 2.937500 4.296875q4.390625 0.000000 7.781250 -4.125000q3.390625 -4.125000 5.203125 -9.062500q0.390625 -0.578125 0.781250 -0.578125l1.218750 0.000000q0.390625 0.000000 0.625000 0.265625q0.250000 0.265625 0.250000 0.609375q0.000000 0.203125 -0.093750 0.296875q-2.203125 6.046875 -6.406250 10.640625q-4.187500 4.593750 -9.609375 4.593750q-3.953125 0.000000 -6.671875 -2.578125q-2.703125 -2.593750 -2.703125 -6.656250"/>
<path id="c_b865a8a4692360a5eaaff4ecf56eccf7" d="M6.500000 25.000000q-0.890625 0.000000 -0.890625 -0.875000q0.000000 -0.437500 0.203125 -0.640625q17.093750 -16.703125 17.093750 -48.484375q0.000000 -31.781250 -16.906250 -48.296875q-0.390625 -0.234375 -0.390625 -0.828125q0.000000 -0.343750 0.265625 -0.609375q0.281250 -0.265625 0.625000 -0.265625l0.921875 0.000000q0.296875 0.000000 0.484375 0.187500q7.187500 5.671875 11.968750 13.781250q4.781250 8.093750 7.000000 17.281250q2.234375 9.171875 2.234375 18.750000q0.000000 7.078125 -1.203125 13.937500q-1.203125 6.859375 -3.812500 13.515625q-2.609375 6.671875 -6.609375 12.312500q-4.000000 5.640625 -9.578125 10.046875q-0.187500 0.187500 -0.484375 0.187500z"/>
</defs>
<g id="mathtext3">
<g style="fill: #000000" transform="translate(281.200000,38.200000)">
<use xlink:href="#c_ada8429b49f97e9b59ddeeed8d06fc73" transform="translate(0.000000,-4.000000)scale(0.160000)"/>
<use xlink:href="#c_06a7a4502300c60b4feec85758ecf628" transform="translate(9.148438,-4.000000)scale(0.160000)"/>
<use xlink:href="#c_d385b7bbe58e08154ff387bfd902116e" transform="translate(15.359375,-4.000000)scale(0.160000)"/>
<use xlink:href="#c_b865a8a4692360a5eaaff4ecf56eccf7" transform="translate(21.132812,-4.000000)scale(0.160000)"/>
</g>
</g>
</g>
</g>
</svg>
