<?xml version="1.0" standalone="no"?>
<!DOCTYPE svg PUBLIC "-//W3C//DTD SVG 1.1//EN"
  "http://www.w3.org/Graphics/SVG/1.1/DTD/svg11.dtd">
<!-- Created with matplotlib (http://matplotlib.sourceforge.net/) -->
<svg width="576pt" height="432pt" viewBox="0 0 576 432"
   xmlns="http://www.w3.org/2000/svg"
   xmlns:xlink="http://www.w3.org/1999/xlink"
   version="1.1"
   id="svg1">
<g id="figure1">
<path style="fill: #ffffff; stroke: #ffffff; stroke-width: 1.000000; stroke-linejoin: miter; stroke-linecap: square;  opacity: 1.000000"  d="M0.000000 432.000000L576.000000 432.000000L576.000000 0.000000
L0.000000 0.000000L0.000000 432.000000"/>
<g id="axes1">
<path style="fill: #ffffff; opacity: 1.000000"  d="M72.000000 388.800000L518.400000 388.800000L518.400000 43.200000
L72.000000 43.200000L72.000000 388.800000"/>
<g id="line2d1">
<defs>
  <clipPath id="p50431ccdcb28178602d99d9270004dde">
<rect x="72.000000" y="43.200000" width="446.400000" height="345.600000"/>
  </clipPath>
</defs><path style="fill: none; stroke: #0000ff; stroke-width: 1.000000; stroke-linejoin: miter; stroke-linecap: square;  opacity: 1.000000" clip-path="url(#p50431ccdcb28178602d99d9270004dde)" d="M72.000000 374.976000L76.509091 374.550679L81.018182 374.112273
L85.527273 373.660378L90.036364 373.194579L94.545455 372.714450
L99.054545 372.219548L103.563636 371.709420L108.072727 371.183597
L112.581818 370.641596L117.090909 370.082919L121.600000 369.507054
L126.109091 368.913471L130.618182 368.301625L135.127273 367.670955
L139.636364 367.020881L144.145455 366.350806L148.654545 365.660116
L153.163636 364.948174L157.672727 364.214329L162.181818 363.457906
L166.690909 362.678210L171.200000 361.874525L175.709091 361.046113
L180.218182 360.192213L184.727273 359.312042L189.236364 358.404791
L193.745455 357.469626L198.254545 356.505690L202.763636 355.512096
L207.272727 354.487932L211.781818 353.432258L216.290909 352.344105
L220.800000 351.222472L225.309091 350.066330L229.818182 348.874618
L234.327273 347.646240L238.836364 346.380069L243.345455 345.074941
L247.854545 343.729659L252.363636 342.342987L256.872727 340.913652
L261.381818 339.440340L265.890909 337.921700L270.400000 336.356335
L274.909091 334.742809L279.418182 333.079640L283.927273 331.365301
L288.436364 329.598217L292.945455 327.776765L297.454545 325.899273
L301.963636 323.964016L306.472727 321.969218L310.981818 319.913046
L315.490909 317.793612L320.000000 315.608970L324.509091 313.357113
L329.018182 311.035974L333.527273 308.643420L338.036364 306.177255
L342.545455 303.635215L347.054545 301.014963L351.563636 298.314095
L356.072727 295.530130L360.581818 292.660511L365.090909 289.702602
L369.600000 286.653688L374.109091 283.510969L378.618182 280.271558
L383.127273 276.932481L387.636364 273.490671L392.145455 269.942967
L396.654545 266.286112L401.163636 262.516747L405.672727 258.631410
L410.181818 254.626534L414.690909 250.498440L419.200000 246.243338
L423.709091 241.857320L428.218182 237.336359L432.727273 232.676301
L437.236364 227.872868L441.745455 222.921649L446.254545 217.818096
L450.763636 212.557523L455.272727 207.135099L459.781818 201.545844
L464.290909 195.784625L468.800000 189.846152L473.309091 183.724971
L477.818182 177.415460L482.327273 170.911826L486.836364 164.208095
L491.345455 157.298112L495.854545 150.175530L500.363636 142.833809
L504.872727 135.266207L509.381818 127.465773L513.890909 119.425345
L518.400000 111.137538"/>
</g>
<g id="line2d2">
<path style="fill: none; stroke: #008000; stroke-width: 1.000000; stroke-linejoin: miter; stroke-linecap: square;  opacity: 1.000000" clip-path="url(#p50431ccdcb28178602d99d9270004dde)" d="M72.000000 374.976000L76.509091 374.557091L81.018182 374.138182
L85.527273 373.719273L90.036364 373.300364L94.545455 372.881455
L99.054545 372.462545L103.563636 372.043636L108.072727 371.624727
L112.581818 371.205818L117.090909 370.786909L121.600000 370.368000
L126.109091 369.949091L130.618182 369.530182L135.127273 369.111273
L139.636364 368.692364L144.145455 368.273455L148.654545 367.854545
L153.163636 367.435636L157.672727 367.016727L162.181818 366.597818
L166.690909 366.178909L171.200000 365.760000L175.709091 365.341091
L180.218182 364.922182L184.727273 364.503273L189.236364 364.084364
L193.745455 363.665455L198.254545 363.246545L202.763636 362.827636
L207.272727 362.408727L211.781818 361.989818L216.290909 361.570909
L220.800000 361.152000L225.309091 360.733091L229.818182 360.314182
L234.327273 359.895273L238.836364 359.476364L243.345455 359.057455
L247.854545 358.638545L252.363636 358.219636L256.872727 357.800727
L261.381818 357.381818L265.890909 356.962909L270.400000 356.544000
L274.909091 356.125091L279.418182 355.706182L283.927273 355.287273
L288.436364 354.868364L292.945455 354.449455L297.454545 354.030545
L301.963636 353.611636L306.472727 353.192727L310.981818 352.773818
L315.490909 352.354909L320.000000 351.936000L324.509091 351.517091
L329.018182 351.098182L333.527273 350.679273L338.036364 350.260364
L342.545455 349.841455L347.054545 349.422545L351.563636 349.003636
L356.072727 348.584727L360.581818 348.165818L365.090909 347.746909
L369.600000 347.328000L374.109091 346.909091L378.618182 346.490182
L383.127273 346.071273L387.636364 345.652364L392.145455 345.233455
L396.654545 344.814545L401.163636 344.395636L405.672727 343.976727
L410.181818 343.557818L414.690909 343.138909L419.200000 342.720000
L423.709091 342.301091L428.218182 341.882182L432.727273 341.463273
L437.236364 341.044364L441.745455 340.625455L446.254545 340.206545
L450.763636 339.787636L455.272727 339.368727L459.781818 338.949818
L464.290909 338.530909L468.800000 338.112000L473.309091 337.693091
L477.818182 337.274182L482.327273 336.855273L486.836364 336.436364
L491.345455 336.017455L495.854545 335.598545L500.363636 335.179636
L504.872727 334.760727L509.381818 334.341818L513.890909 333.922909
L518.400000 333.504000"/>
</g>
<g id="line2d3">
<path style="fill: none; stroke: #ff0000; stroke-width: 1.000000; stroke-linejoin: miter; stroke-linecap: square;  opacity: 1.000000" clip-path="url(#p50431ccdcb28178602d99d9270004dde)" d="M72.000000 374.976000L76.509091 374.550744L81.018182 374.112793
L85.527273 373.662149L90.036364 373.198810L94.545455 372.722777
L99.054545 372.234050L103.563636 371.732628L108.072727 371.218512
L112.581818 370.691702L117.090909 370.152198L121.600000 369.600000
L126.109091 369.035107L130.618182 368.457521L135.127273 367.867240
L139.636364 367.264264L144.145455 366.648595L148.654545 366.020231
L153.163636 365.379174L157.672727 364.725421L162.181818 364.058975
L166.690909 363.379835L171.200000 362.688000L175.709091 361.983471
L180.218182 361.266248L184.727273 360.536331L189.236364 359.793719
L193.745455 359.038413L198.254545 358.270413L202.763636 357.489719
L207.272727 356.696331L211.781818 355.890248L216.290909 355.071471
L220.800000 354.240000L225.309091 353.395835L229.818182 352.538975
L234.327273 351.669421L238.836364 350.787174L243.345455 349.892231
L247.854545 348.984595L252.363636 348.064264L256.872727 347.131240
L261.381818 346.185521L265.890909 345.227107L270.400000 344.256000
L274.909091 343.272198L279.418182 342.275702L283.927273 341.266512
L288.436364 340.244628L292.945455 339.210050L297.454545 338.162777
L301.963636 337.102810L306.472727 336.030149L310.981818 334.944793
L315.490909 333.846744L320.000000 332.736000L324.509091 331.612562
L329.018182 330.476430L333.527273 329.327603L338.036364 328.166083
L342.545455 326.991868L347.054545 325.804959L351.563636 324.605355
L356.072727 323.393058L360.581818 322.168066L365.090909 320.930380
L369.600000 319.680000L374.109091 318.416926L378.618182 317.141157
L383.127273 315.852694L387.636364 314.551537L392.145455 313.237686
L396.654545 311.911140L401.163636 310.571901L405.672727 309.219967
L410.181818 307.855339L414.690909 306.478017L419.200000 305.088000
L423.709091 303.685289L428.218182 302.269884L432.727273 300.841785
L437.236364 299.400992L441.745455 297.947504L446.254545 296.481322
L450.763636 295.002446L455.272727 293.510876L459.781818 292.006612
L464.290909 290.489653L468.800000 288.960000L473.309091 287.417653
L477.818182 285.862612L482.327273 284.294876L486.836364 282.714446
L491.345455 281.121322L495.854545 279.515504L500.363636 277.896992
L504.872727 276.265785L509.381818 274.621884L513.890909 272.965289
L518.400000 271.296000"/>
</g>
<g id="line2d4">
<path style="fill: none; stroke: #00bfbf; stroke-width: 1.000000; stroke-linejoin: miter; stroke-linecap: square;  opacity: 1.000000" clip-path="url(#p50431ccdcb28178602d99d9270004dde)" d="M72.000000 374.976000L76.509091 374.550680L81.018182 374.112280
L85.527273 373.660418L90.036364 373.194707L94.545455 372.714763
L99.054545 372.220201L103.563636 371.710638L108.072727 371.185687
L112.581818 370.644965L117.090909 370.088086L121.600000 369.514667
L126.109091 368.924322L130.618182 368.316666L135.127273 367.691316
L139.636364 367.047886L144.145455 366.385991L148.654545 365.705248
L153.163636 365.005271L157.672727 364.285676L162.181818 363.546078
L166.690909 362.786092L171.200000 362.005333L175.709091 361.203418
L180.218182 360.379961L184.727273 359.534578L189.236364 358.666883
L193.745455 357.776493L198.254545 356.863022L202.763636 355.926087
L207.272727 354.965301L211.781818 353.980281L216.290909 352.970643
L220.800000 351.936000L225.309091 350.875969L229.818182 349.790165
L234.327273 348.678203L238.836364 347.539698L243.345455 346.374267
L247.854545 345.181524L252.363636 343.961084L256.872727 342.712563
L261.381818 341.435576L265.890909 340.129739L270.400000 338.794667
L274.909091 337.429974L279.418182 336.035278L283.927273 334.610192
L288.436364 333.154332L292.945455 331.667314L297.454545 330.148752
L301.963636 328.598263L306.472727 327.015461L310.981818 325.399962
L315.490909 323.751381L320.000000 322.069333L324.509091 320.353435
L329.018182 318.603300L333.527273 316.818544L338.036364 314.998784
L342.545455 313.143633L347.054545 311.252708L351.563636 309.325624
L356.072727 307.361995L360.581818 305.361439L365.090909 303.323568
L369.600000 301.248000L374.109091 299.134349L378.618182 296.982231
L383.127273 294.791261L387.636364 292.561054L392.145455 290.291226
L396.654545 287.981391L401.163636 285.631167L405.672727 283.240166
L410.181818 280.808006L414.690909 278.334301L419.200000 275.818667
L423.709091 273.260718L428.218182 270.660071L432.727273 268.016341
L437.236364 265.329142L441.745455 262.598091L446.254545 259.822802
L450.763636 257.002891L455.272727 254.137973L459.781818 251.227664
L464.290909 248.271579L468.800000 245.269333L473.309091 242.220542
L477.818182 239.124820L482.327273 235.981784L486.836364 232.791048
L491.345455 229.552228L495.854545 226.264940L500.363636 222.928797
L504.872727 219.543417L509.381818 216.108414L513.890909 212.623403
L518.400000 209.088000"/>
</g>
<g id="line2d5">
<path style="fill: none; stroke: #bf00bf; stroke-width: 1.000000; stroke-linejoin: miter; stroke-linecap: square;  opacity: 1.000000" clip-path="url(#p50431ccdcb28178602d99d9270004dde)" d="M72.000000 374.976000L76.509091 374.550679L81.018182 374.112273
L85.527273 373.660378L90.036364 373.194582L94.545455 372.714459
L99.054545 372.219572L103.563636 371.709471L108.072727 371.183698
L112.581818 370.641778L117.090909 370.083229L121.600000 369.507556
L126.109091 368.914250L130.618182 368.302794L135.127273 367.672657
L139.636364 367.023297L144.145455 366.354161L148.654545 365.664682
L153.163636 364.954285L157.672727 364.222379L162.181818 363.468366
L166.690909 362.691633L171.200000 361.891556L175.709091 361.067500
L180.218182 360.218818L184.727273 359.344852L189.236364 358.444931
L193.745455 357.518373L198.254545 356.564485L202.763636 355.582561
L207.272727 354.571886L211.781818 353.531729L216.290909 352.461351
L220.800000 351.360000L225.309091 350.226913L229.818182 349.061314
L234.327273 347.862416L238.836364 346.629421L243.345455 345.361520
L247.854545 344.057889L252.363636 342.717696L256.872727 341.340095
L261.381818 339.924230L265.890909 338.469233L270.400000 336.974222
L274.909091 335.438307L279.418182 333.860584L283.927273 332.240138
L288.436364 330.576043L292.945455 328.867359L297.454545 327.113137
L301.963636 325.312415L306.472727 323.464220L310.981818 321.567567
L315.490909 319.621460L320.000000 317.624889L324.509091 315.576835
L329.018182 313.476266L333.527273 311.322140L338.036364 309.113400
L342.545455 306.848981L347.054545 304.527805L351.563636 302.148780
L356.072727 299.710807L360.581818 297.212771L365.090909 294.653547
L369.600000 292.032000L374.109091 289.346981L378.618182 286.597330
L383.127273 283.781875L387.636364 280.899434L392.145455 277.948811
L396.654545 274.928801L401.163636 271.838185L405.672727 268.675733
L410.181818 265.440203L414.690909 262.130344L419.200000 258.744889
L423.709091 255.282563L428.218182 251.742077L432.727273 248.122132
L437.236364 244.421416L441.745455 240.638607L446.254545 236.772369
L450.763636 232.821356L455.272727 228.784210L459.781818 224.659562
L464.290909 220.446031L468.800000 216.142222L473.309091 211.746732
L477.818182 207.258145L482.327273 202.675031L486.836364 197.995953
L491.345455 193.219458L495.854545 188.344083L500.363636 183.368354
L504.872727 178.290786L509.381818 173.109879L513.890909 167.824124
L518.400000 162.432000"/>
</g>
<g id="line2d6">
<path style="fill: none; stroke: #bfbf00; stroke-width: 1.000000; stroke-linejoin: miter; stroke-linecap: square;  opacity: 1.000000" clip-path="url(#p50431ccdcb28178602d99d9270004dde)" d="M72.000000 374.976000L76.509091 374.550679L81.018182 374.112273
L85.527273 373.660378L90.036364 373.194579L94.545455 372.714450
L99.054545 372.219549L103.563636 371.709422L108.072727 371.183601
L112.581818 370.641604L117.090909 370.082935L121.600000 369.507081
L126.109091 368.913518L130.618182 368.301701L135.127273 367.671074
L139.636364 367.021062L144.145455 366.351074L148.654545 365.660503
L153.163636 364.948722L157.672727 364.215091L162.181818 363.458946
L166.690909 362.679610L171.200000 361.876385L175.709091 361.048553
L180.218182 360.195379L184.727273 359.316105L189.236364 358.409956
L193.745455 357.476135L198.254545 356.513824L202.763636 355.522184
L207.272727 354.500355L211.781818 353.447455L216.290909 352.362579
L220.800000 351.244800L225.309091 350.093168L229.818182 348.906709
L234.327273 347.684426L238.836364 346.425299L243.345455 345.128281
L247.854545 343.792303L252.363636 342.416268L256.872727 340.999058
L261.381818 339.539524L265.890909 338.036495L270.400000 336.488770
L274.909091 334.895125L279.418182 333.254306L283.927273 331.565032
L288.436364 329.825995L292.945455 328.035857L297.454545 326.193254
L301.963636 324.296790L306.472727 322.345042L310.981818 320.336556
L315.490909 318.269849L320.000000 316.143407L324.509091 313.955686
L329.018182 311.705109L333.527273 309.390070L338.036364 307.008930
L342.545455 304.560017L347.054545 302.041628L351.563636 299.452027
L356.072727 296.789444L360.581818 294.052075L365.090909 291.238084
L369.600000 288.345600L374.109091 285.372716L378.618182 282.317491
L383.127273 279.177950L387.636364 275.952080L392.145455 272.637833
L396.654545 269.233125L401.163636 265.735835L405.672727 262.143805
L410.181818 258.454838L414.690909 254.666703L419.200000 250.777126
L423.709091 246.783798L428.218182 242.684371L432.727273 238.476455
L437.236364 234.157623L441.745455 229.725408L446.254545 225.177302
L450.763636 220.510756L455.272727 215.723181L459.781818 210.811946
L464.290909 205.774378L468.800000 200.607763L473.309091 195.309344
L477.818182 189.876322L482.327273 184.305853L486.836364 178.595051
L491.345455 172.740987L495.854545 166.740686L500.363636 160.591130
L504.872727 154.289255L509.381818 147.831952L513.890909 141.216067
L518.400000 134.438400"/>
</g>
<g id="matplotlib.axis1">
<g id="xtick1">
<g id="line2d7">
<defs><path id="m30e32995789d870ad79a2e54c91cf9c6" d="M0.000000 0.000000L0.000000 -4.000000"/></defs>
<g ><use style="fill: none; stroke: #000000; stroke-width: 0.500000; stroke-linejoin: miter; stroke-linecap: butt;  opacity: 1.000000" xlink:href="#m30e32995789d870ad79a2e54c91cf9c6" x="72.000000" y="388.800000"/>
</g></g>
<g id="line2d8">
<defs><path id="m9281cae24120827b11d5ea8a7ad3e96b" d="M0.000000 0.000000L0.000000 4.000000"/></defs>
<g ><use style="fill: none; stroke: #000000; stroke-width: 0.500000; stroke-linejoin: miter; stroke-linecap: butt;  opacity: 1.000000" xlink:href="#m9281cae24120827b11d5ea8a7ad3e96b" x="72.000000" y="43.200000"/>
</g></g>
<defs>
<path id="c_7a2040fe3b94fcd41d0a72c84e93b115" d="M31.781250 -66.406250q-7.609375 0.000000 -11.453125 7.500000q-3.828125 7.484375 -3.828125 22.531250q0.000000 14.984375 3.828125 22.484375q3.843750 7.500000 11.453125 7.500000q7.671875 0.000000 11.500000 -7.500000q3.843750 -7.500000 3.843750 -22.484375q0.000000 -15.046875 -3.843750 -22.531250q-3.828125 -7.500000 -11.500000 -7.500000M31.781250 -74.218750q12.265625 0.000000 18.734375 9.703125q6.468750 9.687500 6.468750 28.140625q0.000000 18.406250 -6.468750 28.109375q-6.468750 9.687500 -18.734375 9.687500q-12.250000 0.000000 -18.718750 -9.687500q-6.468750 -9.703125 -6.468750 -28.109375q0.000000 -18.453125 6.468750 -28.140625q6.468750 -9.703125 18.718750 -9.703125"/>
<path id="c_ed3e21196fb739f392806f09ca0594ef" d="M10.687500 -12.406250l10.312500 0.000000l0.000000 12.406250l-10.312500 0.000000z"/>
</defs>
<g style="fill: #000000; opacity: 1.000000" transform="translate(63.250000,401.706250)scale(0.120000)">
<use xlink:href="#c_7a2040fe3b94fcd41d0a72c84e93b115"/>
<use xlink:href="#c_ed3e21196fb739f392806f09ca0594ef" x="63.623047"/>
<use xlink:href="#c_7a2040fe3b94fcd41d0a72c84e93b115" x="95.410156"/>
</g>
</g>
<g id="xtick2">
<g id="line2d9">
<g ><use style="fill: none; stroke: #000000; stroke-width: 0.500000; stroke-linejoin: miter; stroke-linecap: butt;  opacity: 1.000000" xlink:href="#m30e32995789d870ad79a2e54c91cf9c6" x="146.400000" y="388.800000"/>
</g></g>
<g id="line2d10">
<g ><use style="fill: none; stroke: #000000; stroke-width: 0.500000; stroke-linejoin: miter; stroke-linecap: butt;  opacity: 1.000000" xlink:href="#m9281cae24120827b11d5ea8a7ad3e96b" x="146.400000" y="43.200000"/>
</g></g>
<defs>
<path id="c_1260a2df50f305f3db244e29828f968e" d="M10.796875 -72.906250l38.718750 0.000000l0.000000 8.312500l-29.687500 0.000000l0.000000 17.859375q2.140625 -0.734375 4.281250 -1.093750q2.156250 -0.359375 4.312500 -0.359375q12.203125 0.000000 19.328125 6.687500q7.140625 6.687500 7.140625 18.109375q0.000000 11.765625 -7.328125 18.296875q-7.328125 6.515625 -20.656250 6.515625q-4.593750 0.000000 -9.359375 -0.781250q-4.750000 -0.781250 -9.828125 -2.343750l0.000000 -9.921875q4.390625 2.390625 9.078125 3.562500q4.687500 1.171875 9.906250 1.171875q8.453125 0.000000 13.375000 -4.437500q4.937500 -4.437500 4.937500 -12.062500q0.000000 -7.609375 -4.937500 -12.046875q-4.921875 -4.453125 -13.375000 -4.453125q-3.953125 0.000000 -7.890625 0.875000q-3.921875 0.875000 -8.015625 2.734375z"/>
</defs>
<g style="fill: #000000; opacity: 1.000000" transform="translate(137.775000,401.706250)scale(0.120000)">
<use xlink:href="#c_7a2040fe3b94fcd41d0a72c84e93b115"/>
<use xlink:href="#c_ed3e21196fb739f392806f09ca0594ef" x="63.623047"/>
<use xlink:href="#c_1260a2df50f305f3db244e29828f968e" x="95.410156"/>
</g>
</g>
<g id="xtick3">
<g id="line2d11">
<g ><use style="fill: none; stroke: #000000; stroke-width: 0.500000; stroke-linejoin: miter; stroke-linecap: butt;  opacity: 1.000000" xlink:href="#m30e32995789d870ad79a2e54c91cf9c6" x="220.800000" y="388.800000"/>
</g></g>
<g id="line2d12">
<g ><use style="fill: none; stroke: #000000; stroke-width: 0.500000; stroke-linejoin: miter; stroke-linecap: butt;  opacity: 1.000000" xlink:href="#m9281cae24120827b11d5ea8a7ad3e96b" x="220.800000" y="43.200000"/>
</g></g>
<defs>
<path id="c_42baa63129a918535c52adb20d687ea7" d="M12.406250 -8.296875l16.109375 0.000000l0.000000 -55.625000l-17.531250 3.515625l0.000000 -8.984375l17.437500 -3.515625l9.859375 0.000000l0.000000 64.609375l16.109375 0.000000l0.000000 8.296875l-41.984375 0.000000z"/>
</defs>
<g style="fill: #000000; opacity: 1.000000" transform="translate(212.307812,401.706250)scale(0.120000)">
<use xlink:href="#c_42baa63129a918535c52adb20d687ea7"/>
<use xlink:href="#c_ed3e21196fb739f392806f09ca0594ef" x="63.623047"/>
<use xlink:href="#c_7a2040fe3b94fcd41d0a72c84e93b115" x="95.410156"/>
</g>
</g>
<g id="xtick4">
<g id="line2d13">
<g ><use style="fill: none; stroke: #000000; stroke-width: 0.500000; stroke-linejoin: miter; stroke-linecap: butt;  opacity: 1.000000" xlink:href="#m30e32995789d870ad79a2e54c91cf9c6" x="295.200000" y="388.800000"/>
</g></g>
<g id="line2d14">
<g ><use style="fill: none; stroke: #000000; stroke-width: 0.500000; stroke-linejoin: miter; stroke-linecap: butt;  opacity: 1.000000" xlink:href="#m9281cae24120827b11d5ea8a7ad3e96b" x="295.200000" y="43.200000"/>
</g></g>
<g style="fill: #000000; opacity: 1.000000" transform="translate(286.832812,401.550000)scale(0.120000)">
<use xlink:href="#c_42baa63129a918535c52adb20d687ea7"/>
<use xlink:href="#c_ed3e21196fb739f392806f09ca0594ef" x="63.623047"/>
<use xlink:href="#c_1260a2df50f305f3db244e29828f968e" x="95.410156"/>
</g>
</g>
<g id="xtick5">
<g id="line2d15">
<g ><use style="fill: none; stroke: #000000; stroke-width: 0.500000; stroke-linejoin: miter; stroke-linecap: butt;  opacity: 1.000000" xlink:href="#m30e32995789d870ad79a2e54c91cf9c6" x="369.600000" y="388.800000"/>
</g></g>
<g id="line2d16">
<g ><use style="fill: none; stroke: #000000; stroke-width: 0.500000; stroke-linejoin: miter; stroke-linecap: butt;  opacity: 1.000000" xlink:href="#m9281cae24120827b11d5ea8a7ad3e96b" x="369.600000" y="43.200000"/>
</g></g>
<defs>
<path id="c_ed3f3ed3ebfbd18bcb9c012009a68ad1" d="M19.187500 -8.296875l34.421875 0.000000l0.000000 8.296875l-46.281250 0.000000l0.000000 -8.296875q5.609375 -5.812500 15.296875 -15.593750q9.703125 -9.796875 12.187500 -12.640625q4.734375 -5.312500 6.609375 -9.000000q1.890625 -3.687500 1.890625 -7.250000q0.000000 -5.812500 -4.078125 -9.468750q-4.078125 -3.671875 -10.625000 -3.671875q-4.640625 0.000000 -9.796875 1.609375q-5.140625 1.609375 -11.000000 4.890625l0.000000 -9.968750q5.953125 -2.390625 11.125000 -3.609375q5.187500 -1.218750 9.484375 -1.218750q11.328125 0.000000 18.062500 5.671875q6.734375 5.656250 6.734375 15.125000q0.000000 4.500000 -1.687500 8.531250q-1.671875 4.015625 -6.125000 9.484375q-1.218750 1.421875 -7.765625 8.187500q-6.531250 6.765625 -18.453125 18.921875"/>
</defs>
<g style="fill: #000000; opacity: 1.000000" transform="translate(360.889062,401.706250)scale(0.120000)">
<use xlink:href="#c_ed3f3ed3ebfbd18bcb9c012009a68ad1"/>
<use xlink:href="#c_ed3e21196fb739f392806f09ca0594ef" x="63.623047"/>
<use xlink:href="#c_7a2040fe3b94fcd41d0a72c84e93b115" x="95.410156"/>
</g>
</g>
<g id="xtick6">
<g id="line2d17">
<g ><use style="fill: none; stroke: #000000; stroke-width: 0.500000; stroke-linejoin: miter; stroke-linecap: butt;  opacity: 1.000000" xlink:href="#m30e32995789d870ad79a2e54c91cf9c6" x="444.000000" y="388.800000"/>
</g></g>
<g id="line2d18">
<g ><use style="fill: none; stroke: #000000; stroke-width: 0.500000; stroke-linejoin: miter; stroke-linecap: butt;  opacity: 1.000000" xlink:href="#m9281cae24120827b11d5ea8a7ad3e96b" x="444.000000" y="43.200000"/>
</g></g>
<g style="fill: #000000; opacity: 1.000000" transform="translate(435.414062,401.706250)scale(0.120000)">
<use xlink:href="#c_ed3f3ed3ebfbd18bcb9c012009a68ad1"/>
<use xlink:href="#c_ed3e21196fb739f392806f09ca0594ef" x="63.623047"/>
<use xlink:href="#c_1260a2df50f305f3db244e29828f968e" x="95.410156"/>
</g>
</g>
<g id="xtick7">
<g id="line2d19">
<g ><use style="fill: none; stroke: #000000; stroke-width: 0.500000; stroke-linejoin: miter; stroke-linecap: butt;  opacity: 1.000000" xlink:href="#m30e32995789d870ad79a2e54c91cf9c6" x="518.400000" y="388.800000"/>
</g></g>
<g id="line2d20">
<g ><use style="fill: none; stroke: #000000; stroke-width: 0.500000; stroke-linejoin: miter; stroke-linecap: butt;  opacity: 1.000000" xlink:href="#m9281cae24120827b11d5ea8a7ad3e96b" x="518.400000" y="43.200000"/>
</g></g>
<defs>
<path id="c_3dcfa38a02242cb63ec6726c6e70be7a" d="M40.578125 -39.312500q7.078125 1.515625 11.046875 6.312500q3.984375 4.781250 3.984375 11.812500q0.000000 10.781250 -7.421875 16.703125q-7.421875 5.906250 -21.093750 5.906250q-4.578125 0.000000 -9.437500 -0.906250q-4.859375 -0.906250 -10.031250 -2.718750l0.000000 -9.515625q4.093750 2.390625 8.968750 3.609375q4.890625 1.218750 10.218750 1.218750q9.265625 0.000000 14.125000 -3.656250q4.859375 -3.656250 4.859375 -10.640625q0.000000 -6.453125 -4.515625 -10.078125q-4.515625 -3.640625 -12.562500 -3.640625l-8.500000 0.000000l0.000000 -8.109375l8.890625 0.000000q7.265625 0.000000 11.125000 -2.906250q3.859375 -2.906250 3.859375 -8.375000q0.000000 -5.609375 -3.984375 -8.609375q-3.968750 -3.015625 -11.390625 -3.015625q-4.062500 0.000000 -8.703125 0.890625q-4.640625 0.875000 -10.203125 2.718750l0.000000 -8.781250q5.625000 -1.562500 10.531250 -2.343750q4.906250 -0.781250 9.250000 -0.781250q11.234375 0.000000 17.765625 5.109375q6.546875 5.093750 6.546875 13.781250q0.000000 6.062500 -3.468750 10.234375q-3.468750 4.171875 -9.859375 5.781250"/>
</defs>
<g style="fill: #000000; opacity: 1.000000" transform="translate(509.712500,401.706250)scale(0.120000)">
<use xlink:href="#c_3dcfa38a02242cb63ec6726c6e70be7a"/>
<use xlink:href="#c_ed3e21196fb739f392806f09ca0594ef" x="63.623047"/>
<use xlink:href="#c_7a2040fe3b94fcd41d0a72c84e93b115" x="95.410156"/>
</g>
</g>
<defs>
<path id="c_801fe2e877fad46da27c898b407b3b54" d="M54.890625 -54.687500l-19.781250 26.609375l20.796875 28.078125l-10.593750 0.000000l-15.921875 -21.484375l-15.906250 21.484375l-10.609375 0.000000l21.250000 -28.609375l-19.437500 -26.078125l10.593750 0.000000l14.500000 19.484375l14.500000 -19.484375z"/>
</defs>
<g style="fill: #000000; opacity: 1.000000" transform="translate(292.020312,413.440625)scale(0.120000)">
<use xlink:href="#c_801fe2e877fad46da27c898b407b3b54"/>
</g>
</g>
<g id="matplotlib.axis2">
<g id="ytick1">
<g id="line2d21">
<defs><path id="m3400efa6b1638b3fea9e19e898273957" d="M0.000000 0.000000L4.000000 0.000000"/></defs>
<g ><use style="fill: none; stroke: #000000; stroke-width: 0.500000; stroke-linejoin: miter; stroke-linecap: butt;  opacity: 1.000000" xlink:href="#m3400efa6b1638b3fea9e19e898273957" x="72.000000" y="388.800000"/>
</g></g>
<g id="line2d22">
<defs><path id="m20b58b2501143cb5e0a5e8f1ef6f1643" d="M0.000000 0.000000L-4.000000 0.000000"/></defs>
<g ><use style="fill: none; stroke: #000000; stroke-width: 0.500000; stroke-linejoin: miter; stroke-linecap: butt;  opacity: 1.000000" xlink:href="#m20b58b2501143cb5e0a5e8f1ef6f1643" x="518.400000" y="388.800000"/>
</g></g>
<g style="fill: #000000; opacity: 1.000000" transform="translate(61.953125,393.167188)scale(0.120000)">
<use xlink:href="#c_7a2040fe3b94fcd41d0a72c84e93b115"/>
</g>
</g>
<g id="ytick2">
<g id="line2d23">
<g ><use style="fill: none; stroke: #000000; stroke-width: 0.500000; stroke-linejoin: miter; stroke-linecap: butt;  opacity: 1.000000" xlink:href="#m3400efa6b1638b3fea9e19e898273957" x="72.000000" y="319.680000"/>
</g></g>
<g id="line2d24">
<g ><use style="fill: none; stroke: #000000; stroke-width: 0.500000; stroke-linejoin: miter; stroke-linecap: butt;  opacity: 1.000000" xlink:href="#m20b58b2501143cb5e0a5e8f1ef6f1643" x="518.400000" y="319.680000"/>
</g></g>
<g style="fill: #000000; opacity: 1.000000" transform="translate(62.328125,323.969063)scale(0.120000)">
<use xlink:href="#c_1260a2df50f305f3db244e29828f968e"/>
</g>
</g>
<g id="ytick3">
<g id="line2d25">
<g ><use style="fill: none; stroke: #000000; stroke-width: 0.500000; stroke-linejoin: miter; stroke-linecap: butt;  opacity: 1.000000" xlink:href="#m3400efa6b1638b3fea9e19e898273957" x="72.000000" y="250.560000"/>
</g></g>
<g id="line2d26">
<g ><use style="fill: none; stroke: #000000; stroke-width: 0.500000; stroke-linejoin: miter; stroke-linecap: butt;  opacity: 1.000000" xlink:href="#m20b58b2501143cb5e0a5e8f1ef6f1643" x="518.400000" y="250.560000"/>
</g></g>
<g style="fill: #000000; opacity: 1.000000" transform="translate(54.828125,254.927188)scale(0.120000)">
<use xlink:href="#c_42baa63129a918535c52adb20d687ea7"/>
<use xlink:href="#c_7a2040fe3b94fcd41d0a72c84e93b115" x="63.623047"/>
</g>
</g>
<g id="ytick4">
<g id="line2d27">
<g ><use style="fill: none; stroke: #000000; stroke-width: 0.500000; stroke-linejoin: miter; stroke-linecap: butt;  opacity: 1.000000" xlink:href="#m3400efa6b1638b3fea9e19e898273957" x="72.000000" y="181.440000"/>
</g></g>
<g id="line2d28">
<g ><use style="fill: none; stroke: #000000; stroke-width: 0.500000; stroke-linejoin: miter; stroke-linecap: butt;  opacity: 1.000000" xlink:href="#m20b58b2501143cb5e0a5e8f1ef6f1643" x="518.400000" y="181.440000"/>
</g></g>
<g style="fill: #000000; opacity: 1.000000" transform="translate(55.078125,185.729062)scale(0.120000)">
<use xlink:href="#c_42baa63129a918535c52adb20d687ea7"/>
<use xlink:href="#c_1260a2df50f305f3db244e29828f968e" x="63.623047"/>
</g>
</g>
<g id="ytick5">
<g id="line2d29">
<g ><use style="fill: none; stroke: #000000; stroke-width: 0.500000; stroke-linejoin: miter; stroke-linecap: butt;  opacity: 1.000000" xlink:href="#m3400efa6b1638b3fea9e19e898273957" x="72.000000" y="112.320000"/>
</g></g>
<g id="line2d30">
<g ><use style="fill: none; stroke: #000000; stroke-width: 0.500000; stroke-linejoin: miter; stroke-linecap: butt;  opacity: 1.000000" xlink:href="#m20b58b2501143cb5e0a5e8f1ef6f1643" x="518.400000" y="112.320000"/>
</g></g>
<g style="fill: #000000; opacity: 1.000000" transform="translate(54.390625,116.687187)scale(0.120000)">
<use xlink:href="#c_ed3f3ed3ebfbd18bcb9c012009a68ad1"/>
<use xlink:href="#c_7a2040fe3b94fcd41d0a72c84e93b115" x="63.623047"/>
</g>
</g>
<g id="ytick6">
<g id="line2d31">
<g ><use style="fill: none; stroke: #000000; stroke-width: 0.500000; stroke-linejoin: miter; stroke-linecap: butt;  opacity: 1.000000" xlink:href="#m3400efa6b1638b3fea9e19e898273957" x="72.000000" y="43.200000"/>
</g></g>
<g id="line2d32">
<g ><use style="fill: none; stroke: #000000; stroke-width: 0.500000; stroke-linejoin: miter; stroke-linecap: butt;  opacity: 1.000000" xlink:href="#m20b58b2501143cb5e0a5e8f1ef6f1643" x="518.400000" y="43.200000"/>
</g></g>
<g style="fill: #000000; opacity: 1.000000" transform="translate(54.640625,47.567187)scale(0.120000)">
<use xlink:href="#c_ed3f3ed3ebfbd18bcb9c012009a68ad1"/>
<use xlink:href="#c_1260a2df50f305f3db244e29828f968e" x="63.623047"/>
</g>
</g>
<defs>
<path id="c_3fe22c4af425ac970aec982ae9662abe" d="M32.171875 5.078125q-3.796875 9.765625 -7.421875 12.734375q-3.609375 2.984375 -9.656250 2.984375l-7.187500 0.000000l0.000000 -7.515625l5.281250 0.000000q3.703125 0.000000 5.750000 -1.765625q2.062500 -1.750000 4.546875 -8.296875l1.609375 -4.093750l-22.109375 -53.812500l9.515625 0.000000l17.093750 42.765625l17.093750 -42.765625l9.515625 0.000000z"/>
</defs>
<g style="fill: #000000; opacity: 1.000000" transform="translate(49.390625,216.695312)rotate(-90.0)scale(0.120000)">
<use xlink:href="#c_3fe22c4af425ac970aec982ae9662abe"/>
</g>
</g>
<path style="fill: none; stroke: #000000; stroke-width: 1.000000; stroke-linejoin: miter; stroke-linecap: square;  opacity: 1.000000"  d="M72.000000 388.800000L518.400000 388.800000L518.400000 43.200000
L72.000000 43.200000L72.000000 388.800000"/>
<defs>
<path id="c_ff9441f72805bc441fcb0bfe0d774f13" d="M19.671875 -64.796875l0.000000 56.687500l11.921875 0.000000q15.093750 0.000000 22.093750 -6.828125q7.000000 -6.843750 7.000000 -21.593750q0.000000 -14.640625 -7.000000 -21.453125q-7.000000 -6.812500 -22.093750 -6.812500zM9.812500 -72.906250l20.265625 0.000000q21.187500 0.000000 31.093750 8.812500q9.921875 8.812500 9.921875 27.562500q0.000000 18.859375 -9.968750 27.703125q-9.953125 8.828125 -31.046875 8.828125l-20.265625 0.000000z"/>
<path id="c_0bce5afba2dc6b9024b26277c38ad8e8" d="M56.203125 -29.593750l0.000000 4.390625l-41.312500 0.000000q0.593750 9.281250 5.593750 14.140625q5.000000 4.859375 13.937500 4.859375q5.171875 0.000000 10.031250 -1.265625q4.859375 -1.265625 9.656250 -3.812500l0.000000 8.500000q-4.843750 2.046875 -9.921875 3.125000q-5.078125 1.078125 -10.296875 1.078125q-13.093750 0.000000 -20.734375 -7.609375q-7.640625 -7.625000 -7.640625 -20.625000q0.000000 -13.421875 7.250000 -21.296875q7.250000 -7.890625 19.562500 -7.890625q11.031250 0.000000 17.453125 7.109375q6.421875 7.093750 6.421875 19.296875M47.218750 -32.234375q-0.093750 -7.359375 -4.125000 -11.750000q-4.031250 -4.406250 -10.671875 -4.406250q-7.515625 0.000000 -12.031250 4.250000q-4.515625 4.250000 -5.203125 11.968750z"/>
<path id="c_8e0810ad13fe20a2a87a2619799b154d" d="M44.281250 -53.078125l0.000000 8.500000q-3.796875 -1.953125 -7.906250 -2.921875q-4.093750 -0.984375 -8.500000 -0.984375q-6.687500 0.000000 -10.031250 2.046875q-3.343750 2.046875 -3.343750 6.156250q0.000000 3.125000 2.390625 4.906250q2.390625 1.781250 9.625000 3.390625l3.078125 0.687500q9.562500 2.046875 13.593750 5.781250q4.031250 3.734375 4.031250 10.421875q0.000000 7.625000 -6.031250 12.078125q-6.031250 4.437500 -16.578125 4.437500q-4.390625 0.000000 -9.156250 -0.859375q-4.765625 -0.859375 -10.031250 -2.562500l0.000000 -9.281250q4.984375 2.593750 9.812500 3.890625q4.828125 1.281250 9.578125 1.281250q6.343750 0.000000 9.750000 -2.171875q3.421875 -2.171875 3.421875 -6.125000q0.000000 -3.656250 -2.468750 -5.609375q-2.453125 -1.953125 -10.812500 -3.765625l-3.125000 -0.734375q-8.343750 -1.750000 -12.062500 -5.390625q-3.703125 -3.640625 -3.703125 -9.984375q0.000000 -7.718750 5.468750 -11.906250q5.468750 -4.203125 15.531250 -4.203125q4.968750 0.000000 9.359375 0.734375q4.406250 0.718750 8.109375 2.187500"/>
<path id="c_01d93a582460e35a7945ca50d148ffeb" d="M34.281250 -27.484375q-10.890625 0.000000 -15.093750 2.484375q-4.203125 2.484375 -4.203125 8.500000q0.000000 4.781250 3.156250 7.593750q3.156250 2.796875 8.562500 2.796875q7.484375 0.000000 12.000000 -5.296875q4.515625 -5.296875 4.515625 -14.078125l0.000000 -2.000000zM52.203125 -31.203125l0.000000 31.203125l-8.984375 0.000000l0.000000 -8.296875q-3.078125 4.968750 -7.671875 7.343750q-4.593750 2.375000 -11.234375 2.375000q-8.390625 0.000000 -13.359375 -4.718750q-4.953125 -4.718750 -4.953125 -12.625000q0.000000 -9.218750 6.171875 -13.906250q6.187500 -4.687500 18.437500 -4.687500l12.609375 0.000000l0.000000 -0.890625q0.000000 -6.203125 -4.078125 -9.593750q-4.078125 -3.390625 -11.453125 -3.390625q-4.687500 0.000000 -9.140625 1.125000q-4.437500 1.125000 -8.531250 3.375000l0.000000 -8.312500q4.921875 -1.906250 9.562500 -2.843750q4.640625 -0.953125 9.031250 -0.953125q11.875000 0.000000 17.734375 6.156250q5.859375 6.140625 5.859375 18.640625"/>
<path id="c_6ec8d5749226675394676a5d2a3b468b" d="M41.109375 -46.296875q-1.515625 -0.875000 -3.296875 -1.281250q-1.781250 -0.421875 -3.921875 -0.421875q-7.625000 0.000000 -11.703125 4.953125q-4.078125 4.953125 -4.078125 14.234375l0.000000 28.812500l-9.031250 0.000000l0.000000 -54.687500l9.031250 0.000000l0.000000 8.500000q2.843750 -4.984375 7.375000 -7.390625q4.546875 -2.421875 11.046875 -2.421875q0.921875 0.000000 2.046875 0.125000q1.125000 0.109375 2.484375 0.359375z"/>
<path id="c_f05dd90d41f04bb96ef1ca503cc2044b" d="M30.609375 -48.390625q-7.218750 0.000000 -11.421875 5.640625q-4.203125 5.640625 -4.203125 15.453125q0.000000 9.812500 4.171875 15.453125q4.187500 5.640625 11.453125 5.640625q7.187500 0.000000 11.375000 -5.656250q4.203125 -5.671875 4.203125 -15.437500q0.000000 -9.718750 -4.203125 -15.406250q-4.187500 -5.687500 -11.375000 -5.687500M30.609375 -56.000000q11.718750 0.000000 18.406250 7.625000q6.703125 7.609375 6.703125 21.078125q0.000000 13.421875 -6.703125 21.078125q-6.687500 7.640625 -18.406250 7.640625q-11.765625 0.000000 -18.437500 -7.640625q-6.656250 -7.656250 -6.656250 -21.078125q0.000000 -13.468750 6.656250 -21.078125q6.671875 -7.625000 18.437500 -7.625000"/>
<path id="c_5099edb83619131346ae654950954dea" d="M9.421875 -75.984375l8.984375 0.000000l0.000000 75.984375l-8.984375 0.000000z"/>
<path id="c_d41d8cd98f00b204e9800998ecf8427e" d=""/>
<path id="c_d821beae607506e87470f334d9ff47af" d="M45.406250 -46.390625l0.000000 -29.593750l8.984375 0.000000l0.000000 75.984375l-8.984375 0.000000l0.000000 -8.203125q-2.828125 4.875000 -7.156250 7.250000q-4.312500 2.375000 -10.375000 2.375000q-9.906250 0.000000 -16.140625 -7.906250q-6.218750 -7.921875 -6.218750 -20.812500q0.000000 -12.890625 6.218750 -20.796875q6.234375 -7.906250 16.140625 -7.906250q6.062500 0.000000 10.375000 2.375000q4.328125 2.359375 7.156250 7.234375M14.796875 -27.296875q0.000000 9.906250 4.078125 15.546875q4.078125 5.640625 11.203125 5.640625q7.125000 0.000000 11.218750 -5.640625q4.109375 -5.640625 4.109375 -15.546875q0.000000 -9.906250 -4.109375 -15.546875q-4.093750 -5.640625 -11.218750 -5.640625q-7.125000 0.000000 -11.203125 5.640625q-4.078125 5.640625 -4.078125 15.546875"/>
<path id="c_9e4b30cbdf32072672ded72e9074c4c9" d="M-0.296875 -72.906250l61.671875 0.000000l0.000000 8.312500l-25.875000 0.000000l0.000000 64.593750l-9.906250 0.000000l0.000000 -64.593750l-25.890625 0.000000z"/>
<path id="c_73b12fe3945075d29fe0cc9a468fa31e" d="M37.109375 -75.984375l0.000000 7.484375l-8.593750 0.000000q-4.828125 0.000000 -6.718750 1.953125q-1.875000 1.953125 -1.875000 7.031250l0.000000 4.828125l14.796875 0.000000l0.000000 6.984375l-14.796875 0.000000l0.000000 47.703125l-9.031250 0.000000l0.000000 -47.703125l-8.593750 0.000000l0.000000 -6.984375l8.593750 0.000000l0.000000 -3.812500q0.000000 -9.125000 4.250000 -13.296875q4.250000 -4.187500 13.468750 -4.187500z"/>
<path id="c_c438d87e693443c2861ebd6359e6491e" d="M8.500000 -21.578125l0.000000 -33.109375l8.984375 0.000000l0.000000 32.765625q0.000000 7.765625 3.015625 11.656250q3.031250 3.875000 9.093750 3.875000q7.265625 0.000000 11.484375 -4.640625q4.234375 -4.640625 4.234375 -12.656250l0.000000 -31.000000l8.984375 0.000000l0.000000 54.687500l-8.984375 0.000000l0.000000 -8.406250q-3.265625 4.984375 -7.593750 7.406250q-4.312500 2.421875 -10.031250 2.421875q-9.421875 0.000000 -14.312500 -5.859375q-4.875000 -5.859375 -4.875000 -17.140625"/>
<path id="c_fe791a90f5471e2ab20a5ed41a7fa451" d="M54.890625 -33.015625l0.000000 33.015625l-8.984375 0.000000l0.000000 -32.718750q0.000000 -7.765625 -3.031250 -11.609375q-3.031250 -3.859375 -9.078125 -3.859375q-7.281250 0.000000 -11.484375 4.640625q-4.203125 4.625000 -4.203125 12.640625l0.000000 30.906250l-9.031250 0.000000l0.000000 -54.687500l9.031250 0.000000l0.000000 8.500000q3.234375 -4.937500 7.593750 -7.375000q4.375000 -2.437500 10.093750 -2.437500q9.421875 0.000000 14.250000 5.828125q4.843750 5.828125 4.843750 17.156250"/>
<path id="c_d650c37394b681142a10dfc54356d478" d="M48.781250 -52.593750l0.000000 8.406250q-3.812500 -2.109375 -7.640625 -3.156250q-3.828125 -1.046875 -7.734375 -1.046875q-8.750000 0.000000 -13.593750 5.546875q-4.828125 5.531250 -4.828125 15.546875q0.000000 10.015625 4.828125 15.562500q4.843750 5.531250 13.593750 5.531250q3.906250 0.000000 7.734375 -1.046875q3.828125 -1.046875 7.640625 -3.156250l0.000000 8.312500q-3.765625 1.750000 -7.796875 2.625000q-4.015625 0.890625 -8.562500 0.890625q-12.359375 0.000000 -19.640625 -7.765625q-7.265625 -7.765625 -7.265625 -20.953125q0.000000 -13.375000 7.343750 -21.031250q7.359375 -7.671875 20.156250 -7.671875q4.140625 0.000000 8.093750 0.859375q3.953125 0.843750 7.671875 2.546875"/>
<path id="c_6a63bda47b2f3da1cec6aadd80692cfe" d="M9.421875 -54.687500l8.984375 0.000000l0.000000 54.687500l-8.984375 0.000000zM9.421875 -75.984375l8.984375 0.000000l0.000000 11.390625l-8.984375 0.000000z"/>
<path id="c_be616346af8fd0256501957835f555ea" d="M30.609375 -48.390625q-7.218750 0.000000 -11.421875 5.640625q-4.203125 5.640625 -4.203125 15.453125q0.000000 9.812500 4.171875 15.453125q4.187500 5.640625 11.453125 5.640625q7.187500 0.000000 11.375000 -5.656250q4.203125 -5.671875 4.203125 -15.437500q0.000000 -9.718750 -4.203125 -15.406250q-4.187500 -5.687500 -11.375000 -5.687500M30.609375 -56.000000q11.718750 0.000000 18.406250 7.625000q6.703125 7.609375 6.703125 21.078125q0.000000 13.421875 -6.703125 21.078125q-6.687500 7.640625 -18.406250 7.640625q-11.765625 0.000000 -18.437500 -7.640625q-6.656250 -7.656250 -6.656250 -21.078125q0.000000 -13.468750 6.656250 -21.078125q6.671875 -7.625000 18.437500 -7.625000M37.406250 -79.984375l9.718750 0.000000l-15.906250 18.359375l-7.484375 0.000000z"/>
<path id="c_f15a64fcd463ef4629c48bab42cde24c" d="M18.109375 -8.203125l0.000000 29.000000l-9.031250 0.000000l0.000000 -75.484375l9.031250 0.000000l0.000000 8.296875q2.843750 -4.875000 7.156250 -7.234375q4.328125 -2.375000 10.328125 -2.375000q9.968750 0.000000 16.187500 7.906250q6.234375 7.906250 6.234375 20.796875q0.000000 12.890625 -6.234375 20.812500q-6.218750 7.906250 -16.187500 7.906250q-6.000000 0.000000 -10.328125 -2.375000q-4.312500 -2.375000 -7.156250 -7.250000M48.687500 -27.296875q0.000000 -9.906250 -4.078125 -15.546875q-4.078125 -5.640625 -11.203125 -5.640625q-7.140625 0.000000 -11.218750 5.640625q-4.078125 5.640625 -4.078125 15.546875q0.000000 9.906250 4.078125 15.546875q4.078125 5.640625 11.218750 5.640625q7.125000 0.000000 11.203125 -5.640625q4.078125 -5.640625 4.078125 -15.546875"/>
<path id="c_8c0379a31aa3b07b28207e25658c6113" d="M10.593750 -45.406250l62.593750 0.000000l0.000000 8.203125l-62.593750 0.000000zM10.593750 -25.484375l62.593750 0.000000l0.000000 8.296875l-62.593750 0.000000z"/>
</defs>
<g style="fill: #000000; opacity: 1.000000" transform="translate(97.754687,35.293750)scale(0.144000)">
<use xlink:href="#c_ff9441f72805bc441fcb0bfe0d774f13"/>
<use xlink:href="#c_0bce5afba2dc6b9024b26277c38ad8e8" x="77.001953"/>
<use xlink:href="#c_8e0810ad13fe20a2a87a2619799b154d" x="138.525391"/>
<use xlink:href="#c_01d93a582460e35a7945ca50d148ffeb" x="190.625000"/>
<use xlink:href="#c_6ec8d5749226675394676a5d2a3b468b" x="251.904297"/>
<use xlink:href="#c_6ec8d5749226675394676a5d2a3b468b" x="291.267578"/>
<use xlink:href="#c_f05dd90d41f04bb96ef1ca503cc2044b" x="330.130859"/>
<use xlink:href="#c_5099edb83619131346ae654950954dea" x="391.312500"/>
<use xlink:href="#c_5099edb83619131346ae654950954dea" x="419.095703"/>
<use xlink:href="#c_f05dd90d41f04bb96ef1ca503cc2044b" x="446.878906"/>
<use xlink:href="#c_8e0810ad13fe20a2a87a2619799b154d" x="508.060547"/>
<use xlink:href="#c_d41d8cd98f00b204e9800998ecf8427e" x="560.160156"/>
<use xlink:href="#c_d821beae607506e87470f334d9ff47af" x="591.947266"/>
<use xlink:href="#c_0bce5afba2dc6b9024b26277c38ad8e8" x="655.423828"/>
<use xlink:href="#c_d41d8cd98f00b204e9800998ecf8427e" x="716.947266"/>
<use xlink:href="#c_9e4b30cbdf32072672ded72e9074c4c9" x="748.734375"/>
<use xlink:href="#c_01d93a582460e35a7945ca50d148ffeb" x="793.318359"/>
<use xlink:href="#c_3fe22c4af425ac970aec982ae9662abe" x="854.597656"/>
<use xlink:href="#c_5099edb83619131346ae654950954dea" x="913.777344"/>
<use xlink:href="#c_f05dd90d41f04bb96ef1ca503cc2044b" x="941.560547"/>
<use xlink:href="#c_6ec8d5749226675394676a5d2a3b468b" x="1002.742188"/>
<use xlink:href="#c_d41d8cd98f00b204e9800998ecf8427e" x="1043.855469"/>
<use xlink:href="#c_d821beae607506e87470f334d9ff47af" x="1075.642578"/>
<use xlink:href="#c_0bce5afba2dc6b9024b26277c38ad8e8" x="1139.119141"/>
<use xlink:href="#c_d41d8cd98f00b204e9800998ecf8427e" x="1200.642578"/>
<use xlink:href="#c_5099edb83619131346ae654950954dea" x="1232.429688"/>
<use xlink:href="#c_01d93a582460e35a7945ca50d148ffeb" x="1260.212891"/>
<use xlink:href="#c_d41d8cd98f00b204e9800998ecf8427e" x="1321.492188"/>
<use xlink:href="#c_73b12fe3945075d29fe0cc9a468fa31e" x="1353.279297"/>
<use xlink:href="#c_c438d87e693443c2861ebd6359e6491e" x="1388.484375"/>
<use xlink:href="#c_fe791a90f5471e2ab20a5ed41a7fa451" x="1451.863281"/>
<use xlink:href="#c_d650c37394b681142a10dfc54356d478" x="1515.242188"/>
<use xlink:href="#c_6a63bda47b2f3da1cec6aadd80692cfe" x="1570.222656"/>
<use xlink:href="#c_be616346af8fd0256501957835f555ea" x="1598.005859"/>
<use xlink:href="#c_fe791a90f5471e2ab20a5ed41a7fa451" x="1659.187500"/>
<use xlink:href="#c_d41d8cd98f00b204e9800998ecf8427e" x="1722.566406"/>
<use xlink:href="#c_0bce5afba2dc6b9024b26277c38ad8e8" x="1754.353516"/>
<use xlink:href="#c_801fe2e877fad46da27c898b407b3b54" x="1814.126953"/>
<use xlink:href="#c_f15a64fcd463ef4629c48bab42cde24c" x="1873.306641"/>
<use xlink:href="#c_f05dd90d41f04bb96ef1ca503cc2044b" x="1936.783203"/>
<use xlink:href="#c_fe791a90f5471e2ab20a5ed41a7fa451" x="1997.964844"/>
<use xlink:href="#c_0bce5afba2dc6b9024b26277c38ad8e8" x="2061.343750"/>
<use xlink:href="#c_fe791a90f5471e2ab20a5ed41a7fa451" x="2122.867188"/>
<use xlink:href="#c_d650c37394b681142a10dfc54356d478" x="2186.246094"/>
<use xlink:href="#c_6a63bda47b2f3da1cec6aadd80692cfe" x="2241.226563"/>
<use xlink:href="#c_01d93a582460e35a7945ca50d148ffeb" x="2269.009766"/>
<use xlink:href="#c_5099edb83619131346ae654950954dea" x="2330.289063"/>
<use xlink:href="#c_d41d8cd98f00b204e9800998ecf8427e" x="2358.072266"/>
<use xlink:href="#c_0bce5afba2dc6b9024b26277c38ad8e8" x="2389.859375"/>
<use xlink:href="#c_fe791a90f5471e2ab20a5ed41a7fa451" x="2451.382813"/>
<use xlink:href="#c_d41d8cd98f00b204e9800998ecf8427e" x="2514.761719"/>
<use xlink:href="#c_801fe2e877fad46da27c898b407b3b54" x="2546.548828"/>
<use xlink:href="#c_8c0379a31aa3b07b28207e25658c6113" x="2605.728516"/>
<use xlink:href="#c_7a2040fe3b94fcd41d0a72c84e93b115" x="2689.517578"/>
</g>
<g id="legend1">
<path style="fill: #ffffff; stroke: #000000; stroke-width: 1.000000; stroke-linejoin: miter; stroke-linecap: square;  opacity: 1.000000"  d="M79.200000 176.498125L177.211875 176.498125L177.211875 50.400000
L79.200000 50.400000L79.200000 176.498125z"/>
<g id="line2d33">
<path style="fill: none; stroke: #0000ff; stroke-width: 1.000000; stroke-linejoin: miter; stroke-linecap: square;  opacity: 1.000000"  d="M89.280000 61.760625L109.440000 61.760625"/>
</g>
<g id="line2d34">
</g>
<defs>
<path id="c_0f8c41144cfbf448378cb6fd1cc8e549" d="M18.312500 -70.218750l0.000000 15.531250l18.500000 0.000000l0.000000 6.984375l-18.500000 0.000000l0.000000 29.687500q0.000000 6.687500 1.828125 8.593750q1.828125 1.906250 7.453125 1.906250l9.218750 0.000000l0.000000 7.515625l-9.218750 0.000000q-10.406250 0.000000 -14.359375 -3.875000q-3.953125 -3.890625 -3.953125 -14.140625l0.000000 -29.687500l-6.593750 0.000000l0.000000 -6.984375l6.593750 0.000000l0.000000 -15.531250z"/>
</defs>
<g style="fill: #000000; opacity: 1.000000" transform="translate(125.280000,66.800625)scale(0.144000)">
<use xlink:href="#c_0bce5afba2dc6b9024b26277c38ad8e8"/>
<use xlink:href="#c_801fe2e877fad46da27c898b407b3b54" x="59.773437"/>
<use xlink:href="#c_01d93a582460e35a7945ca50d148ffeb" x="118.953125"/>
<use xlink:href="#c_d650c37394b681142a10dfc54356d478" x="180.232422"/>
<use xlink:href="#c_0f8c41144cfbf448378cb6fd1cc8e549" x="235.212891"/>
<use xlink:href="#c_01d93a582460e35a7945ca50d148ffeb" x="274.421875"/>
</g>
<g id="line2d35">
<path style="fill: none; stroke: #008000; stroke-width: 1.000000; stroke-linejoin: miter; stroke-linecap: square;  opacity: 1.000000"  d="M89.280000 82.507500L109.440000 82.507500"/>
</g>
<g id="line2d36">
</g>
<g style="fill: #000000; opacity: 1.000000" transform="translate(125.280000,87.547500)scale(0.144000)">
<use xlink:href="#c_fe791a90f5471e2ab20a5ed41a7fa451"/>
<use xlink:href="#c_8c0379a31aa3b07b28207e25658c6113" x="63.378906"/>
<use xlink:href="#c_42baa63129a918535c52adb20d687ea7" x="147.167969"/>
</g>
<g id="line2d37">
<path style="fill: none; stroke: #ff0000; stroke-width: 1.000000; stroke-linejoin: miter; stroke-linecap: square;  opacity: 1.000000"  d="M89.280000 103.254375L109.440000 103.254375"/>
</g>
<g id="line2d38">
</g>
<g style="fill: #000000; opacity: 1.000000" transform="translate(125.280000,108.294375)scale(0.144000)">
<use xlink:href="#c_fe791a90f5471e2ab20a5ed41a7fa451"/>
<use xlink:href="#c_8c0379a31aa3b07b28207e25658c6113" x="63.378906"/>
<use xlink:href="#c_ed3f3ed3ebfbd18bcb9c012009a68ad1" x="147.167969"/>
</g>
<g id="line2d39">
<path style="fill: none; stroke: #00bfbf; stroke-width: 1.000000; stroke-linejoin: miter; stroke-linecap: square;  opacity: 1.000000"  d="M89.280000 124.001250L109.440000 124.001250"/>
</g>
<g id="line2d40">
</g>
<g style="fill: #000000; opacity: 1.000000" transform="translate(125.280000,129.041250)scale(0.144000)">
<use xlink:href="#c_fe791a90f5471e2ab20a5ed41a7fa451"/>
<use xlink:href="#c_8c0379a31aa3b07b28207e25658c6113" x="63.378906"/>
<use xlink:href="#c_3dcfa38a02242cb63ec6726c6e70be7a" x="147.167969"/>
</g>
<g id="line2d41">
<path style="fill: none; stroke: #bf00bf; stroke-width: 1.000000; stroke-linejoin: miter; stroke-linecap: square;  opacity: 1.000000"  d="M89.280000 144.748125L109.440000 144.748125"/>
</g>
<g id="line2d42">
</g>
<defs>
<path id="c_a0416418d96557a09b8c1332d34883ba" d="M37.796875 -64.312500l-24.906250 38.921875l24.906250 0.000000zM35.203125 -72.906250l12.406250 0.000000l0.000000 47.515625l10.406250 0.000000l0.000000 8.203125l-10.406250 0.000000l0.000000 17.187500l-9.812500 0.000000l0.000000 -17.187500l-32.906250 0.000000l0.000000 -9.515625z"/>
</defs>
<g style="fill: #000000; opacity: 1.000000" transform="translate(125.280000,149.788125)scale(0.144000)">
<use xlink:href="#c_fe791a90f5471e2ab20a5ed41a7fa451"/>
<use xlink:href="#c_8c0379a31aa3b07b28207e25658c6113" x="63.378906"/>
<use xlink:href="#c_a0416418d96557a09b8c1332d34883ba" x="147.167969"/>
</g>
<g id="line2d43">
<path style="fill: none; stroke: #bfbf00; stroke-width: 1.000000; stroke-linejoin: miter; stroke-linecap: square;  opacity: 1.000000"  d="M89.280000 165.495000L109.440000 165.495000"/>
</g>
<g id="line2d44">
</g>
<g style="fill: #000000; opacity: 1.000000" transform="translate(125.280000,170.535000)scale(0.144000)">
<use xlink:href="#c_fe791a90f5471e2ab20a5ed41a7fa451"/>
<use xlink:href="#c_8c0379a31aa3b07b28207e25658c6113" x="63.378906"/>
<use xlink:href="#c_1260a2df50f305f3db244e29828f968e" x="147.167969"/>
</g>
</g>
</g>
</g>
</svg>
