<?xml version="1.0" standalone="no"?>
<!DOCTYPE svg PUBLIC "-//W3C//DTD SVG 1.1//EN"
  "http://www.w3.org/Graphics/SVG/1.1/DTD/svg11.dtd">
<!-- Created with matplotlib (http://matplotlib.sourceforge.net/) -->
<svg width="576pt" height="432pt" viewBox="0 0 576 432"
   xmlns="http://www.w3.org/2000/svg"
   xmlns:xlink="http://www.w3.org/1999/xlink"
   version="1.1"
   id="svg1">
<g id="figure1">
<path style="fill: #ffffff; stroke: #ffffff; stroke-width: 1.000000; stroke-linejoin: miter; stroke-linecap: square;  opacity: 1.000000"  d="M0.000000 432.000000L576.000000 432.000000L576.000000 0.000000
L0.000000 0.000000L0.000000 432.000000"/>
<g id="axes1">
<path style="fill: #ffffff; opacity: 1.000000"  d="M72.000000 388.800000L518.400000 388.800000L518.400000 43.200000
L72.000000 43.200000L72.000000 388.800000"/>
<g id="line2d1">
<defs>
  <clipPath id="p50431ccdcb28178602d99d9270004dde">
<rect x="72.000000" y="43.200000" width="446.400000" height="345.600000"/>
  </clipPath>
</defs><path style="fill: none; stroke: #0000ff; stroke-width: 1.000000; stroke-linejoin: miter; stroke-linecap: square;  opacity: 1.000000" clip-path="url(#p50431ccdcb28178602d99d9270004dde)" d="M76.509091 174.865206L81.018182 159.893811L85.527273 151.090268
L90.036364 144.811644L94.545455 139.916284L99.054545 135.895660
L103.563636 132.478508L108.072727 129.502909L112.581818 126.864417
L117.090909 124.491720L121.600000 122.333951L126.109091 120.353553
L130.618182 118.522003L135.127273 116.817130L139.636364 115.221358
L144.145455 113.720517L148.654545 112.303017L153.163636 110.959256
L157.672727 109.681193L162.181818 108.462022L166.690909 107.295936
L171.200000 106.177937L175.709091 105.103694L180.218182 104.069429
L184.727273 103.071828L189.236364 102.107966L193.745455 101.175248
L198.254545 100.271364L202.763636 99.394247L207.272727 98.542038
L211.781818 97.713062L216.290909 96.905806L220.800000 96.118892
L225.309091 95.351069L229.818182 94.601193L234.327273 93.868217
L238.836364 93.151179L243.345455 92.449197L247.854545 91.761454
L252.363636 91.087197L256.872727 90.425729L261.381818 89.776401
L265.890909 89.138613L270.400000 88.511805L274.909091 87.895453
L279.418182 87.289069L283.927273 86.692199L288.436364 86.104412
L292.945455 85.525309L297.454545 84.954512L301.963636 84.391666
L306.472727 83.836438L310.981818 83.288513L315.490909 82.747593
L320.000000 82.213397L324.509091 81.685661L329.018182 81.164131
L333.527273 80.648571L338.036364 80.138753L342.545455 79.634463
L347.054545 79.135496L351.563636 78.641659L356.072727 78.152767
L360.581818 77.668643L365.090909 77.189121L369.600000 76.714038
L374.109091 76.243244L378.618182 75.776591L383.127273 75.313940
L387.636364 74.855158L392.145455 74.400117L396.654545 73.948693
L401.163636 73.500771L405.672727 73.056237L410.181818 72.614983
L414.690909 72.176906L419.200000 71.741906L423.709091 71.309887
L428.218182 70.880759L432.727273 70.454432L437.236364 70.030821
L441.745455 69.609844L446.254545 69.191423L450.763636 68.775481
L455.272727 68.361946L459.781818 67.950747L464.290909 67.541815
L468.800000 67.135086L473.309091 66.730495L477.818182 66.327981
L482.327273 65.927486L486.836364 65.528952L491.345455 65.132323
L495.854545 64.737547L500.363636 64.344572L504.872727 63.953348
L509.381818 63.563826L513.890909 63.175960L518.400000 62.789705"/>
</g>
<g id="line2d2">
<path style="fill: none; stroke: #008000; stroke-width: 1.000000; stroke-linejoin: miter; stroke-linecap: square;  opacity: 1.000000" clip-path="url(#p50431ccdcb28178602d99d9270004dde)" d="M76.509091 224.156048L81.018182 201.780852L85.527273 188.657889
L90.036364 179.322761L94.545455 172.062983L99.054545 166.115769
L103.563636 161.074223L108.072727 156.695465L112.581818 152.822831
L117.090909 149.349352L121.600000 146.198730L126.109091 143.314629
L130.618182 140.654268L135.127273 138.184389L139.636364 135.878630
L144.145455 133.715738L148.654545 131.678328L153.163636 129.751999
L157.672727 127.924688L162.181818 126.186189L166.690909 124.527791
L171.200000 122.941999L175.709091 121.422317L180.218182 119.963079
L184.727273 118.559314L189.236364 117.206635L193.745455 115.901151
L198.254545 114.639397L202.763636 113.418272L207.272727 112.234990
L211.781818 111.087040L216.290909 109.972148L220.800000 108.888252
L225.309091 107.833473L229.818182 106.806097L234.327273 105.804553
L238.836364 104.827400L243.345455 103.873312L247.854545 102.941066
L252.363636 102.029532L256.872727 101.137663L261.381818 100.264489
L265.890909 99.409106L270.400000 98.570676L274.909091 97.748413
L279.418182 96.941586L283.927273 96.149509L288.436364 95.371541
L292.945455 94.607079L297.454545 93.855558L301.963636 93.116445
L306.472727 92.389239L310.981818 91.673467L315.490909 90.968683
L320.000000 90.274464L324.509091 89.590411L329.018182 88.916148
L333.527273 88.251314L338.036364 87.595570L342.545455 86.948593
L347.054545 86.310077L351.563636 85.679728L356.072727 85.057269
L360.581818 84.442435L365.090909 83.834973L369.600000 83.234641
L374.109091 82.641210L378.618182 82.054458L383.127273 81.474176
L387.636364 80.900162L392.145455 80.332222L396.654545 79.770172
L401.163636 79.213834L405.672727 78.663039L410.181818 78.117622
L414.690909 77.577427L419.200000 77.042304L423.709091 76.512106
L428.218182 75.986695L432.727273 75.465937L437.236364 74.949702
L441.745455 74.437865L446.254545 73.930307L450.763636 73.426912
L455.272727 72.927568L459.781818 72.432168L464.290909 71.940607
L468.800000 71.452785L473.309091 70.968605L477.818182 70.487973
L482.327273 70.010799L486.836364 69.536994L491.345455 69.066473
L495.854545 68.599155L500.363636 68.134960L504.872727 67.673810
L509.381818 67.215631L513.890909 66.760350L518.400000 66.307898"/>
</g>
<g id="line2d3">
<path style="fill: none; stroke: #ff0000; stroke-width: 1.000000; stroke-linejoin: miter; stroke-linecap: square;  opacity: 1.000000" clip-path="url(#p50431ccdcb28178602d99d9270004dde)" d="M76.509091 276.520227L81.018182 246.730295L85.527273 229.276906
L90.036364 216.874196L94.545455 207.238854L99.054545 199.353832
L103.563636 192.676604L108.072727 186.883331L112.581818 181.765128
L117.090909 177.179372L121.600000 173.024332L126.109091 169.224896
L130.618182 165.724022L135.127273 162.477369L139.636364 159.449788
L144.145455 156.612941L148.654545 153.943651L153.163636 151.422718
L157.672727 149.034058L162.181818 146.764064L166.690909 144.601123
L171.200000 142.535241L175.709091 140.557760L180.218182 138.661126
L184.727273 136.838711L189.236364 135.084666L193.745455 133.393806
L198.254545 131.761511L202.763636 130.183646L207.272727 128.656500
L211.781818 127.176723L216.290909 125.741286L220.800000 124.347441
L225.309091 122.992682L229.818182 121.674725L234.327273 120.391477
L238.836364 119.141016L243.345455 117.921576L247.854545 116.731527
L252.363636 115.569364L256.872727 114.433691L261.381818 113.323214
L265.890909 112.236732L270.400000 111.173125L274.909091 110.131348
L279.418182 109.110426L283.927273 108.109447L288.436364 107.127554
L292.945455 106.163947L297.454545 105.217870L301.963636 104.288615
L306.472727 103.375515L310.981818 102.477939L315.490909 101.595293
L320.000000 100.727015L324.509091 99.872573L329.018182 99.031464
L333.527273 98.203212L338.036364 97.387362L342.545455 96.583485
L347.054545 95.791172L351.563636 95.010034L356.072727 94.239701
L360.581818 93.479820L365.090909 92.730054L369.600000 91.990083
L374.109091 91.259598L378.618182 90.538308L383.127273 89.825932
L387.636364 89.122200L392.145455 88.426857L396.654545 87.739656
L401.163636 87.060361L405.672727 86.388745L410.181818 85.724591
L414.690909 85.067689L419.200000 84.417840L423.709091 83.774849
L428.218182 83.138532L432.727273 82.508709L437.236364 81.885209
L441.745455 81.267865L446.254545 80.656517L450.763636 80.051012
L455.272727 79.451201L459.781818 78.856940L464.290909 78.268090
L468.800000 77.684518L473.309091 77.106094L477.818182 76.532692
L482.327273 75.964193L486.836364 75.400479L491.345455 74.841436
L495.854545 74.286955L500.363636 73.736929L504.872727 73.191256
L509.381818 72.649836L513.890909 72.112572L518.400000 71.579369"/>
</g>
<g id="line2d4">
<path style="fill: none; stroke: #00bfbf; stroke-width: 1.000000; stroke-linejoin: miter; stroke-linecap: square;  opacity: 1.000000" clip-path="url(#p50431ccdcb28178602d99d9270004dde)" d="M76.509091 331.271263L81.018182 294.061123L85.527273 272.271793
L90.036364 256.795948L94.545455 244.779449L99.054545 234.950985
L103.563636 226.632402L108.072727 219.418900L112.581818 213.049375
L117.090909 207.345547L121.600000 202.180255L126.109091 197.459608
L130.618182 193.112305L135.127273 189.082921L139.636364 185.327519
L144.145455 181.810679L148.654545 178.503430L153.163636 175.381771
L157.672727 172.425601L162.181818 169.617909L166.690909 166.944181
L171.200000 164.391925L175.709091 161.950319L180.218182 159.609921
L184.727273 157.362447L189.236364 155.200587L193.745455 153.117860
L198.254545 151.108491L202.763636 149.167314L207.272727 147.289688
L211.781818 145.471429L216.290909 143.708751L220.800000 141.998218
L225.309091 140.336700L229.818182 138.721342L234.327273 137.149527
L238.836364 135.618857L243.345455 134.127122L247.854545 132.672287
L252.363636 131.252469L256.872727 129.865926L261.381818 128.511041
L265.890909 127.186313L270.400000 125.890343L274.909091 124.621825
L279.418182 123.379541L283.927273 122.162351L288.436364 120.969186
L292.945455 119.799046L297.454545 118.650987L301.963636 117.524124
L306.472727 116.417624L310.981818 115.330700L315.490909 114.262609
L320.000000 113.212650L324.509091 112.180158L329.018182 111.164506
L333.527273 110.165097L338.036364 109.181366L342.545455 108.212776
L347.054545 107.258816L351.563636 106.319002L356.072727 105.392871
L360.581818 104.479982L365.090909 103.579915L369.600000 102.692270
L374.109091 101.816663L378.618182 100.952728L383.127273 100.100117
L387.636364 99.258493L392.145455 98.427537L396.654545 97.606940
L401.163636 96.796409L405.672727 95.995660L410.181818 95.204423
L414.690909 94.422436L419.200000 93.649450L423.709091 92.885223
L428.218182 92.129525L432.727273 91.382131L437.236364 90.642828
L441.745455 89.911409L446.254545 89.187674L450.763636 88.471431
L455.272727 87.762495L459.781818 87.060686L464.290909 86.365832
L468.800000 85.677767L473.309091 84.996328L477.818182 84.321360
L482.327273 83.652712L486.836364 82.990238L491.345455 82.333797
L495.854545 81.683252L500.363636 81.038471L504.872727 80.399325
L509.381818 79.765690L513.890909 79.137446L518.400000 78.514475"/>
</g>
<g id="line2d5">
<path style="fill: none; stroke: #bf00bf; stroke-width: 1.000000; stroke-linejoin: miter; stroke-linecap: square;  opacity: 1.000000" clip-path="url(#p50431ccdcb28178602d99d9270004dde)" d="M76.509091 387.972459L81.018182 343.340364L85.527273 317.211942
L90.036364 298.659789L94.545455 284.258935L99.054545 272.483810
L103.563636 262.520629L108.072727 253.883632L112.581818 246.259494
L117.090909 239.434281L121.600000 233.255399L126.109091 227.610181
L130.618182 222.413065L135.127273 217.597541L139.636364 213.110886
L144.145455 208.910596L148.654545 204.961906L153.163636 201.236016
L157.672727 197.708805L162.181818 194.359861L166.690909 191.171766
L171.200000 188.129533L175.709091 185.220172L180.218182 182.432356
L184.727273 179.756144L189.236364 177.182765L193.745455 174.704441
L198.254545 172.314244L202.763636 170.005974L207.272727 167.774063
L211.781818 165.613491L216.290909 163.519714L220.800000 161.488610
L225.309091 159.516425L229.818182 157.599731L234.327273 155.735390
L238.836364 153.920524L243.345455 152.152482L247.854545 150.428821
L252.363636 148.747283L256.872727 147.105780L261.381818 145.502370
L265.890909 143.935252L270.400000 142.402747L274.909091 140.903291
L279.418182 139.435422L283.927273 137.997772L288.436364 136.589059
L292.945455 135.208081L297.454545 133.853710L301.963636 132.524883
L306.472727 131.220600L310.981818 129.939917L315.490909 128.681943
L320.000000 127.445838L324.509091 126.230806L329.018182 125.036091
L333.527273 123.860981L338.036364 122.704796L342.545455 121.566894
L347.054545 120.446662L351.563636 119.343518L356.072727 118.256908
L360.581818 117.186304L365.090909 116.131202L369.600000 115.091122
L374.109091 114.065604L378.618182 113.054210L383.127273 112.056522
L387.636364 111.072137L392.145455 110.100670L396.654545 109.141755
L401.163636 108.195038L405.672727 107.260180L410.181818 106.336856
L414.690909 105.424754L419.200000 104.523574L423.709091 103.633028
L428.218182 102.752838L432.727273 101.882737L437.236364 101.022468
L441.745455 100.171784L446.254545 99.330445L450.763636 98.498222
L455.272727 97.674892L459.781818 96.860242L464.290909 96.054064
L468.800000 95.256159L473.309091 94.466333L477.818182 93.684400
L482.327273 92.910180L486.836364 92.143497L491.345455 91.384183
L495.854545 90.632074L500.363636 89.887012L504.872727 89.148844
L509.381818 88.417420L513.890909 87.692596L518.400000 86.974232"/>
</g>
<g id="line2d6">
<defs><path id="m2ad367e54c5b90245dade10ec59f4b5c" d="M0.000000 2.500000C0.663008 2.500000 1.298950 2.236584 1.767767 1.767767
C2.236584 1.298950 2.500000 0.663008 2.500000 0.000000
C2.500000 -0.663008 2.236584 -1.298950 1.767767 -1.767767
C1.298950 -2.236584 0.663008 -2.500000 0.000000 -2.500000
C-0.663008 -2.500000 -1.298950 -2.236584 -1.767767 -1.767767
C-2.236584 -1.298950 -2.500000 -0.663008 -2.500000 0.000000
C-2.500000 0.663008 -2.236584 1.298950 -1.767767 1.767767
C-1.298950 2.236584 -0.663008 2.500000 0.000000 2.500000z"/></defs>
<g clip-path="url(#p50431ccdcb28178602d99d9270004dde)"><use style="fill: #000000; stroke: #000000; stroke-width: 0.500000; stroke-linejoin: miter; stroke-linecap: butt;  opacity: 1.000000" xlink:href="#m2ad367e54c5b90245dade10ec59f4b5c" x="86.880000" y="149.013644"/>
<use style="fill: #000000; stroke: #000000; stroke-width: 0.500000; stroke-linejoin: miter; stroke-linecap: butt;  opacity: 1.000000" xlink:href="#m2ad367e54c5b90245dade10ec59f4b5c" x="86.880000" y="185.567748"/>
<use style="fill: #000000; stroke: #000000; stroke-width: 0.500000; stroke-linejoin: miter; stroke-linecap: butt;  opacity: 1.000000" xlink:href="#m2ad367e54c5b90245dade10ec59f4b5c" x="86.880000" y="225.169931"/>
<use style="fill: #000000; stroke: #000000; stroke-width: 0.500000; stroke-linejoin: miter; stroke-linecap: butt;  opacity: 1.000000" xlink:href="#m2ad367e54c5b90245dade10ec59f4b5c" x="86.880000" y="267.146324"/>
<use style="fill: #000000; stroke: #000000; stroke-width: 0.500000; stroke-linejoin: miter; stroke-linecap: butt;  opacity: 1.000000" xlink:href="#m2ad367e54c5b90245dade10ec59f4b5c" x="86.880000" y="311.067028"/>
</g></g>
<g id="line2d7">
<g clip-path="url(#p50431ccdcb28178602d99d9270004dde)"><use style="fill: #0000ff; stroke: #000000; stroke-width: 0.500000; stroke-linejoin: miter; stroke-linecap: butt;  opacity: 1.000000" xlink:href="#m2ad367e54c5b90245dade10ec59f4b5c" x="101.760000" y="133.784975"/>
<use style="fill: #0000ff; stroke: #000000; stroke-width: 0.500000; stroke-linejoin: miter; stroke-linecap: butt;  opacity: 1.000000" xlink:href="#m2ad367e54c5b90245dade10ec59f4b5c" x="101.760000" y="163.000196"/>
<use style="fill: #0000ff; stroke: #000000; stroke-width: 0.500000; stroke-linejoin: miter; stroke-linecap: butt;  opacity: 1.000000" xlink:href="#m2ad367e54c5b90245dade10ec59f4b5c" x="101.760000" y="195.226606"/>
<use style="fill: #0000ff; stroke: #000000; stroke-width: 0.500000; stroke-linejoin: miter; stroke-linecap: butt;  opacity: 1.000000" xlink:href="#m2ad367e54c5b90245dade10ec59f4b5c" x="101.760000" y="229.808708"/>
<use style="fill: #0000ff; stroke: #000000; stroke-width: 0.500000; stroke-linejoin: miter; stroke-linecap: butt;  opacity: 1.000000" xlink:href="#m2ad367e54c5b90245dade10ec59f4b5c" x="101.760000" y="266.324538"/>
</g></g>
<g id="matplotlib.axis1">
<g id="xtick1">
<g id="line2d8">
<defs><path id="m30e32995789d870ad79a2e54c91cf9c6" d="M0.000000 0.000000L0.000000 -4.000000"/></defs>
<g ><use style="fill: none; stroke: #000000; stroke-width: 0.500000; stroke-linejoin: miter; stroke-linecap: butt;  opacity: 1.000000" xlink:href="#m30e32995789d870ad79a2e54c91cf9c6" x="72.000000" y="388.800000"/>
</g></g>
<g id="line2d9">
<defs><path id="m9281cae24120827b11d5ea8a7ad3e96b" d="M0.000000 0.000000L0.000000 4.000000"/></defs>
<g ><use style="fill: none; stroke: #000000; stroke-width: 0.500000; stroke-linejoin: miter; stroke-linecap: butt;  opacity: 1.000000" xlink:href="#m9281cae24120827b11d5ea8a7ad3e96b" x="72.000000" y="43.200000"/>
</g></g>
<defs>
<path id="c_7a2040fe3b94fcd41d0a72c84e93b115" d="M31.781250 -66.406250q-7.609375 0.000000 -11.453125 7.500000q-3.828125 7.484375 -3.828125 22.531250q0.000000 14.984375 3.828125 22.484375q3.843750 7.500000 11.453125 7.500000q7.671875 0.000000 11.500000 -7.500000q3.843750 -7.500000 3.843750 -22.484375q0.000000 -15.046875 -3.843750 -22.531250q-3.828125 -7.500000 -11.500000 -7.500000M31.781250 -74.218750q12.265625 0.000000 18.734375 9.703125q6.468750 9.687500 6.468750 28.140625q0.000000 18.406250 -6.468750 28.109375q-6.468750 9.687500 -18.734375 9.687500q-12.250000 0.000000 -18.718750 -9.687500q-6.468750 -9.703125 -6.468750 -28.109375q0.000000 -18.453125 6.468750 -28.140625q6.468750 -9.703125 18.718750 -9.703125"/>
<path id="c_ed3e21196fb739f392806f09ca0594ef" d="M10.687500 -12.406250l10.312500 0.000000l0.000000 12.406250l-10.312500 0.000000z"/>
</defs>
<g style="fill: #000000; opacity: 1.000000" transform="translate(63.250000,401.706250)scale(0.120000)">
<use xlink:href="#c_7a2040fe3b94fcd41d0a72c84e93b115"/>
<use xlink:href="#c_ed3e21196fb739f392806f09ca0594ef" x="63.623047"/>
<use xlink:href="#c_7a2040fe3b94fcd41d0a72c84e93b115" x="95.410156"/>
</g>
</g>
<g id="xtick2">
<g id="line2d10">
<g ><use style="fill: none; stroke: #000000; stroke-width: 0.500000; stroke-linejoin: miter; stroke-linecap: butt;  opacity: 1.000000" xlink:href="#m30e32995789d870ad79a2e54c91cf9c6" x="146.400000" y="388.800000"/>
</g></g>
<g id="line2d11">
<g ><use style="fill: none; stroke: #000000; stroke-width: 0.500000; stroke-linejoin: miter; stroke-linecap: butt;  opacity: 1.000000" xlink:href="#m9281cae24120827b11d5ea8a7ad3e96b" x="146.400000" y="43.200000"/>
</g></g>
<defs>
<path id="c_1260a2df50f305f3db244e29828f968e" d="M10.796875 -72.906250l38.718750 0.000000l0.000000 8.312500l-29.687500 0.000000l0.000000 17.859375q2.140625 -0.734375 4.281250 -1.093750q2.156250 -0.359375 4.312500 -0.359375q12.203125 0.000000 19.328125 6.687500q7.140625 6.687500 7.140625 18.109375q0.000000 11.765625 -7.328125 18.296875q-7.328125 6.515625 -20.656250 6.515625q-4.593750 0.000000 -9.359375 -0.781250q-4.750000 -0.781250 -9.828125 -2.343750l0.000000 -9.921875q4.390625 2.390625 9.078125 3.562500q4.687500 1.171875 9.906250 1.171875q8.453125 0.000000 13.375000 -4.437500q4.937500 -4.437500 4.937500 -12.062500q0.000000 -7.609375 -4.937500 -12.046875q-4.921875 -4.453125 -13.375000 -4.453125q-3.953125 0.000000 -7.890625 0.875000q-3.921875 0.875000 -8.015625 2.734375z"/>
</defs>
<g style="fill: #000000; opacity: 1.000000" transform="translate(137.775000,401.706250)scale(0.120000)">
<use xlink:href="#c_7a2040fe3b94fcd41d0a72c84e93b115"/>
<use xlink:href="#c_ed3e21196fb739f392806f09ca0594ef" x="63.623047"/>
<use xlink:href="#c_1260a2df50f305f3db244e29828f968e" x="95.410156"/>
</g>
</g>
<g id="xtick3">
<g id="line2d12">
<g ><use style="fill: none; stroke: #000000; stroke-width: 0.500000; stroke-linejoin: miter; stroke-linecap: butt;  opacity: 1.000000" xlink:href="#m30e32995789d870ad79a2e54c91cf9c6" x="220.800000" y="388.800000"/>
</g></g>
<g id="line2d13">
<g ><use style="fill: none; stroke: #000000; stroke-width: 0.500000; stroke-linejoin: miter; stroke-linecap: butt;  opacity: 1.000000" xlink:href="#m9281cae24120827b11d5ea8a7ad3e96b" x="220.800000" y="43.200000"/>
</g></g>
<defs>
<path id="c_42baa63129a918535c52adb20d687ea7" d="M12.406250 -8.296875l16.109375 0.000000l0.000000 -55.625000l-17.531250 3.515625l0.000000 -8.984375l17.437500 -3.515625l9.859375 0.000000l0.000000 64.609375l16.109375 0.000000l0.000000 8.296875l-41.984375 0.000000z"/>
</defs>
<g style="fill: #000000; opacity: 1.000000" transform="translate(212.307812,401.706250)scale(0.120000)">
<use xlink:href="#c_42baa63129a918535c52adb20d687ea7"/>
<use xlink:href="#c_ed3e21196fb739f392806f09ca0594ef" x="63.623047"/>
<use xlink:href="#c_7a2040fe3b94fcd41d0a72c84e93b115" x="95.410156"/>
</g>
</g>
<g id="xtick4">
<g id="line2d14">
<g ><use style="fill: none; stroke: #000000; stroke-width: 0.500000; stroke-linejoin: miter; stroke-linecap: butt;  opacity: 1.000000" xlink:href="#m30e32995789d870ad79a2e54c91cf9c6" x="295.200000" y="388.800000"/>
</g></g>
<g id="line2d15">
<g ><use style="fill: none; stroke: #000000; stroke-width: 0.500000; stroke-linejoin: miter; stroke-linecap: butt;  opacity: 1.000000" xlink:href="#m9281cae24120827b11d5ea8a7ad3e96b" x="295.200000" y="43.200000"/>
</g></g>
<g style="fill: #000000; opacity: 1.000000" transform="translate(286.832812,401.550000)scale(0.120000)">
<use xlink:href="#c_42baa63129a918535c52adb20d687ea7"/>
<use xlink:href="#c_ed3e21196fb739f392806f09ca0594ef" x="63.623047"/>
<use xlink:href="#c_1260a2df50f305f3db244e29828f968e" x="95.410156"/>
</g>
</g>
<g id="xtick5">
<g id="line2d16">
<g ><use style="fill: none; stroke: #000000; stroke-width: 0.500000; stroke-linejoin: miter; stroke-linecap: butt;  opacity: 1.000000" xlink:href="#m30e32995789d870ad79a2e54c91cf9c6" x="369.600000" y="388.800000"/>
</g></g>
<g id="line2d17">
<g ><use style="fill: none; stroke: #000000; stroke-width: 0.500000; stroke-linejoin: miter; stroke-linecap: butt;  opacity: 1.000000" xlink:href="#m9281cae24120827b11d5ea8a7ad3e96b" x="369.600000" y="43.200000"/>
</g></g>
<defs>
<path id="c_ed3f3ed3ebfbd18bcb9c012009a68ad1" d="M19.187500 -8.296875l34.421875 0.000000l0.000000 8.296875l-46.281250 0.000000l0.000000 -8.296875q5.609375 -5.812500 15.296875 -15.593750q9.703125 -9.796875 12.187500 -12.640625q4.734375 -5.312500 6.609375 -9.000000q1.890625 -3.687500 1.890625 -7.250000q0.000000 -5.812500 -4.078125 -9.468750q-4.078125 -3.671875 -10.625000 -3.671875q-4.640625 0.000000 -9.796875 1.609375q-5.140625 1.609375 -11.000000 4.890625l0.000000 -9.968750q5.953125 -2.390625 11.125000 -3.609375q5.187500 -1.218750 9.484375 -1.218750q11.328125 0.000000 18.062500 5.671875q6.734375 5.656250 6.734375 15.125000q0.000000 4.500000 -1.687500 8.531250q-1.671875 4.015625 -6.125000 9.484375q-1.218750 1.421875 -7.765625 8.187500q-6.531250 6.765625 -18.453125 18.921875"/>
</defs>
<g style="fill: #000000; opacity: 1.000000" transform="translate(360.889062,401.706250)scale(0.120000)">
<use xlink:href="#c_ed3f3ed3ebfbd18bcb9c012009a68ad1"/>
<use xlink:href="#c_ed3e21196fb739f392806f09ca0594ef" x="63.623047"/>
<use xlink:href="#c_7a2040fe3b94fcd41d0a72c84e93b115" x="95.410156"/>
</g>
</g>
<g id="xtick6">
<g id="line2d18">
<g ><use style="fill: none; stroke: #000000; stroke-width: 0.500000; stroke-linejoin: miter; stroke-linecap: butt;  opacity: 1.000000" xlink:href="#m30e32995789d870ad79a2e54c91cf9c6" x="444.000000" y="388.800000"/>
</g></g>
<g id="line2d19">
<g ><use style="fill: none; stroke: #000000; stroke-width: 0.500000; stroke-linejoin: miter; stroke-linecap: butt;  opacity: 1.000000" xlink:href="#m9281cae24120827b11d5ea8a7ad3e96b" x="444.000000" y="43.200000"/>
</g></g>
<g style="fill: #000000; opacity: 1.000000" transform="translate(435.414062,401.706250)scale(0.120000)">
<use xlink:href="#c_ed3f3ed3ebfbd18bcb9c012009a68ad1"/>
<use xlink:href="#c_ed3e21196fb739f392806f09ca0594ef" x="63.623047"/>
<use xlink:href="#c_1260a2df50f305f3db244e29828f968e" x="95.410156"/>
</g>
</g>
<g id="xtick7">
<g id="line2d20">
<g ><use style="fill: none; stroke: #000000; stroke-width: 0.500000; stroke-linejoin: miter; stroke-linecap: butt;  opacity: 1.000000" xlink:href="#m30e32995789d870ad79a2e54c91cf9c6" x="518.400000" y="388.800000"/>
</g></g>
<g id="line2d21">
<g ><use style="fill: none; stroke: #000000; stroke-width: 0.500000; stroke-linejoin: miter; stroke-linecap: butt;  opacity: 1.000000" xlink:href="#m9281cae24120827b11d5ea8a7ad3e96b" x="518.400000" y="43.200000"/>
</g></g>
<defs>
<path id="c_3dcfa38a02242cb63ec6726c6e70be7a" d="M40.578125 -39.312500q7.078125 1.515625 11.046875 6.312500q3.984375 4.781250 3.984375 11.812500q0.000000 10.781250 -7.421875 16.703125q-7.421875 5.906250 -21.093750 5.906250q-4.578125 0.000000 -9.437500 -0.906250q-4.859375 -0.906250 -10.031250 -2.718750l0.000000 -9.515625q4.093750 2.390625 8.968750 3.609375q4.890625 1.218750 10.218750 1.218750q9.265625 0.000000 14.125000 -3.656250q4.859375 -3.656250 4.859375 -10.640625q0.000000 -6.453125 -4.515625 -10.078125q-4.515625 -3.640625 -12.562500 -3.640625l-8.500000 0.000000l0.000000 -8.109375l8.890625 0.000000q7.265625 0.000000 11.125000 -2.906250q3.859375 -2.906250 3.859375 -8.375000q0.000000 -5.609375 -3.984375 -8.609375q-3.968750 -3.015625 -11.390625 -3.015625q-4.062500 0.000000 -8.703125 0.890625q-4.640625 0.875000 -10.203125 2.718750l0.000000 -8.781250q5.625000 -1.562500 10.531250 -2.343750q4.906250 -0.781250 9.250000 -0.781250q11.234375 0.000000 17.765625 5.109375q6.546875 5.093750 6.546875 13.781250q0.000000 6.062500 -3.468750 10.234375q-3.468750 4.171875 -9.859375 5.781250"/>
</defs>
<g style="fill: #000000; opacity: 1.000000" transform="translate(509.712500,401.706250)scale(0.120000)">
<use xlink:href="#c_3dcfa38a02242cb63ec6726c6e70be7a"/>
<use xlink:href="#c_ed3e21196fb739f392806f09ca0594ef" x="63.623047"/>
<use xlink:href="#c_7a2040fe3b94fcd41d0a72c84e93b115" x="95.410156"/>
</g>
</g>
<defs>
<path id="c_801fe2e877fad46da27c898b407b3b54" d="M54.890625 -54.687500l-19.781250 26.609375l20.796875 28.078125l-10.593750 0.000000l-15.921875 -21.484375l-15.906250 21.484375l-10.609375 0.000000l21.250000 -28.609375l-19.437500 -26.078125l10.593750 0.000000l14.500000 19.484375l14.500000 -19.484375z"/>
</defs>
<g style="fill: #000000; opacity: 1.000000" transform="translate(292.020312,413.440625)scale(0.120000)">
<use xlink:href="#c_801fe2e877fad46da27c898b407b3b54"/>
</g>
</g>
<g id="matplotlib.axis2">
<g id="ytick1">
<g id="line2d22">
<defs><path id="m3400efa6b1638b3fea9e19e898273957" d="M0.000000 0.000000L4.000000 0.000000"/></defs>
<g ><use style="fill: none; stroke: #000000; stroke-width: 0.500000; stroke-linejoin: miter; stroke-linecap: butt;  opacity: 1.000000" xlink:href="#m3400efa6b1638b3fea9e19e898273957" x="72.000000" y="388.800000"/>
</g></g>
<g id="line2d23">
<defs><path id="m20b58b2501143cb5e0a5e8f1ef6f1643" d="M0.000000 0.000000L-4.000000 0.000000"/></defs>
<g ><use style="fill: none; stroke: #000000; stroke-width: 0.500000; stroke-linejoin: miter; stroke-linecap: butt;  opacity: 1.000000" xlink:href="#m20b58b2501143cb5e0a5e8f1ef6f1643" x="518.400000" y="388.800000"/>
</g></g>
<defs>
<path id="c_7b26b13f539f13a4c64eef23b6952d29" d="M4.890625 -31.390625l26.312500 0.000000l0.000000 8.000000l-26.312500 0.000000z"/>
</defs>
<g id="mathtext1">
<g style="fill: #000000" transform="translate(36.000000,395.800000)">
<use xlink:href="#c_42baa63129a918535c52adb20d687ea7" transform="translate(0.000000,-1.465625)scale(0.120000)"/>
<use xlink:href="#c_7a2040fe3b94fcd41d0a72c84e93b115" transform="translate(7.634766,-1.465625)scale(0.120000)"/>
<use xlink:href="#c_7b26b13f539f13a4c64eef23b6952d29" transform="translate(15.269531,-7.765625)scale(0.084000)"/>
<use xlink:href="#c_42baa63129a918535c52adb20d687ea7" transform="translate(18.300586,-7.765625)scale(0.084000)"/>
<use xlink:href="#c_ed3f3ed3ebfbd18bcb9c012009a68ad1" transform="translate(23.644922,-7.765625)scale(0.084000)"/>
</g>
</g>
</g>
<g id="ytick2">
<g id="line2d24">
<g ><use style="fill: none; stroke: #000000; stroke-width: 0.500000; stroke-linejoin: miter; stroke-linecap: butt;  opacity: 1.000000" xlink:href="#m3400efa6b1638b3fea9e19e898273957" x="72.000000" y="364.114286"/>
</g></g>
<g id="line2d25">
<g ><use style="fill: none; stroke: #000000; stroke-width: 0.500000; stroke-linejoin: miter; stroke-linecap: butt;  opacity: 1.000000" xlink:href="#m20b58b2501143cb5e0a5e8f1ef6f1643" x="518.400000" y="364.114286"/>
</g></g>
<g id="mathtext2">
<g style="fill: #000000" transform="translate(36.000000,371.114286)">
<use xlink:href="#c_42baa63129a918535c52adb20d687ea7" transform="translate(0.000000,-1.575000)scale(0.120000)"/>
<use xlink:href="#c_7a2040fe3b94fcd41d0a72c84e93b115" transform="translate(7.634766,-1.575000)scale(0.120000)"/>
<use xlink:href="#c_7b26b13f539f13a4c64eef23b6952d29" transform="translate(15.269531,-7.875000)scale(0.084000)"/>
<use xlink:href="#c_42baa63129a918535c52adb20d687ea7" transform="translate(18.300586,-7.875000)scale(0.084000)"/>
<use xlink:href="#c_42baa63129a918535c52adb20d687ea7" transform="translate(23.644922,-7.875000)scale(0.084000)"/>
</g>
</g>
</g>
<g id="ytick3">
<g id="line2d26">
<g ><use style="fill: none; stroke: #000000; stroke-width: 0.500000; stroke-linejoin: miter; stroke-linecap: butt;  opacity: 1.000000" xlink:href="#m3400efa6b1638b3fea9e19e898273957" x="72.000000" y="339.428571"/>
</g></g>
<g id="line2d27">
<g ><use style="fill: none; stroke: #000000; stroke-width: 0.500000; stroke-linejoin: miter; stroke-linecap: butt;  opacity: 1.000000" xlink:href="#m20b58b2501143cb5e0a5e8f1ef6f1643" x="518.400000" y="339.428571"/>
</g></g>
<g id="mathtext3">
<g style="fill: #000000" transform="translate(36.000000,346.428571)">
<use xlink:href="#c_42baa63129a918535c52adb20d687ea7" transform="translate(0.000000,-1.465625)scale(0.120000)"/>
<use xlink:href="#c_7a2040fe3b94fcd41d0a72c84e93b115" transform="translate(7.634766,-1.465625)scale(0.120000)"/>
<use xlink:href="#c_7b26b13f539f13a4c64eef23b6952d29" transform="translate(15.269531,-7.765625)scale(0.084000)"/>
<use xlink:href="#c_42baa63129a918535c52adb20d687ea7" transform="translate(18.300586,-7.765625)scale(0.084000)"/>
<use xlink:href="#c_7a2040fe3b94fcd41d0a72c84e93b115" transform="translate(23.644922,-7.765625)scale(0.084000)"/>
</g>
</g>
</g>
<g id="ytick4">
<g id="line2d28">
<g ><use style="fill: none; stroke: #000000; stroke-width: 0.500000; stroke-linejoin: miter; stroke-linecap: butt;  opacity: 1.000000" xlink:href="#m3400efa6b1638b3fea9e19e898273957" x="72.000000" y="314.742857"/>
</g></g>
<g id="line2d29">
<g ><use style="fill: none; stroke: #000000; stroke-width: 0.500000; stroke-linejoin: miter; stroke-linecap: butt;  opacity: 1.000000" xlink:href="#m20b58b2501143cb5e0a5e8f1ef6f1643" x="518.400000" y="314.742857"/>
</g></g>
<defs>
<path id="c_cd96f817f3cab988d24a2b49a5577fe6" d="M10.984375 -1.515625l0.000000 -8.984375q3.718750 1.765625 7.515625 2.687500q3.812500 0.921875 7.484375 0.921875q9.765625 0.000000 14.906250 -6.562500q5.156250 -6.562500 5.890625 -19.953125q-2.828125 4.203125 -7.187500 6.453125q-4.343750 2.250000 -9.609375 2.250000q-10.937500 0.000000 -17.312500 -6.609375q-6.375000 -6.625000 -6.375000 -18.109375q0.000000 -11.218750 6.640625 -18.000000q6.640625 -6.796875 17.671875 -6.796875q12.656250 0.000000 19.312500 9.703125q6.671875 9.687500 6.671875 28.140625q0.000000 17.234375 -8.187500 27.515625q-8.171875 10.281250 -21.984375 10.281250q-3.718750 0.000000 -7.531250 -0.734375q-3.796875 -0.734375 -7.906250 -2.203125M30.609375 -32.421875q6.640625 0.000000 10.515625 -4.531250q3.890625 -4.546875 3.890625 -12.468750q0.000000 -7.859375 -3.890625 -12.421875q-3.875000 -4.562500 -10.515625 -4.562500q-6.640625 0.000000 -10.515625 4.562500q-3.875000 4.562500 -3.875000 12.421875q0.000000 7.921875 3.875000 12.468750q3.875000 4.531250 10.515625 4.531250"/>
</defs>
<g id="mathtext4">
<g style="fill: #000000" transform="translate(41.000000,321.742857)">
<use xlink:href="#c_42baa63129a918535c52adb20d687ea7" transform="translate(0.000000,-1.465625)scale(0.120000)"/>
<use xlink:href="#c_7a2040fe3b94fcd41d0a72c84e93b115" transform="translate(7.634766,-1.465625)scale(0.120000)"/>
<use xlink:href="#c_7b26b13f539f13a4c64eef23b6952d29" transform="translate(15.269531,-7.765625)scale(0.084000)"/>
<use xlink:href="#c_cd96f817f3cab988d24a2b49a5577fe6" transform="translate(18.300586,-7.765625)scale(0.084000)"/>
</g>
</g>
</g>
<g id="ytick5">
<g id="line2d30">
<g ><use style="fill: none; stroke: #000000; stroke-width: 0.500000; stroke-linejoin: miter; stroke-linecap: butt;  opacity: 1.000000" xlink:href="#m3400efa6b1638b3fea9e19e898273957" x="72.000000" y="290.057143"/>
</g></g>
<g id="line2d31">
<g ><use style="fill: none; stroke: #000000; stroke-width: 0.500000; stroke-linejoin: miter; stroke-linecap: butt;  opacity: 1.000000" xlink:href="#m20b58b2501143cb5e0a5e8f1ef6f1643" x="518.400000" y="290.057143"/>
</g></g>
<defs>
<path id="c_bef35738d52871942e50b9de9b122bab" d="M31.781250 -34.625000q-7.031250 0.000000 -11.062500 3.765625q-4.015625 3.765625 -4.015625 10.343750q0.000000 6.593750 4.015625 10.359375q4.031250 3.765625 11.062500 3.765625q7.031250 0.000000 11.078125 -3.781250q4.062500 -3.796875 4.062500 -10.343750q0.000000 -6.578125 -4.031250 -10.343750q-4.015625 -3.765625 -11.109375 -3.765625M21.921875 -38.812500q-6.343750 -1.562500 -9.890625 -5.906250q-3.531250 -4.359375 -3.531250 -10.609375q0.000000 -8.734375 6.218750 -13.812500q6.234375 -5.078125 17.062500 -5.078125q10.890625 0.000000 17.093750 5.078125q6.203125 5.078125 6.203125 13.812500q0.000000 6.250000 -3.546875 10.609375q-3.531250 4.343750 -9.828125 5.906250q7.125000 1.656250 11.093750 6.500000q3.984375 4.828125 3.984375 11.796875q0.000000 10.609375 -6.468750 16.281250q-6.468750 5.656250 -18.531250 5.656250q-12.046875 0.000000 -18.531250 -5.656250q-6.468750 -5.671875 -6.468750 -16.281250q0.000000 -6.968750 4.000000 -11.796875q4.015625 -4.843750 11.140625 -6.500000M18.312500 -54.390625q0.000000 5.656250 3.531250 8.828125q3.546875 3.171875 9.937500 3.171875q6.359375 0.000000 9.937500 -3.171875q3.593750 -3.171875 3.593750 -8.828125q0.000000 -5.671875 -3.593750 -8.843750q-3.578125 -3.171875 -9.937500 -3.171875q-6.390625 0.000000 -9.937500 3.171875q-3.531250 3.171875 -3.531250 8.843750"/>
</defs>
<g id="mathtext5">
<g style="fill: #000000" transform="translate(41.000000,297.057143)">
<use xlink:href="#c_42baa63129a918535c52adb20d687ea7" transform="translate(0.000000,-1.465625)scale(0.120000)"/>
<use xlink:href="#c_7a2040fe3b94fcd41d0a72c84e93b115" transform="translate(7.634766,-1.465625)scale(0.120000)"/>
<use xlink:href="#c_7b26b13f539f13a4c64eef23b6952d29" transform="translate(15.269531,-7.765625)scale(0.084000)"/>
<use xlink:href="#c_bef35738d52871942e50b9de9b122bab" transform="translate(18.300586,-7.765625)scale(0.084000)"/>
</g>
</g>
</g>
<g id="ytick6">
<g id="line2d32">
<g ><use style="fill: none; stroke: #000000; stroke-width: 0.500000; stroke-linejoin: miter; stroke-linecap: butt;  opacity: 1.000000" xlink:href="#m3400efa6b1638b3fea9e19e898273957" x="72.000000" y="265.371429"/>
</g></g>
<g id="line2d33">
<g ><use style="fill: none; stroke: #000000; stroke-width: 0.500000; stroke-linejoin: miter; stroke-linecap: butt;  opacity: 1.000000" xlink:href="#m20b58b2501143cb5e0a5e8f1ef6f1643" x="518.400000" y="265.371429"/>
</g></g>
<defs>
<path id="c_956f18cfdaf972f35a6c2b4aaac2532b" d="M8.203125 -72.906250l46.875000 0.000000l0.000000 4.203125l-26.468750 68.703125l-10.296875 0.000000l24.906250 -64.593750l-35.015625 0.000000z"/>
</defs>
<g id="mathtext6">
<g style="fill: #000000" transform="translate(41.000000,272.371429)">
<use xlink:href="#c_42baa63129a918535c52adb20d687ea7" transform="translate(0.000000,-1.575000)scale(0.120000)"/>
<use xlink:href="#c_7a2040fe3b94fcd41d0a72c84e93b115" transform="translate(7.634766,-1.575000)scale(0.120000)"/>
<use xlink:href="#c_7b26b13f539f13a4c64eef23b6952d29" transform="translate(15.269531,-7.875000)scale(0.084000)"/>
<use xlink:href="#c_956f18cfdaf972f35a6c2b4aaac2532b" transform="translate(18.300586,-7.875000)scale(0.084000)"/>
</g>
</g>
</g>
<g id="ytick7">
<g id="line2d34">
<g ><use style="fill: none; stroke: #000000; stroke-width: 0.500000; stroke-linejoin: miter; stroke-linecap: butt;  opacity: 1.000000" xlink:href="#m3400efa6b1638b3fea9e19e898273957" x="72.000000" y="240.685714"/>
</g></g>
<g id="line2d35">
<g ><use style="fill: none; stroke: #000000; stroke-width: 0.500000; stroke-linejoin: miter; stroke-linecap: butt;  opacity: 1.000000" xlink:href="#m20b58b2501143cb5e0a5e8f1ef6f1643" x="518.400000" y="240.685714"/>
</g></g>
<defs>
<path id="c_cc8d6d580d1b10c8632f7a42cd53db8a" d="M33.015625 -40.375000q-6.640625 0.000000 -10.531250 4.546875q-3.875000 4.531250 -3.875000 12.437500q0.000000 7.859375 3.875000 12.437500q3.890625 4.562500 10.531250 4.562500q6.640625 0.000000 10.515625 -4.562500q3.875000 -4.578125 3.875000 -12.437500q0.000000 -7.906250 -3.875000 -12.437500q-3.875000 -4.546875 -10.515625 -4.546875M52.593750 -71.296875l0.000000 8.984375q-3.718750 -1.750000 -7.500000 -2.671875q-3.781250 -0.937500 -7.500000 -0.937500q-9.765625 0.000000 -14.921875 6.593750q-5.140625 6.593750 -5.875000 19.921875q2.875000 -4.250000 7.218750 -6.515625q4.359375 -2.265625 9.578125 -2.265625q10.984375 0.000000 17.359375 6.671875q6.375000 6.656250 6.375000 18.125000q0.000000 11.234375 -6.640625 18.031250q-6.640625 6.781250 -17.671875 6.781250q-12.656250 0.000000 -19.343750 -9.687500q-6.687500 -9.703125 -6.687500 -28.109375q0.000000 -17.281250 8.203125 -27.562500q8.203125 -10.281250 22.015625 -10.281250q3.718750 0.000000 7.500000 0.734375q3.781250 0.734375 7.890625 2.187500"/>
</defs>
<g id="mathtext7">
<g style="fill: #000000" transform="translate(41.000000,247.685714)">
<use xlink:href="#c_42baa63129a918535c52adb20d687ea7" transform="translate(0.000000,-1.465625)scale(0.120000)"/>
<use xlink:href="#c_7a2040fe3b94fcd41d0a72c84e93b115" transform="translate(7.634766,-1.465625)scale(0.120000)"/>
<use xlink:href="#c_7b26b13f539f13a4c64eef23b6952d29" transform="translate(15.269531,-7.765625)scale(0.084000)"/>
<use xlink:href="#c_cc8d6d580d1b10c8632f7a42cd53db8a" transform="translate(18.300586,-7.765625)scale(0.084000)"/>
</g>
</g>
</g>
<g id="ytick8">
<g id="line2d36">
<g ><use style="fill: none; stroke: #000000; stroke-width: 0.500000; stroke-linejoin: miter; stroke-linecap: butt;  opacity: 1.000000" xlink:href="#m3400efa6b1638b3fea9e19e898273957" x="72.000000" y="216.000000"/>
</g></g>
<g id="line2d37">
<g ><use style="fill: none; stroke: #000000; stroke-width: 0.500000; stroke-linejoin: miter; stroke-linecap: butt;  opacity: 1.000000" xlink:href="#m20b58b2501143cb5e0a5e8f1ef6f1643" x="518.400000" y="216.000000"/>
</g></g>
<g id="mathtext8">
<g style="fill: #000000" transform="translate(41.000000,223.000000)">
<use xlink:href="#c_42baa63129a918535c52adb20d687ea7" transform="translate(0.000000,-1.575000)scale(0.120000)"/>
<use xlink:href="#c_7a2040fe3b94fcd41d0a72c84e93b115" transform="translate(7.634766,-1.575000)scale(0.120000)"/>
<use xlink:href="#c_7b26b13f539f13a4c64eef23b6952d29" transform="translate(15.269531,-7.875000)scale(0.084000)"/>
<use xlink:href="#c_1260a2df50f305f3db244e29828f968e" transform="translate(18.300586,-7.875000)scale(0.084000)"/>
</g>
</g>
</g>
<g id="ytick9">
<g id="line2d38">
<g ><use style="fill: none; stroke: #000000; stroke-width: 0.500000; stroke-linejoin: miter; stroke-linecap: butt;  opacity: 1.000000" xlink:href="#m3400efa6b1638b3fea9e19e898273957" x="72.000000" y="191.314286"/>
</g></g>
<g id="line2d39">
<g ><use style="fill: none; stroke: #000000; stroke-width: 0.500000; stroke-linejoin: miter; stroke-linecap: butt;  opacity: 1.000000" xlink:href="#m20b58b2501143cb5e0a5e8f1ef6f1643" x="518.400000" y="191.314286"/>
</g></g>
<defs>
<path id="c_a0416418d96557a09b8c1332d34883ba" d="M37.796875 -64.312500l-24.906250 38.921875l24.906250 0.000000zM35.203125 -72.906250l12.406250 0.000000l0.000000 47.515625l10.406250 0.000000l0.000000 8.203125l-10.406250 0.000000l0.000000 17.187500l-9.812500 0.000000l0.000000 -17.187500l-32.906250 0.000000l0.000000 -9.515625z"/>
</defs>
<g id="mathtext9">
<g style="fill: #000000" transform="translate(41.000000,198.314286)">
<use xlink:href="#c_42baa63129a918535c52adb20d687ea7" transform="translate(0.000000,-1.575000)scale(0.120000)"/>
<use xlink:href="#c_7a2040fe3b94fcd41d0a72c84e93b115" transform="translate(7.634766,-1.575000)scale(0.120000)"/>
<use xlink:href="#c_7b26b13f539f13a4c64eef23b6952d29" transform="translate(15.269531,-7.875000)scale(0.084000)"/>
<use xlink:href="#c_a0416418d96557a09b8c1332d34883ba" transform="translate(18.300586,-7.875000)scale(0.084000)"/>
</g>
</g>
</g>
<g id="ytick10">
<g id="line2d40">
<g ><use style="fill: none; stroke: #000000; stroke-width: 0.500000; stroke-linejoin: miter; stroke-linecap: butt;  opacity: 1.000000" xlink:href="#m3400efa6b1638b3fea9e19e898273957" x="72.000000" y="166.628571"/>
</g></g>
<g id="line2d41">
<g ><use style="fill: none; stroke: #000000; stroke-width: 0.500000; stroke-linejoin: miter; stroke-linecap: butt;  opacity: 1.000000" xlink:href="#m20b58b2501143cb5e0a5e8f1ef6f1643" x="518.400000" y="166.628571"/>
</g></g>
<g id="mathtext10">
<g style="fill: #000000" transform="translate(41.000000,173.628571)">
<use xlink:href="#c_42baa63129a918535c52adb20d687ea7" transform="translate(0.000000,-1.465625)scale(0.120000)"/>
<use xlink:href="#c_7a2040fe3b94fcd41d0a72c84e93b115" transform="translate(7.634766,-1.465625)scale(0.120000)"/>
<use xlink:href="#c_7b26b13f539f13a4c64eef23b6952d29" transform="translate(15.269531,-7.765625)scale(0.084000)"/>
<use xlink:href="#c_3dcfa38a02242cb63ec6726c6e70be7a" transform="translate(18.300586,-7.765625)scale(0.084000)"/>
</g>
</g>
</g>
<g id="ytick11">
<g id="line2d42">
<g ><use style="fill: none; stroke: #000000; stroke-width: 0.500000; stroke-linejoin: miter; stroke-linecap: butt;  opacity: 1.000000" xlink:href="#m3400efa6b1638b3fea9e19e898273957" x="72.000000" y="141.942857"/>
</g></g>
<g id="line2d43">
<g ><use style="fill: none; stroke: #000000; stroke-width: 0.500000; stroke-linejoin: miter; stroke-linecap: butt;  opacity: 1.000000" xlink:href="#m20b58b2501143cb5e0a5e8f1ef6f1643" x="518.400000" y="141.942857"/>
</g></g>
<g id="mathtext11">
<g style="fill: #000000" transform="translate(41.000000,148.942857)">
<use xlink:href="#c_42baa63129a918535c52adb20d687ea7" transform="translate(0.000000,-1.465625)scale(0.120000)"/>
<use xlink:href="#c_7a2040fe3b94fcd41d0a72c84e93b115" transform="translate(7.634766,-1.465625)scale(0.120000)"/>
<use xlink:href="#c_7b26b13f539f13a4c64eef23b6952d29" transform="translate(15.269531,-7.765625)scale(0.084000)"/>
<use xlink:href="#c_ed3f3ed3ebfbd18bcb9c012009a68ad1" transform="translate(18.300586,-7.765625)scale(0.084000)"/>
</g>
</g>
</g>
<g id="ytick12">
<g id="line2d44">
<g ><use style="fill: none; stroke: #000000; stroke-width: 0.500000; stroke-linejoin: miter; stroke-linecap: butt;  opacity: 1.000000" xlink:href="#m3400efa6b1638b3fea9e19e898273957" x="72.000000" y="117.257143"/>
</g></g>
<g id="line2d45">
<g ><use style="fill: none; stroke: #000000; stroke-width: 0.500000; stroke-linejoin: miter; stroke-linecap: butt;  opacity: 1.000000" xlink:href="#m20b58b2501143cb5e0a5e8f1ef6f1643" x="518.400000" y="117.257143"/>
</g></g>
<g id="mathtext12">
<g style="fill: #000000" transform="translate(41.000000,124.257143)">
<use xlink:href="#c_42baa63129a918535c52adb20d687ea7" transform="translate(0.000000,-1.575000)scale(0.120000)"/>
<use xlink:href="#c_7a2040fe3b94fcd41d0a72c84e93b115" transform="translate(7.634766,-1.575000)scale(0.120000)"/>
<use xlink:href="#c_7b26b13f539f13a4c64eef23b6952d29" transform="translate(15.269531,-7.875000)scale(0.084000)"/>
<use xlink:href="#c_42baa63129a918535c52adb20d687ea7" transform="translate(18.300586,-7.875000)scale(0.084000)"/>
</g>
</g>
</g>
<g id="ytick13">
<g id="line2d46">
<g ><use style="fill: none; stroke: #000000; stroke-width: 0.500000; stroke-linejoin: miter; stroke-linecap: butt;  opacity: 1.000000" xlink:href="#m3400efa6b1638b3fea9e19e898273957" x="72.000000" y="92.571429"/>
</g></g>
<g id="line2d47">
<g ><use style="fill: none; stroke: #000000; stroke-width: 0.500000; stroke-linejoin: miter; stroke-linecap: butt;  opacity: 1.000000" xlink:href="#m20b58b2501143cb5e0a5e8f1ef6f1643" x="518.400000" y="92.571429"/>
</g></g>
<g id="mathtext13">
<g style="fill: #000000" transform="translate(44.000000,99.571429)">
<use xlink:href="#c_42baa63129a918535c52adb20d687ea7" transform="translate(0.000000,-1.465625)scale(0.120000)"/>
<use xlink:href="#c_7a2040fe3b94fcd41d0a72c84e93b115" transform="translate(7.634766,-1.465625)scale(0.120000)"/>
<use xlink:href="#c_7a2040fe3b94fcd41d0a72c84e93b115" transform="translate(15.269531,-7.765625)scale(0.084000)"/>
</g>
</g>
</g>
<g id="ytick14">
<g id="line2d48">
<g ><use style="fill: none; stroke: #000000; stroke-width: 0.500000; stroke-linejoin: miter; stroke-linecap: butt;  opacity: 1.000000" xlink:href="#m3400efa6b1638b3fea9e19e898273957" x="72.000000" y="67.885714"/>
</g></g>
<g id="line2d49">
<g ><use style="fill: none; stroke: #000000; stroke-width: 0.500000; stroke-linejoin: miter; stroke-linecap: butt;  opacity: 1.000000" xlink:href="#m20b58b2501143cb5e0a5e8f1ef6f1643" x="518.400000" y="67.885714"/>
</g></g>
<g id="mathtext14">
<g style="fill: #000000" transform="translate(44.000000,74.885714)">
<use xlink:href="#c_42baa63129a918535c52adb20d687ea7" transform="translate(0.000000,-1.575000)scale(0.120000)"/>
<use xlink:href="#c_7a2040fe3b94fcd41d0a72c84e93b115" transform="translate(7.634766,-1.575000)scale(0.120000)"/>
<use xlink:href="#c_42baa63129a918535c52adb20d687ea7" transform="translate(15.269531,-7.875000)scale(0.084000)"/>
</g>
</g>
</g>
<g id="ytick15">
<g id="line2d50">
<g ><use style="fill: none; stroke: #000000; stroke-width: 0.500000; stroke-linejoin: miter; stroke-linecap: butt;  opacity: 1.000000" xlink:href="#m3400efa6b1638b3fea9e19e898273957" x="72.000000" y="43.200000"/>
</g></g>
<g id="line2d51">
<g ><use style="fill: none; stroke: #000000; stroke-width: 0.500000; stroke-linejoin: miter; stroke-linecap: butt;  opacity: 1.000000" xlink:href="#m20b58b2501143cb5e0a5e8f1ef6f1643" x="518.400000" y="43.200000"/>
</g></g>
<g id="mathtext15">
<g style="fill: #000000" transform="translate(44.000000,50.200000)">
<use xlink:href="#c_42baa63129a918535c52adb20d687ea7" transform="translate(0.000000,-1.465625)scale(0.120000)"/>
<use xlink:href="#c_7a2040fe3b94fcd41d0a72c84e93b115" transform="translate(7.634766,-1.465625)scale(0.120000)"/>
<use xlink:href="#c_ed3f3ed3ebfbd18bcb9c012009a68ad1" transform="translate(15.269531,-7.765625)scale(0.084000)"/>
</g>
</g>
</g>
<g id="ytick16">
<g id="line2d52">
<defs><path id="mb39cfcf7402899e54c4d755745537394" d="M0.000000 0.000000L2.000000 0.000000"/></defs>
<g ><use style="fill: none; stroke: #000000; stroke-width: 0.500000; stroke-linejoin: miter; stroke-linecap: butt;  opacity: 1.000000" xlink:href="#mb39cfcf7402899e54c4d755745537394" x="72.000000" y="388.800000"/>
</g></g>
<g id="line2d53">
<defs><path id="m6046ccd8b6d57b9fb587e3fdd930e9c5" d="M0.000000 0.000000L-2.000000 0.000000"/></defs>
<g ><use style="fill: none; stroke: #000000; stroke-width: 0.500000; stroke-linejoin: miter; stroke-linecap: butt;  opacity: 1.000000" xlink:href="#m6046ccd8b6d57b9fb587e3fdd930e9c5" x="518.400000" y="388.800000"/>
</g></g>
</g>
<g id="ytick17">
<g id="line2d54">
<g ><use style="fill: none; stroke: #000000; stroke-width: 0.500000; stroke-linejoin: miter; stroke-linecap: butt;  opacity: 1.000000" xlink:href="#mb39cfcf7402899e54c4d755745537394" x="72.000000" y="364.114286"/>
</g></g>
<g id="line2d55">
<g ><use style="fill: none; stroke: #000000; stroke-width: 0.500000; stroke-linejoin: miter; stroke-linecap: butt;  opacity: 1.000000" xlink:href="#m6046ccd8b6d57b9fb587e3fdd930e9c5" x="518.400000" y="364.114286"/>
</g></g>
</g>
<g id="ytick18">
<g id="line2d56">
<g ><use style="fill: none; stroke: #000000; stroke-width: 0.500000; stroke-linejoin: miter; stroke-linecap: butt;  opacity: 1.000000" xlink:href="#mb39cfcf7402899e54c4d755745537394" x="72.000000" y="339.428571"/>
</g></g>
<g id="line2d57">
<g ><use style="fill: none; stroke: #000000; stroke-width: 0.500000; stroke-linejoin: miter; stroke-linecap: butt;  opacity: 1.000000" xlink:href="#m6046ccd8b6d57b9fb587e3fdd930e9c5" x="518.400000" y="339.428571"/>
</g></g>
</g>
<g id="ytick19">
<g id="line2d58">
<g ><use style="fill: none; stroke: #000000; stroke-width: 0.500000; stroke-linejoin: miter; stroke-linecap: butt;  opacity: 1.000000" xlink:href="#mb39cfcf7402899e54c4d755745537394" x="72.000000" y="314.742857"/>
</g></g>
<g id="line2d59">
<g ><use style="fill: none; stroke: #000000; stroke-width: 0.500000; stroke-linejoin: miter; stroke-linecap: butt;  opacity: 1.000000" xlink:href="#m6046ccd8b6d57b9fb587e3fdd930e9c5" x="518.400000" y="314.742857"/>
</g></g>
</g>
<g id="ytick20">
<g id="line2d60">
<g ><use style="fill: none; stroke: #000000; stroke-width: 0.500000; stroke-linejoin: miter; stroke-linecap: butt;  opacity: 1.000000" xlink:href="#mb39cfcf7402899e54c4d755745537394" x="72.000000" y="290.057143"/>
</g></g>
<g id="line2d61">
<g ><use style="fill: none; stroke: #000000; stroke-width: 0.500000; stroke-linejoin: miter; stroke-linecap: butt;  opacity: 1.000000" xlink:href="#m6046ccd8b6d57b9fb587e3fdd930e9c5" x="518.400000" y="290.057143"/>
</g></g>
</g>
<g id="ytick21">
<g id="line2d62">
<g ><use style="fill: none; stroke: #000000; stroke-width: 0.500000; stroke-linejoin: miter; stroke-linecap: butt;  opacity: 1.000000" xlink:href="#mb39cfcf7402899e54c4d755745537394" x="72.000000" y="265.371429"/>
</g></g>
<g id="line2d63">
<g ><use style="fill: none; stroke: #000000; stroke-width: 0.500000; stroke-linejoin: miter; stroke-linecap: butt;  opacity: 1.000000" xlink:href="#m6046ccd8b6d57b9fb587e3fdd930e9c5" x="518.400000" y="265.371429"/>
</g></g>
</g>
<g id="ytick22">
<g id="line2d64">
<g ><use style="fill: none; stroke: #000000; stroke-width: 0.500000; stroke-linejoin: miter; stroke-linecap: butt;  opacity: 1.000000" xlink:href="#mb39cfcf7402899e54c4d755745537394" x="72.000000" y="240.685714"/>
</g></g>
<g id="line2d65">
<g ><use style="fill: none; stroke: #000000; stroke-width: 0.500000; stroke-linejoin: miter; stroke-linecap: butt;  opacity: 1.000000" xlink:href="#m6046ccd8b6d57b9fb587e3fdd930e9c5" x="518.400000" y="240.685714"/>
</g></g>
</g>
<g id="ytick23">
<g id="line2d66">
<g ><use style="fill: none; stroke: #000000; stroke-width: 0.500000; stroke-linejoin: miter; stroke-linecap: butt;  opacity: 1.000000" xlink:href="#mb39cfcf7402899e54c4d755745537394" x="72.000000" y="216.000000"/>
</g></g>
<g id="line2d67">
<g ><use style="fill: none; stroke: #000000; stroke-width: 0.500000; stroke-linejoin: miter; stroke-linecap: butt;  opacity: 1.000000" xlink:href="#m6046ccd8b6d57b9fb587e3fdd930e9c5" x="518.400000" y="216.000000"/>
</g></g>
</g>
<g id="ytick24">
<g id="line2d68">
<g ><use style="fill: none; stroke: #000000; stroke-width: 0.500000; stroke-linejoin: miter; stroke-linecap: butt;  opacity: 1.000000" xlink:href="#mb39cfcf7402899e54c4d755745537394" x="72.000000" y="191.314286"/>
</g></g>
<g id="line2d69">
<g ><use style="fill: none; stroke: #000000; stroke-width: 0.500000; stroke-linejoin: miter; stroke-linecap: butt;  opacity: 1.000000" xlink:href="#m6046ccd8b6d57b9fb587e3fdd930e9c5" x="518.400000" y="191.314286"/>
</g></g>
</g>
<g id="ytick25">
<g id="line2d70">
<g ><use style="fill: none; stroke: #000000; stroke-width: 0.500000; stroke-linejoin: miter; stroke-linecap: butt;  opacity: 1.000000" xlink:href="#mb39cfcf7402899e54c4d755745537394" x="72.000000" y="166.628571"/>
</g></g>
<g id="line2d71">
<g ><use style="fill: none; stroke: #000000; stroke-width: 0.500000; stroke-linejoin: miter; stroke-linecap: butt;  opacity: 1.000000" xlink:href="#m6046ccd8b6d57b9fb587e3fdd930e9c5" x="518.400000" y="166.628571"/>
</g></g>
</g>
<g id="ytick26">
<g id="line2d72">
<g ><use style="fill: none; stroke: #000000; stroke-width: 0.500000; stroke-linejoin: miter; stroke-linecap: butt;  opacity: 1.000000" xlink:href="#mb39cfcf7402899e54c4d755745537394" x="72.000000" y="141.942857"/>
</g></g>
<g id="line2d73">
<g ><use style="fill: none; stroke: #000000; stroke-width: 0.500000; stroke-linejoin: miter; stroke-linecap: butt;  opacity: 1.000000" xlink:href="#m6046ccd8b6d57b9fb587e3fdd930e9c5" x="518.400000" y="141.942857"/>
</g></g>
</g>
<g id="ytick27">
<g id="line2d74">
<g ><use style="fill: none; stroke: #000000; stroke-width: 0.500000; stroke-linejoin: miter; stroke-linecap: butt;  opacity: 1.000000" xlink:href="#mb39cfcf7402899e54c4d755745537394" x="72.000000" y="117.257143"/>
</g></g>
<g id="line2d75">
<g ><use style="fill: none; stroke: #000000; stroke-width: 0.500000; stroke-linejoin: miter; stroke-linecap: butt;  opacity: 1.000000" xlink:href="#m6046ccd8b6d57b9fb587e3fdd930e9c5" x="518.400000" y="117.257143"/>
</g></g>
</g>
<g id="ytick28">
<g id="line2d76">
<g ><use style="fill: none; stroke: #000000; stroke-width: 0.500000; stroke-linejoin: miter; stroke-linecap: butt;  opacity: 1.000000" xlink:href="#mb39cfcf7402899e54c4d755745537394" x="72.000000" y="92.571429"/>
</g></g>
<g id="line2d77">
<g ><use style="fill: none; stroke: #000000; stroke-width: 0.500000; stroke-linejoin: miter; stroke-linecap: butt;  opacity: 1.000000" xlink:href="#m6046ccd8b6d57b9fb587e3fdd930e9c5" x="518.400000" y="92.571429"/>
</g></g>
</g>
<g id="ytick29">
<g id="line2d78">
<g ><use style="fill: none; stroke: #000000; stroke-width: 0.500000; stroke-linejoin: miter; stroke-linecap: butt;  opacity: 1.000000" xlink:href="#mb39cfcf7402899e54c4d755745537394" x="72.000000" y="67.885714"/>
</g></g>
<g id="line2d79">
<g ><use style="fill: none; stroke: #000000; stroke-width: 0.500000; stroke-linejoin: miter; stroke-linecap: butt;  opacity: 1.000000" xlink:href="#m6046ccd8b6d57b9fb587e3fdd930e9c5" x="518.400000" y="67.885714"/>
</g></g>
</g>
<g id="ytick30">
<g id="line2d80">
<g ><use style="fill: none; stroke: #000000; stroke-width: 0.500000; stroke-linejoin: miter; stroke-linecap: butt;  opacity: 1.000000" xlink:href="#mb39cfcf7402899e54c4d755745537394" x="72.000000" y="43.200000"/>
</g></g>
<g id="line2d81">
<g ><use style="fill: none; stroke: #000000; stroke-width: 0.500000; stroke-linejoin: miter; stroke-linecap: butt;  opacity: 1.000000" xlink:href="#m6046ccd8b6d57b9fb587e3fdd930e9c5" x="518.400000" y="43.200000"/>
</g></g>
</g>
<defs>
<path id="c_d0e9685c400095fadecacf1c50b32774" d="M24.906250 1.125000q-6.109375 0.000000 -11.218750 -3.203125q-5.093750 -3.203125 -8.000000 -8.546875q-2.906250 -5.343750 -2.906250 -11.296875q0.000000 -5.859375 2.656250 -11.125000q2.671875 -5.281250 7.421875 -8.531250q4.765625 -3.250000 10.625000 -3.250000q4.593750 0.000000 7.984375 1.546875q3.390625 1.531250 5.593750 4.265625q2.203125 2.734375 3.312500 6.453125q1.125000 3.703125 1.125000 8.140625q0.000000 1.328125 -1.015625 1.328125l-28.953125 0.000000l0.000000 1.078125q0.000000 8.296875 3.343750 14.250000q3.343750 5.953125 10.906250 5.953125q3.078125 0.000000 5.687500 -1.359375q2.609375 -1.375000 4.531250 -3.812500q1.937500 -2.437500 2.625000 -5.218750q0.093750 -0.343750 0.359375 -0.609375q0.281250 -0.281250 0.609375 -0.281250l0.890625 0.000000q1.015625 0.000000 1.015625 1.281250q-1.406250 5.656250 -6.093750 9.296875q-4.687500 3.640625 -10.500000 3.640625M11.625000 -25.593750l22.796875 0.000000q0.000000 -3.750000 -1.046875 -7.609375q-1.046875 -3.859375 -3.500000 -6.421875q-2.437500 -2.562500 -6.390625 -2.562500q-5.656250 0.000000 -8.765625 5.296875q-3.093750 5.296875 -3.093750 11.296875"/>
<path id="c_ead8a9882d1bc7c13cc26da41fc1edce" d="M1.218750 -0.000000l0.000000 -3.515625q3.812500 0.000000 7.171875 -1.484375q3.375000 -1.500000 5.718750 -4.421875l9.078125 -11.578125l-11.812500 -15.375000q-1.750000 -2.203125 -3.828125 -2.703125q-2.078125 -0.515625 -5.843750 -0.515625l0.000000 -3.515625l20.812500 0.000000l0.000000 3.515625q-1.328125 0.000000 -2.484375 0.593750q-1.140625 0.578125 -1.140625 1.687500q0.000000 0.390625 0.296875 0.937500l8.015625 10.390625l6.000000 -7.703125q1.218750 -1.468750 1.218750 -2.937500q0.000000 -1.218750 -0.812500 -2.093750q-0.796875 -0.875000 -2.109375 -0.875000l0.000000 -3.515625l18.406250 0.000000l0.000000 3.515625q-3.859375 0.000000 -7.250000 1.484375q-3.390625 1.484375 -5.734375 4.421875l-7.921875 10.109375l12.796875 16.890625q1.906250 2.187500 3.953125 2.687500q2.046875 0.484375 5.859375 0.484375l0.000000 3.515625l-20.796875 0.000000l0.000000 -3.515625q1.218750 0.000000 2.343750 -0.578125q1.125000 -0.593750 1.125000 -1.718750q0.000000 -0.437500 -0.296875 -0.875000l-8.984375 -11.921875l-7.171875 9.187500q-1.125000 1.265625 -1.125000 2.921875q0.000000 1.218750 0.828125 2.109375q0.828125 0.875000 1.953125 0.875000l0.000000 3.515625z"/>
<path id="c_a739b3bfb42c2d3b3203b17ba1ec2529" d="M2.593750 19.390625l0.000000 -3.468750q3.406250 0.000000 5.609375 -0.593750q2.203125 -0.578125 2.203125 -2.625000l0.000000 -48.203125q0.000000 -2.734375 -1.953125 -3.406250q-1.953125 -0.687500 -5.859375 -0.687500l0.000000 -3.515625l14.796875 -1.078125l0.000000 6.203125q2.734375 -3.031250 6.359375 -4.609375q3.640625 -1.593750 7.750000 -1.593750q5.906250 0.000000 10.640625 3.203125q4.734375 3.187500 7.390625 8.390625q2.671875 5.203125 2.671875 11.015625q0.000000 6.046875 -2.953125 11.281250q-2.953125 5.218750 -8.062500 8.328125q-5.109375 3.093750 -11.203125 3.093750q-7.281250 0.000000 -12.312500 -5.906250l0.000000 17.484375q0.000000 2.046875 2.218750 2.625000q2.234375 0.593750 5.593750 0.593750l0.000000 3.468750zM17.671875 -9.718750q1.765625 3.562500 4.890625 5.890625q3.125000 2.312500 6.828125 2.312500q3.468750 0.000000 6.125000 -1.843750q2.671875 -1.859375 4.468750 -4.984375q1.812500 -3.125000 2.656250 -6.562500q0.859375 -3.453125 0.859375 -6.671875q0.000000 -4.015625 -1.437500 -8.671875q-1.437500 -4.656250 -4.390625 -7.859375q-2.953125 -3.203125 -7.156250 -3.203125q-4.046875 0.000000 -7.453125 2.078125q-3.390625 2.078125 -5.390625 5.640625z"/>
<path id="c_06a7a4502300c60b4feec85758ecf628" d="M31.000000 24.812500q-5.562500 -4.406250 -9.593750 -10.093750q-4.015625 -5.687500 -6.593750 -12.140625q-2.562500 -6.437500 -3.828125 -13.468750q-1.265625 -7.031250 -1.265625 -14.109375q0.000000 -7.171875 1.265625 -14.203125q1.265625 -7.031250 3.875000 -13.531250q2.625000 -6.500000 6.671875 -12.156250q4.062500 -5.671875 9.468750 -9.921875q0.000000 -0.187500 0.500000 -0.187500l0.921875 0.000000q0.296875 0.000000 0.531250 0.265625q0.250000 0.265625 0.250000 0.609375q0.000000 0.437500 -0.187500 0.640625q-4.890625 4.781250 -8.140625 10.250000q-3.250000 5.468750 -5.234375 11.656250q-1.968750 6.171875 -2.843750 12.796875q-0.875000 6.609375 -0.875000 13.781250q0.000000 31.781250 16.984375 48.296875q0.296875 0.281250 0.296875 0.828125q0.000000 0.234375 -0.265625 0.546875q-0.265625 0.328125 -0.515625 0.328125l-0.921875 0.000000q-0.500000 0.000000 -0.500000 -0.187500"/>
<path id="c_277960698c3e9ebfcde4d2161536ce57" d="M7.812500 -2.875000q1.765625 1.359375 4.984375 1.359375q3.125000 0.000000 5.515625 -3.000000q2.390625 -3.000000 3.265625 -6.562500l4.546875 -17.734375q1.078125 -4.828125 1.078125 -6.593750q0.000000 -2.484375 -1.390625 -4.343750q-1.390625 -1.859375 -3.890625 -1.859375q-3.171875 0.000000 -5.953125 1.984375q-2.781250 1.984375 -4.687500 5.031250q-1.906250 3.046875 -2.687500 6.171875q-0.187500 0.640625 -0.781250 0.640625l-1.218750 0.000000q-0.781250 0.000000 -0.781250 -0.937500l0.000000 -0.281250q0.968750 -3.718750 3.312500 -7.250000q2.343750 -3.546875 5.734375 -5.734375q3.406250 -2.203125 7.265625 -2.203125q3.656250 0.000000 6.609375 1.953125q2.953125 1.953125 4.171875 5.312500q1.718750 -3.062500 4.375000 -5.156250q2.656250 -2.109375 5.828125 -2.109375q2.156250 0.000000 4.390625 0.765625q2.250000 0.750000 3.671875 2.312500q1.421875 1.562500 1.421875 3.906250q0.000000 2.531250 -1.640625 4.375000q-1.640625 1.828125 -4.171875 1.828125q-1.609375 0.000000 -2.687500 -1.031250q-1.078125 -1.031250 -1.078125 -2.593750q0.000000 -2.093750 1.437500 -3.671875q1.453125 -1.593750 3.453125 -1.890625q-1.812500 -1.421875 -4.984375 -1.421875q-3.218750 0.000000 -5.593750 2.984375q-2.359375 2.984375 -3.343750 6.640625l-4.390625 17.671875q-1.078125 4.015625 -1.078125 6.593750q0.000000 2.546875 1.437500 4.375000q1.437500 1.828125 3.843750 1.828125q4.687500 0.000000 8.359375 -4.125000q3.687500 -4.125000 4.859375 -9.062500q0.203125 -0.578125 0.781250 -0.578125l1.234375 0.000000q0.390625 0.000000 0.625000 0.265625q0.250000 0.265625 0.250000 0.609375q0.000000 0.093750 -0.093750 0.296875q-1.421875 5.953125 -5.968750 10.593750q-4.531250 4.640625 -10.250000 4.640625q-3.656250 0.000000 -6.609375 -1.968750q-2.953125 -1.984375 -4.187500 -5.359375q-1.562500 2.937500 -4.328125 5.140625q-2.750000 2.187500 -5.875000 2.187500q-2.140625 0.000000 -4.421875 -0.765625q-2.265625 -0.750000 -3.687500 -2.312500q-1.406250 -1.562500 -1.406250 -3.953125q0.000000 -2.343750 1.625000 -4.265625q1.640625 -1.937500 4.093750 -1.937500q1.656250 0.000000 2.781250 1.000000q1.125000 1.000000 1.125000 2.609375q0.000000 2.109375 -1.406250 3.671875q-1.390625 1.562500 -3.484375 1.953125"/>
<path id="c_b865a8a4692360a5eaaff4ecf56eccf7" d="M6.500000 25.000000q-0.890625 0.000000 -0.890625 -0.875000q0.000000 -0.437500 0.203125 -0.640625q17.093750 -16.703125 17.093750 -48.484375q0.000000 -31.781250 -16.906250 -48.296875q-0.390625 -0.234375 -0.390625 -0.828125q0.000000 -0.343750 0.265625 -0.609375q0.281250 -0.265625 0.625000 -0.265625l0.921875 0.000000q0.296875 0.000000 0.484375 0.187500q7.187500 5.671875 11.968750 13.781250q4.781250 8.093750 7.000000 17.281250q2.234375 9.171875 2.234375 18.750000q0.000000 7.078125 -1.203125 13.937500q-1.203125 6.859375 -3.812500 13.515625q-2.609375 6.671875 -6.609375 12.312500q-4.000000 5.640625 -9.578125 10.046875q-0.187500 0.187500 -0.484375 0.187500z"/>
<path id="c_61c20b1e4c944de7566e5fda525fb070" d="M10.203125 -23.000000q-0.828125 0.000000 -1.375000 -0.625000q-0.531250 -0.640625 -0.531250 -1.375000q0.000000 -0.734375 0.531250 -1.359375q0.546875 -0.640625 1.375000 -0.640625l57.375000 0.000000q0.781250 0.000000 1.296875 0.640625q0.515625 0.625000 0.515625 1.359375q0.000000 0.734375 -0.515625 1.375000q-0.515625 0.625000 -1.296875 0.625000z"/>
<path id="c_41ca5aef8d35678d32556543f5c72902" d="M-2.484375 19.390625q-0.937500 0.000000 -0.937500 -1.281250q0.343750 -2.187500 1.328125 -2.187500q3.125000 0.000000 4.359375 -0.562500q1.250000 -0.562500 1.937500 -2.859375l11.281250 -45.015625q0.734375 -1.859375 0.734375 -4.796875q0.000000 -4.296875 -2.937500 -4.296875q-3.125000 0.000000 -4.640625 3.750000q-1.515625 3.734375 -2.921875 9.437500q0.000000 0.640625 -0.828125 0.640625l-1.171875 0.000000q-0.250000 0.000000 -0.546875 -0.359375q-0.296875 -0.375000 -0.296875 -0.671875q1.078125 -4.343750 2.078125 -7.359375q1.000000 -3.031250 3.125000 -5.515625q2.125000 -2.500000 5.296875 -2.500000q3.421875 0.000000 6.000000 1.937500q2.593750 1.921875 3.328125 5.234375q2.734375 -3.171875 6.046875 -5.171875q3.328125 -2.000000 6.843750 -2.000000q4.203125 0.000000 7.296875 2.250000q3.109375 2.234375 4.671875 5.875000q1.562500 3.640625 1.562500 7.843750q0.000000 6.437500 -3.296875 13.328125q-3.296875 6.875000 -8.937500 11.453125q-5.640625 4.562500 -12.078125 4.562500q-2.937500 0.000000 -5.312500 -1.656250q-2.359375 -1.671875 -3.671875 -4.359375l-4.546875 17.781250q-0.250000 1.468750 -0.296875 1.703125q0.000000 1.328125 6.593750 1.328125q1.031250 0.000000 1.031250 1.265625q-0.343750 1.312500 -0.562500 1.750000q-0.218750 0.453125 -1.156250 0.453125zM24.906250 -1.515625q3.468750 0.000000 6.437500 -2.859375q2.984375 -2.859375 4.843750 -6.421875q1.359375 -2.687500 2.546875 -6.562500q1.203125 -3.875000 2.078125 -8.265625q0.890625 -4.406250 0.890625 -7.000000q0.000000 -2.281250 -0.609375 -4.281250q-0.609375 -2.015625 -2.000000 -3.359375q-1.390625 -1.343750 -3.687500 -1.343750q-3.671875 0.000000 -6.921875 2.625000q-3.234375 2.609375 -5.875000 6.468750l0.000000 0.343750l-5.515625 22.062500q0.687500 3.562500 2.640625 6.078125q1.953125 2.515625 5.171875 2.515625"/>
<path id="c_4e79783b4799b416f9678acefc53a48a" d="M7.718750 -1.703125q0.000000 -0.593750 0.093750 -0.890625l7.468750 -29.828125q0.734375 -2.781250 0.734375 -4.890625q0.000000 -4.296875 -2.921875 -4.296875q-3.125000 0.000000 -4.640625 3.750000q-1.515625 3.734375 -2.937500 9.437500q0.000000 0.296875 -0.296875 0.468750q-0.281250 0.171875 -0.531250 0.171875l-1.171875 0.000000q-0.343750 0.000000 -0.593750 -0.359375q-0.234375 -0.375000 -0.234375 -0.671875q1.078125 -4.343750 2.078125 -7.359375q1.000000 -3.031250 3.125000 -5.515625q2.125000 -2.500000 5.296875 -2.500000q3.750000 0.000000 6.625000 2.375000q2.890625 2.359375 2.890625 6.015625q2.984375 -3.906250 6.984375 -6.140625q4.000000 -2.250000 8.500000 -2.250000q3.562500 0.000000 6.140625 1.218750q2.593750 1.218750 4.031250 3.687500q1.453125 2.468750 1.453125 5.875000q0.000000 4.109375 -1.843750 9.921875q-1.828125 5.812500 -4.562500 12.984375q-1.406250 3.265625 -1.406250 6.000000q0.000000 2.984375 2.281250 2.984375q3.906250 0.000000 6.515625 -4.187500q2.625000 -4.203125 3.703125 -9.000000q0.187500 -0.578125 0.828125 -0.578125l1.171875 0.000000q0.390625 0.000000 0.656250 0.250000q0.265625 0.234375 0.265625 0.625000q0.000000 0.093750 -0.093750 0.296875q-1.375000 5.656250 -4.765625 10.453125q-3.390625 4.781250 -8.468750 4.781250q-3.515625 0.000000 -6.015625 -2.421875q-2.484375 -2.421875 -2.484375 -5.875000q0.000000 -1.859375 0.781250 -3.906250q1.265625 -3.281250 2.906250 -7.812500q1.640625 -4.546875 2.687500 -8.687500q1.046875 -4.156250 1.046875 -7.328125q0.000000 -2.796875 -1.156250 -4.750000q-1.140625 -1.953125 -3.875000 -1.953125q-3.656250 0.000000 -6.734375 1.625000q-3.078125 1.609375 -5.375000 4.265625q-2.296875 2.656250 -4.187500 6.328125l-6.796875 27.187500q-0.343750 1.375000 -1.546875 2.343750q-1.187500 0.984375 -2.656250 0.984375q-1.218750 0.000000 -2.093750 -0.781250q-0.875000 -0.781250 -0.875000 -2.046875"/>
</defs>
<g id="mathtext16">
<g style="fill: #000000" transform="translate(31.000000,253.000000)rotate(-90.0)">
<use xlink:href="#c_d0e9685c400095fadecacf1c50b32774" transform="translate(0.000000,-4.000000)scale(0.120000)"/>
<use xlink:href="#c_ead8a9882d1bc7c13cc26da41fc1edce" transform="translate(5.326172,-4.000000)scale(0.120000)"/>
<use xlink:href="#c_a739b3bfb42c2d3b3203b17ba1ec2529" transform="translate(11.648438,-4.000000)scale(0.120000)"/>
<use xlink:href="#c_06a7a4502300c60b4feec85758ecf628" transform="translate(18.310547,-4.000000)scale(0.120000)"/>
<use xlink:href="#c_277960698c3e9ebfcde4d2161536ce57" transform="translate(22.968750,-4.000000)scale(0.120000)"/>
<use xlink:href="#c_b865a8a4692360a5eaaff4ecf56eccf7" transform="translate(29.818359,-4.000000)scale(0.120000)"/>
<use xlink:href="#c_61c20b1e4c944de7566e5fda525fb070" transform="translate(34.476562,-4.000000)scale(0.120000)"/>
<use xlink:href="#c_41ca5aef8d35678d32556543f5c72902" transform="translate(43.798828,-4.000000)scale(0.120000)"/>
<use xlink:href="#c_4e79783b4799b416f9678acefc53a48a" transform="translate(49.833984,-0.938875)scale(0.084000)"/>
<use xlink:href="#c_06a7a4502300c60b4feec85758ecf628" transform="translate(57.035156,-4.000000)scale(0.120000)"/>
<use xlink:href="#c_277960698c3e9ebfcde4d2161536ce57" transform="translate(61.693359,-4.000000)scale(0.120000)"/>
<use xlink:href="#c_b865a8a4692360a5eaaff4ecf56eccf7" transform="translate(68.542969,-4.000000)scale(0.120000)"/>
</g>
</g>
</g>
<path style="fill: none; stroke: #000000; stroke-width: 1.000000; stroke-linejoin: miter; stroke-linecap: square;  opacity: 1.000000"  d="M72.000000 388.800000L518.400000 388.800000L518.400000 43.200000
L72.000000 43.200000L72.000000 388.800000"/>
<defs>
<path id="c_dbe439baa035de1a298d0549b22269d8" d="M9.812500 -72.906250l46.093750 0.000000l0.000000 8.312500l-36.234375 0.000000l0.000000 21.578125l34.718750 0.000000l0.000000 8.296875l-34.718750 0.000000l0.000000 26.421875l37.109375 0.000000l0.000000 8.296875l-46.968750 0.000000z"/>
<path id="c_6ec8d5749226675394676a5d2a3b468b" d="M41.109375 -46.296875q-1.515625 -0.875000 -3.296875 -1.281250q-1.781250 -0.421875 -3.921875 -0.421875q-7.625000 0.000000 -11.703125 4.953125q-4.078125 4.953125 -4.078125 14.234375l0.000000 28.812500l-9.031250 0.000000l0.000000 -54.687500l9.031250 0.000000l0.000000 8.500000q2.843750 -4.984375 7.375000 -7.390625q4.546875 -2.421875 11.046875 -2.421875q0.921875 0.000000 2.046875 0.125000q1.125000 0.109375 2.484375 0.359375z"/>
<path id="c_f05dd90d41f04bb96ef1ca503cc2044b" d="M30.609375 -48.390625q-7.218750 0.000000 -11.421875 5.640625q-4.203125 5.640625 -4.203125 15.453125q0.000000 9.812500 4.171875 15.453125q4.187500 5.640625 11.453125 5.640625q7.187500 0.000000 11.375000 -5.656250q4.203125 -5.671875 4.203125 -15.437500q0.000000 -9.718750 -4.203125 -15.406250q-4.187500 -5.687500 -11.375000 -5.687500M30.609375 -56.000000q11.718750 0.000000 18.406250 7.625000q6.703125 7.609375 6.703125 21.078125q0.000000 13.421875 -6.703125 21.078125q-6.687500 7.640625 -18.406250 7.640625q-11.765625 0.000000 -18.437500 -7.640625q-6.656250 -7.656250 -6.656250 -21.078125q0.000000 -13.468750 6.656250 -21.078125q6.671875 -7.625000 18.437500 -7.625000"/>
<path id="c_d41d8cd98f00b204e9800998ecf8427e" d=""/>
<path id="c_d821beae607506e87470f334d9ff47af" d="M45.406250 -46.390625l0.000000 -29.593750l8.984375 0.000000l0.000000 75.984375l-8.984375 0.000000l0.000000 -8.203125q-2.828125 4.875000 -7.156250 7.250000q-4.312500 2.375000 -10.375000 2.375000q-9.906250 0.000000 -16.140625 -7.906250q-6.218750 -7.921875 -6.218750 -20.812500q0.000000 -12.890625 6.218750 -20.796875q6.234375 -7.906250 16.140625 -7.906250q6.062500 0.000000 10.375000 2.375000q4.328125 2.359375 7.156250 7.234375M14.796875 -27.296875q0.000000 9.906250 4.078125 15.546875q4.078125 5.640625 11.203125 5.640625q7.125000 0.000000 11.218750 -5.640625q4.109375 -5.640625 4.109375 -15.546875q0.000000 -9.906250 -4.109375 -15.546875q-4.093750 -5.640625 -11.218750 -5.640625q-7.125000 0.000000 -11.203125 5.640625q-4.078125 5.640625 -4.078125 15.546875"/>
<path id="c_0bce5afba2dc6b9024b26277c38ad8e8" d="M56.203125 -29.593750l0.000000 4.390625l-41.312500 0.000000q0.593750 9.281250 5.593750 14.140625q5.000000 4.859375 13.937500 4.859375q5.171875 0.000000 10.031250 -1.265625q4.859375 -1.265625 9.656250 -3.812500l0.000000 8.500000q-4.843750 2.046875 -9.921875 3.125000q-5.078125 1.078125 -10.296875 1.078125q-13.093750 0.000000 -20.734375 -7.609375q-7.640625 -7.625000 -7.640625 -20.625000q0.000000 -13.421875 7.250000 -21.296875q7.250000 -7.890625 19.562500 -7.890625q11.031250 0.000000 17.453125 7.109375q6.421875 7.093750 6.421875 19.296875M47.218750 -32.234375q-0.093750 -7.359375 -4.125000 -11.750000q-4.031250 -4.406250 -10.671875 -4.406250q-7.515625 0.000000 -12.031250 4.250000q-4.515625 4.250000 -5.203125 11.968750z"/>
<path id="c_5099edb83619131346ae654950954dea" d="M9.421875 -75.984375l8.984375 0.000000l0.000000 75.984375l-8.984375 0.000000z"/>
<path id="c_01d93a582460e35a7945ca50d148ffeb" d="M34.281250 -27.484375q-10.890625 0.000000 -15.093750 2.484375q-4.203125 2.484375 -4.203125 8.500000q0.000000 4.781250 3.156250 7.593750q3.156250 2.796875 8.562500 2.796875q7.484375 0.000000 12.000000 -5.296875q4.515625 -5.296875 4.515625 -14.078125l0.000000 -2.000000zM52.203125 -31.203125l0.000000 31.203125l-8.984375 0.000000l0.000000 -8.296875q-3.078125 4.968750 -7.671875 7.343750q-4.593750 2.375000 -11.234375 2.375000q-8.390625 0.000000 -13.359375 -4.718750q-4.953125 -4.718750 -4.953125 -12.625000q0.000000 -9.218750 6.171875 -13.906250q6.187500 -4.687500 18.437500 -4.687500l12.609375 0.000000l0.000000 -0.890625q0.000000 -6.203125 -4.078125 -9.593750q-4.078125 -3.390625 -11.453125 -3.390625q-4.687500 0.000000 -9.140625 1.125000q-4.437500 1.125000 -8.531250 3.375000l0.000000 -8.312500q4.921875 -1.906250 9.562500 -2.843750q4.640625 -0.953125 9.031250 -0.953125q11.875000 0.000000 17.734375 6.156250q5.859375 6.140625 5.859375 18.640625"/>
<path id="c_8e0810ad13fe20a2a87a2619799b154d" d="M44.281250 -53.078125l0.000000 8.500000q-3.796875 -1.953125 -7.906250 -2.921875q-4.093750 -0.984375 -8.500000 -0.984375q-6.687500 0.000000 -10.031250 2.046875q-3.343750 2.046875 -3.343750 6.156250q0.000000 3.125000 2.390625 4.906250q2.390625 1.781250 9.625000 3.390625l3.078125 0.687500q9.562500 2.046875 13.593750 5.781250q4.031250 3.734375 4.031250 10.421875q0.000000 7.625000 -6.031250 12.078125q-6.031250 4.437500 -16.578125 4.437500q-4.390625 0.000000 -9.156250 -0.859375q-4.765625 -0.859375 -10.031250 -2.562500l0.000000 -9.281250q4.984375 2.593750 9.812500 3.890625q4.828125 1.281250 9.578125 1.281250q6.343750 0.000000 9.750000 -2.171875q3.421875 -2.171875 3.421875 -6.125000q0.000000 -3.656250 -2.468750 -5.609375q-2.453125 -1.953125 -10.812500 -3.765625l-3.125000 -0.734375q-8.343750 -1.750000 -12.062500 -5.390625q-3.703125 -3.640625 -3.703125 -9.984375q0.000000 -7.718750 5.468750 -11.906250q5.468750 -4.203125 15.531250 -4.203125q4.968750 0.000000 9.359375 0.734375q4.406250 0.718750 8.109375 2.187500"/>
<path id="c_f15a64fcd463ef4629c48bab42cde24c" d="M18.109375 -8.203125l0.000000 29.000000l-9.031250 0.000000l0.000000 -75.484375l9.031250 0.000000l0.000000 8.296875q2.843750 -4.875000 7.156250 -7.234375q4.328125 -2.375000 10.328125 -2.375000q9.968750 0.000000 16.187500 7.906250q6.234375 7.906250 6.234375 20.796875q0.000000 12.890625 -6.234375 20.812500q-6.218750 7.906250 -16.187500 7.906250q-6.000000 0.000000 -10.328125 -2.375000q-4.312500 -2.375000 -7.156250 -7.250000M48.687500 -27.296875q0.000000 -9.906250 -4.078125 -15.546875q-4.078125 -5.640625 -11.203125 -5.640625q-7.140625 0.000000 -11.218750 5.640625q-4.078125 5.640625 -4.078125 15.546875q0.000000 9.906250 4.078125 15.546875q4.078125 5.640625 11.218750 5.640625q7.125000 0.000000 11.203125 -5.640625q4.078125 -5.640625 4.078125 -15.546875"/>
<path id="c_6a63bda47b2f3da1cec6aadd80692cfe" d="M9.421875 -54.687500l8.984375 0.000000l0.000000 54.687500l-8.984375 0.000000zM9.421875 -75.984375l8.984375 0.000000l0.000000 11.390625l-8.984375 0.000000z"/>
<path id="c_4653c6dfde66c7610eae0911760d3490" d="M52.000000 -44.187500q3.375000 -6.062500 8.062500 -8.937500q4.687500 -2.875000 11.031250 -2.875000q8.546875 0.000000 13.187500 5.984375q4.640625 5.968750 4.640625 17.000000l0.000000 33.015625l-9.031250 0.000000l0.000000 -32.718750q0.000000 -7.859375 -2.796875 -11.656250q-2.781250 -3.812500 -8.484375 -3.812500q-6.984375 0.000000 -11.046875 4.640625q-4.046875 4.625000 -4.046875 12.640625l0.000000 30.906250l-9.031250 0.000000l0.000000 -32.718750q0.000000 -7.906250 -2.781250 -11.687500q-2.781250 -3.781250 -8.593750 -3.781250q-6.890625 0.000000 -10.953125 4.656250q-4.046875 4.656250 -4.046875 12.625000l0.000000 30.906250l-9.031250 0.000000l0.000000 -54.687500l9.031250 0.000000l0.000000 8.500000q3.078125 -5.031250 7.375000 -7.421875q4.296875 -2.390625 10.203125 -2.390625q5.968750 0.000000 10.140625 3.031250q4.171875 3.015625 6.171875 8.781250"/>
<path id="c_d650c37394b681142a10dfc54356d478" d="M48.781250 -52.593750l0.000000 8.406250q-3.812500 -2.109375 -7.640625 -3.156250q-3.828125 -1.046875 -7.734375 -1.046875q-8.750000 0.000000 -13.593750 5.546875q-4.828125 5.531250 -4.828125 15.546875q0.000000 10.015625 4.828125 15.562500q4.843750 5.531250 13.593750 5.531250q3.906250 0.000000 7.734375 -1.046875q3.828125 -1.046875 7.640625 -3.156250l0.000000 8.312500q-3.765625 1.750000 -7.796875 2.625000q-4.015625 0.890625 -8.562500 0.890625q-12.359375 0.000000 -19.640625 -7.765625q-7.265625 -7.765625 -7.265625 -20.953125q0.000000 -13.375000 7.343750 -21.031250q7.359375 -7.671875 20.156250 -7.671875q4.140625 0.000000 8.093750 0.859375q3.953125 0.843750 7.671875 2.546875"/>
<path id="c_fe791a90f5471e2ab20a5ed41a7fa451" d="M54.890625 -33.015625l0.000000 33.015625l-8.984375 0.000000l0.000000 -32.718750q0.000000 -7.765625 -3.031250 -11.609375q-3.031250 -3.859375 -9.078125 -3.859375q-7.281250 0.000000 -11.484375 4.640625q-4.203125 4.625000 -4.203125 12.640625l0.000000 30.906250l-9.031250 0.000000l0.000000 -54.687500l9.031250 0.000000l0.000000 8.500000q3.234375 -4.937500 7.593750 -7.375000q4.375000 -2.437500 10.093750 -2.437500q9.421875 0.000000 14.250000 5.828125q4.843750 5.828125 4.843750 17.156250"/>
</defs>
<g style="fill: #000000; opacity: 1.000000" transform="translate(195.450000,35.293750)scale(0.144000)">
<use xlink:href="#c_dbe439baa035de1a298d0549b22269d8"/>
<use xlink:href="#c_6ec8d5749226675394676a5d2a3b468b" x="63.183594"/>
<use xlink:href="#c_6ec8d5749226675394676a5d2a3b468b" x="102.546875"/>
<use xlink:href="#c_f05dd90d41f04bb96ef1ca503cc2044b" x="141.410156"/>
<use xlink:href="#c_6ec8d5749226675394676a5d2a3b468b" x="202.591797"/>
<use xlink:href="#c_d41d8cd98f00b204e9800998ecf8427e" x="243.705078"/>
<use xlink:href="#c_d821beae607506e87470f334d9ff47af" x="275.492187"/>
<use xlink:href="#c_0bce5afba2dc6b9024b26277c38ad8e8" x="338.968750"/>
<use xlink:href="#c_d41d8cd98f00b204e9800998ecf8427e" x="400.492188"/>
<use xlink:href="#c_5099edb83619131346ae654950954dea" x="432.279297"/>
<use xlink:href="#c_01d93a582460e35a7945ca50d148ffeb" x="460.062500"/>
<use xlink:href="#c_8e0810ad13fe20a2a87a2619799b154d" x="521.341797"/>
<use xlink:href="#c_d41d8cd98f00b204e9800998ecf8427e" x="573.441406"/>
<use xlink:href="#c_01d93a582460e35a7945ca50d148ffeb" x="605.228516"/>
<use xlink:href="#c_f15a64fcd463ef4629c48bab42cde24c" x="666.507812"/>
<use xlink:href="#c_6ec8d5749226675394676a5d2a3b468b" x="729.984375"/>
<use xlink:href="#c_f05dd90d41f04bb96ef1ca503cc2044b" x="768.847656"/>
<use xlink:href="#c_801fe2e877fad46da27c898b407b3b54" x="826.904297"/>
<use xlink:href="#c_6a63bda47b2f3da1cec6aadd80692cfe" x="886.083984"/>
<use xlink:href="#c_4653c6dfde66c7610eae0911760d3490" x="913.867187"/>
<use xlink:href="#c_01d93a582460e35a7945ca50d148ffeb" x="1011.279297"/>
<use xlink:href="#c_d650c37394b681142a10dfc54356d478" x="1072.558594"/>
<use xlink:href="#c_6a63bda47b2f3da1cec6aadd80692cfe" x="1127.539062"/>
<use xlink:href="#c_f05dd90d41f04bb96ef1ca503cc2044b" x="1155.322266"/>
<use xlink:href="#c_fe791a90f5471e2ab20a5ed41a7fa451" x="1216.503906"/>
<use xlink:href="#c_0bce5afba2dc6b9024b26277c38ad8e8" x="1279.882812"/>
<use xlink:href="#c_8e0810ad13fe20a2a87a2619799b154d" x="1341.406250"/>
</g>
<g id="legend1">
<path style="fill: #ffffff; stroke: #000000; stroke-width: 1.000000; stroke-linejoin: miter; stroke-linecap: square;  opacity: 1.000000"  d="M431.172500 381.600000L511.200000 381.600000L511.200000 276.248750
L431.172500 276.248750L431.172500 381.600000z"/>
<g id="line2d82">
<path style="fill: none; stroke: #0000ff; stroke-width: 1.000000; stroke-linejoin: miter; stroke-linecap: square;  opacity: 1.000000"  d="M441.252500 287.609375L461.412500 287.609375"/>
</g>
<g id="line2d83">
</g>
<defs>
<path id="c_8c0379a31aa3b07b28207e25658c6113" d="M10.593750 -45.406250l62.593750 0.000000l0.000000 8.203125l-62.593750 0.000000zM10.593750 -25.484375l62.593750 0.000000l0.000000 8.296875l-62.593750 0.000000z"/>
</defs>
<g style="fill: #000000; opacity: 1.000000" transform="translate(477.252500,292.649375)scale(0.144000)">
<use xlink:href="#c_fe791a90f5471e2ab20a5ed41a7fa451"/>
<use xlink:href="#c_8c0379a31aa3b07b28207e25658c6113" x="63.378906"/>
<use xlink:href="#c_42baa63129a918535c52adb20d687ea7" x="147.167969"/>
</g>
<g id="line2d84">
<path style="fill: none; stroke: #008000; stroke-width: 1.000000; stroke-linejoin: miter; stroke-linecap: square;  opacity: 1.000000"  d="M441.252500 308.356250L461.412500 308.356250"/>
</g>
<g id="line2d85">
</g>
<g style="fill: #000000; opacity: 1.000000" transform="translate(477.252500,313.396250)scale(0.144000)">
<use xlink:href="#c_fe791a90f5471e2ab20a5ed41a7fa451"/>
<use xlink:href="#c_8c0379a31aa3b07b28207e25658c6113" x="63.378906"/>
<use xlink:href="#c_ed3f3ed3ebfbd18bcb9c012009a68ad1" x="147.167969"/>
</g>
<g id="line2d86">
<path style="fill: none; stroke: #ff0000; stroke-width: 1.000000; stroke-linejoin: miter; stroke-linecap: square;  opacity: 1.000000"  d="M441.252500 329.103125L461.412500 329.103125"/>
</g>
<g id="line2d87">
</g>
<g style="fill: #000000; opacity: 1.000000" transform="translate(477.252500,334.143125)scale(0.144000)">
<use xlink:href="#c_fe791a90f5471e2ab20a5ed41a7fa451"/>
<use xlink:href="#c_8c0379a31aa3b07b28207e25658c6113" x="63.378906"/>
<use xlink:href="#c_3dcfa38a02242cb63ec6726c6e70be7a" x="147.167969"/>
</g>
<g id="line2d88">
<path style="fill: none; stroke: #00bfbf; stroke-width: 1.000000; stroke-linejoin: miter; stroke-linecap: square;  opacity: 1.000000"  d="M441.252500 349.850000L461.412500 349.850000"/>
</g>
<g id="line2d89">
</g>
<g style="fill: #000000; opacity: 1.000000" transform="translate(477.252500,354.890000)scale(0.144000)">
<use xlink:href="#c_fe791a90f5471e2ab20a5ed41a7fa451"/>
<use xlink:href="#c_8c0379a31aa3b07b28207e25658c6113" x="63.378906"/>
<use xlink:href="#c_a0416418d96557a09b8c1332d34883ba" x="147.167969"/>
</g>
<g id="line2d90">
<path style="fill: none; stroke: #bf00bf; stroke-width: 1.000000; stroke-linejoin: miter; stroke-linecap: square;  opacity: 1.000000"  d="M441.252500 370.596875L461.412500 370.596875"/>
</g>
<g id="line2d91">
</g>
<g style="fill: #000000; opacity: 1.000000" transform="translate(477.252500,375.636875)scale(0.144000)">
<use xlink:href="#c_fe791a90f5471e2ab20a5ed41a7fa451"/>
<use xlink:href="#c_8c0379a31aa3b07b28207e25658c6113" x="63.378906"/>
<use xlink:href="#c_1260a2df50f305f3db244e29828f968e" x="147.167969"/>
</g>
</g>
</g>
</g>
</svg>
