<?xml version="1.0" standalone="no"?>
<!DOCTYPE svg PUBLIC "-//W3C//DTD SVG 1.1//EN"
  "http://www.w3.org/Graphics/SVG/1.1/DTD/svg11.dtd">
<!-- Created with matplotlib (http://matplotlib.sourceforge.net/) -->
<svg width="576pt" height="432pt" viewBox="0 0 576 432"
   xmlns="http://www.w3.org/2000/svg"
   xmlns:xlink="http://www.w3.org/1999/xlink"
   version="1.1"
   id="svg1">
<g id="figure1">
<path style="fill: #ffffff; stroke: #ffffff; stroke-width: 1.000000; stroke-linejoin: miter; stroke-linecap: square;  opacity: 1.000000"  d="M0.000000 432.000000L576.000000 432.000000L576.000000 0.000000
L0.000000 0.000000L0.000000 432.000000"/>
<g id="axes1">
<path style="fill: #ffffff; opacity: 1.000000"  d="M72.000000 388.800000L518.400000 388.800000L518.400000 43.200000
L72.000000 43.200000L72.000000 388.800000"/>
<g id="line2d1">
<defs>
  <clipPath id="p50431ccdcb28178602d99d9270004dde">
<rect x="72.000000" y="43.200000" width="446.400000" height="345.600000"/>
  </clipPath>
</defs><path style="fill: none; stroke: #0000ff; stroke-width: 1.000000; stroke-linejoin: miter; stroke-linecap: square;  opacity: 1.000000" clip-path="url(#p50431ccdcb28178602d99d9270004dde)" d="M72.000000 216.000000L72.446847 213.670615L72.893694 211.295160
L73.340541 208.873912L73.787387 206.407360L74.234234 203.896227
L74.681081 201.341495L75.127928 198.744429L75.574775 196.106603
L76.021622 193.429922L76.468468 190.716641L76.915315 187.969390
L77.362162 185.191187L77.809009 182.385455L78.255856 179.556024
L78.702703 176.707139L79.149550 173.843455L79.596396 170.970024
L80.043243 168.092278L80.490090 165.216001L80.936937 162.347291
L81.383784 159.492518L81.830631 156.658265L82.277477 153.851272
L82.724324 151.078363L83.171171 148.346374L83.618018 145.662075
L84.064865 143.032089L84.511712 140.462812L84.958559 137.960336
L85.405405 135.530375L85.852252 133.178198L86.299099 130.908574
L86.745946 128.725718L87.192793 126.633257L87.639640 124.634208
L88.086486 122.730957L88.533333 120.925263L88.980180 119.218267
L89.427027 117.610510L89.873874 116.101965L90.320721 114.692072
L90.767568 113.379782L91.214414 112.163604L91.661261 111.041655
L92.108108 110.011713L92.554955 109.071269L93.001802 108.217576
L93.448649 107.447699L93.895495 106.758562L94.342342 106.146988
L94.789189 105.609740L95.236036 105.143557L95.682883 104.745180
L96.129730 104.411383L96.576577 104.138994L97.023423 103.924914
L97.470270 103.766133L97.917117 103.659741L98.363964 103.602940
L98.810811 103.593048L99.257658 103.627505L99.704505 103.703876
L100.151351 103.819853L100.598198 103.973251L101.045045 104.162010
L101.491892 104.384192L101.938739 104.637978L102.385586 104.921661
L102.832432 105.233648L103.279279 105.572450L103.726126 105.936679
L104.172973 106.325045L104.619820 106.736350L105.066667 107.169482
L105.513514 107.623411L105.960360 108.097188L106.407207 108.589934
L106.854054 109.100840L107.300901 109.629163L107.747748 110.174221
L108.194595 110.735389L108.641441 111.312097L109.088288 111.903824
L109.535135 112.510099L109.981982 113.130495L110.428829 113.764625
L110.875676 114.412144L111.322523 115.072745L111.769369 115.746154
L112.216216 116.432130L112.663063 117.130466L113.109910 117.840982
L113.556757 118.563527L114.003604 119.297976L114.450450 120.044231
L114.897297 120.802216L115.344144 121.571880L115.790991 122.353193
L116.237838 123.146146L116.684685 123.950751L117.131532 124.767039
L117.578378 125.595063L118.025225 126.434890L118.472072 127.286609
L118.918919 128.150326L119.365766 129.026163L119.812613 129.914260
L120.259459 130.814775L120.706306 131.727883L121.153153 132.653773
L121.600000 133.592654L122.046847 134.544751L122.493694 135.510305
L122.940541 136.489575L123.387387 137.482837L123.834234 138.490383
L124.281081 139.512524L124.727928 140.549590L125.174775 141.601927
L125.621622 142.669900L126.068468 143.753895L126.515315 144.854315
L126.962162 145.971584L127.409009 147.106146L127.855856 148.258466
L128.302703 149.429031L128.749550 150.618349L129.196396 151.826951
L129.643243 153.055390L130.090090 154.304245L130.536937 155.574116
L130.983784 156.865632L131.430631 158.179442L131.877477 159.516226
L132.324324 160.876688L132.771171 162.261557L133.218018 163.671592
L133.664865 165.107578L134.111712 166.570328L134.558559 168.060682
L135.005405 169.579509L135.452252 171.127703L135.899099 172.706186
L136.345946 174.315907L136.792793 175.957838L137.239640 177.632975
L137.686486 179.342336L138.133333 181.086961L138.580180 182.867903
L139.027027 184.686230L139.473874 186.543022L139.920721 188.439360
L140.367568 190.376328L140.814414 192.355001L141.261261 194.376440
L141.708108 196.441682L142.154955 198.551733L142.601802 200.707552
L143.048649 202.910044L143.495495 205.160040L143.942342 207.458285
L144.389189 209.805419L144.836036 212.201958L145.282883 214.648270
L145.729730 217.144555L146.176577 219.690820L146.623423 222.286848
L147.070270 224.932177L147.517117 227.626063L147.963964 230.367456
L148.410811 233.154966L148.857658 235.986833L149.304505 238.860900
L149.751351 241.774584L150.198198 244.724852L150.645045 247.708199
L151.091892 250.720637L151.538739 253.757679L151.985586 256.814345
L152.432432 259.885161L152.879279 262.964186L153.326126 266.045029
L153.772973 269.120896L154.219820 272.184639L154.666667 275.228812
L155.113514 278.245754L155.560360 281.227662L156.007207 284.166687
L156.454054 287.055027L156.900901 289.885031L157.347748 292.649294
L157.794595 295.340760L158.241441 297.952812L158.688288 300.479358
L159.135135 302.914905L159.581982 305.254620L160.028829 307.494378
L160.475676 309.630789L160.922523 311.661221L161.369369 313.583793
L161.816216 315.397365L162.263063 317.101508L162.709910 318.696469
L163.156757 320.183114L163.603604 321.562881L164.050450 322.837715
L164.497297 324.010002L164.944144 325.082507L165.390991 326.058309
L165.837838 326.940737L166.284685 327.733310L166.731532 328.439687
L167.178378 329.063609L167.625225 329.608862L168.072072 330.079230
L168.518919 330.478465L168.965766 330.810260L169.412613 331.078216
L169.859459 331.285831L170.306306 331.436482L170.753153 331.533410
L171.200000 331.579716L171.646847 331.578352L172.093694 331.532122
L172.540541 331.443674L172.987387 331.315511L173.434234 331.149982
L173.881081 330.949296L174.327928 330.715518L174.774775 330.450578
L175.221622 330.156277L175.668468 329.834289L176.115315 329.486173
L176.562162 329.113372L177.009009 328.717226L177.455856 328.298972
L177.902703 327.859754L178.349550 327.400626L178.796396 326.922560
L179.243243 326.426450L179.690090 325.913116L180.136937 325.383309
L180.583784 324.837717L181.030631 324.276969L181.477477 323.701638
L181.924324 323.112243L182.371171 322.509256L182.818018 321.893103
L183.264865 321.264168L183.711712 320.622794L184.158559 319.969288
L184.605405 319.303922L185.052252 318.626934L185.499099 317.938532
L185.945946 317.238896L186.392793 316.528177L186.839640 315.806501
L187.286486 315.073970L187.733333 314.330662L188.180180 313.576633
L188.627027 312.811920L189.073874 312.036537L189.520721 311.250480
L189.967568 310.453728L190.414414 309.646240L190.861261 308.827959
L191.308108 307.998810L191.754955 307.158703L192.201802 306.307531
L192.648649 305.445172L193.095495 304.571489L193.542342 303.686328
L193.989189 302.789520L194.436036 301.880884L194.882883 300.960220
L195.329730 300.027314L195.776577 299.081939L196.223423 298.123850
L196.670270 297.152787L197.117117 296.168476L197.563964 295.170625
L198.010811 294.158927L198.457658 293.133059L198.904505 292.092680
L199.351351 291.037433L199.798198 289.966942L200.245045 288.880813
L200.691892 287.778636L201.138739 286.659978L201.585586 285.524390
L202.032432 284.371402L202.479279 283.200521L202.926126 282.011235
L203.372973 280.803010L203.819820 279.575290L204.266667 278.327494
L204.713514 277.059019L205.160360 275.769237L205.607207 274.457496
L206.054054 273.123117L206.500901 271.765397L206.947748 270.383605
L207.394595 268.976983L207.841441 267.544748L208.288288 266.086088
L208.735135 264.600163L209.181982 263.086106L209.628829 261.543024
L210.075676 259.969996L210.522523 258.366074L210.969369 256.730285
L211.416216 255.061634L211.863063 253.359100L212.309910 251.621645
L212.756757 249.848211L213.203604 248.037725L213.650450 246.189104
L214.097297 244.301258L214.544144 242.373095L214.990991 240.403529
L215.437838 238.391485L215.884685 236.335908L216.331532 234.235773
L216.778378 232.090095L217.225225 229.897944L217.672072 227.658453
L218.118919 225.370840L218.565766 223.034422L219.012613 220.648633
L219.459459 218.213048L219.906306 215.727403L220.353153 213.191622
L220.800000 210.605841L221.246847 207.970436L221.693694 205.286056
L222.140541 202.553648L222.587387 199.774491L223.034234 196.950224
L223.481081 194.082879L223.927928 191.174907L224.374775 188.229205
L224.821622 185.249136L225.268468 182.238548L225.715315 179.201787
L226.162162 176.143697L226.609009 173.069618L227.055856 169.985375
L227.502703 166.897246L227.949550 163.811936L228.396396 160.736521
L228.843243 157.678394L229.290090 154.645194L229.736937 151.644726
L230.183784 148.684873L230.630631 145.773496L231.077477 142.918340
L231.524324 140.126932L231.971171 137.406475L232.418018 134.763761
L232.864865 132.205075L233.311712 129.736123L233.758559 127.361964
L234.205405 125.086955L234.652252 122.914720L235.099099 120.848128
L235.545946 118.889286L235.992793 117.039552L236.439640 115.299559
L236.886486 113.669248L237.333333 112.147919L237.780180 110.734284
L238.227027 109.426525L238.673874 108.222362L239.120721 107.119114
L239.567568 106.113769L240.014414 105.203045L240.461261 104.383450
L240.908108 103.651342L241.354955 103.002976L241.801802 102.434557
L242.248649 101.942277L242.695495 101.522352L243.142342 101.171055
L243.589189 100.884737L244.036036 100.659853L244.482883 100.492979
L244.929730 100.380818L245.376577 100.320216L245.823423 100.308169
L246.270270 100.341819L246.717117 100.418464L247.163964 100.535552
L247.610811 100.690683L248.057658 100.881601L248.504505 101.106196
L248.951351 101.362494L249.398198 101.648653L249.845045 101.962959
L250.291892 102.303818L250.738739 102.669751L251.185586 103.059387
L251.632432 103.471458L252.079279 103.904791L252.526126 104.358307
L252.972973 104.831007L253.419820 105.321976L253.866667 105.830373
L254.313514 106.355425L254.760360 106.896426L255.207207 107.452730
L255.654054 108.023749L256.100901 108.608948L256.547748 109.207840
L256.994595 109.819988L257.441441 110.444994L257.888288 111.082505
L258.335135 111.732202L258.781982 112.393805L259.228829 113.067065
L259.675676 113.751765L260.122523 114.447718L260.569369 115.154764
L261.016216 115.872770L261.463063 116.601628L261.909910 117.341251
L262.356757 118.091577L262.803604 118.852564L263.250450 119.624191
L263.697297 120.406455L264.144144 121.199375L264.590991 122.002983
L265.037838 122.817332L265.484685 123.642492L265.931532 124.478546
L266.378378 125.325598L266.825225 126.183763L267.272072 127.053174
L267.718919 127.933980L268.165766 128.826342L268.612613 129.730440
L269.059459 130.646467L269.506306 131.574630L269.953153 132.515152
L270.400000 133.468273L270.846847 134.434246L271.293694 135.413340
L271.740541 136.405841L272.187387 137.412049L272.634234 138.432282
L273.081081 139.466874L273.527928 140.516176L273.974775 141.580556
L274.421622 142.660401L274.868468 143.756115L275.315315 144.868122
L275.762162 145.996864L276.209009 147.142805L276.655856 148.306426
L277.102703 149.488232L277.549550 150.688748L277.996396 151.908523
L278.443243 153.148126L278.890090 154.408152L279.336937 155.689219
L279.783784 156.991969L280.230631 158.317070L280.677477 159.665215
L281.124324 161.037125L281.571171 162.433545L282.018018 163.855249
L282.464865 165.303037L282.911712 166.777739L283.358559 168.280208
L283.805405 169.811330L284.252252 171.372013L284.699099 172.963194
L285.145946 174.585836L285.592793 176.240926L286.039640 177.929475
L286.486486 179.652513L286.933333 181.411092L287.380180 183.206278
L287.827027 185.039152L288.273874 186.910800L288.720721 188.822316
L289.167568 190.774789L289.614414 192.769300L290.061261 194.806913
L290.508108 196.888667L290.954955 199.015564L291.401802 201.188561
L291.848649 203.408552L292.295495 205.676355L292.742342 207.992698
L293.189189 210.358198L293.636036 212.773339L294.082883 215.238457
L294.529730 217.753707L294.976577 220.319046L295.423423 222.934199
L295.870270 225.598634L296.317117 228.311530L296.763964 231.071750
L297.210811 233.877807L297.657658 236.727834L298.104505 239.619556
L298.551351 242.550263L298.998198 245.516787L299.445045 248.515481
L299.891892 251.542205L300.338739 254.592320L300.785586 257.660689
L301.232432 260.741684L301.679279 263.829209L302.126126 266.916730
L302.572973 269.997317L303.019820 273.063698L303.466667 276.108325
L303.913514 279.123451L304.360360 282.101212L304.807207 285.033727
L305.254054 287.913186L305.700901 290.731962L306.147748 293.482705
L306.594595 296.158441L307.041441 298.752665L307.488288 301.259422
L307.935135 303.673381L308.381982 305.989888L308.828829 308.205012
L309.275676 310.315573L309.722523 312.319150L310.169369 314.214077
L310.616216 315.999429L311.063063 317.674982L311.509910 319.241180
L311.956757 320.699075L312.403604 322.050276L312.850450 323.296880
L313.297297 324.441412L313.744144 325.486755L314.190991 326.436090
L314.637838 327.292828L315.084685 328.060558L315.531532 328.742988
L315.978378 329.343898L316.425225 329.867097L316.872072 330.316383
L317.318919 330.695512L317.765766 331.008166L318.212613 331.257936
L318.659459 331.448299L319.106306 331.582606L319.553153 331.664069
L320.000000 331.695758L320.446847 331.680590L320.893694 331.621331
L321.340541 331.520596L321.787387 331.380847L322.234234 331.204400
L322.681081 330.993423L323.127928 330.749946L323.574775 330.475866
L324.021622 330.172948L324.468468 329.842835L324.915315 329.487053
L325.362162 329.107017L325.809009 328.704036L326.255856 328.279321
L326.702703 327.833991L327.149550 327.369076L327.596396 326.885525
L328.043243 326.384210L328.490090 325.865930L328.936937 325.331418
L329.383784 324.781346L329.830631 324.216324L330.277477 323.636908
L330.724324 323.043606L331.171171 322.436874L331.618018 321.817126
L332.064865 321.184733L332.511712 320.540028L332.958559 319.883307
L333.405405 319.214832L333.852252 318.534831L334.299099 317.843505
L334.745946 317.141024L335.192793 316.427532L335.639640 315.703148
L336.086486 314.967966L336.533333 314.222060L336.980180 313.465478
L337.427027 312.698252L337.873874 311.920389L338.320721 311.131883
L338.767568 310.332705L339.214414 309.522810L339.661261 308.702136
L340.108108 307.870606L340.554955 307.028123L341.001802 306.174578
L341.448649 305.309844L341.895495 304.433780L342.342342 303.546229
L342.789189 302.647018L343.236036 301.735962L343.682883 300.812858
L344.129730 299.877490L344.576577 298.929624L345.023423 297.969014
L345.470270 296.995397L345.917117 296.008494L346.363964 295.008011
L346.810811 293.993638L347.257658 292.965047L347.704505 291.921894
L348.151351 290.863818L348.598198 289.790440L349.045045 288.701364
L349.491892 287.596173L349.938739 286.474433L350.385586 285.335691
L350.832432 284.179471L351.279279 283.005278L351.726126 281.812596
L352.172973 280.600886L352.619820 279.369587L353.066667 278.118116
L353.513514 276.845864L353.960360 275.552199L354.407207 274.236463
L354.854054 272.897974L355.300901 271.536024L355.747748 270.149876
L356.194595 268.738770L356.641441 267.301914L357.088288 265.838494
L357.535135 264.347664L357.981982 262.828553L358.428829 261.280261
L358.875676 259.701864L359.322523 258.092409L359.769369 256.450919
L360.216216 254.776393L360.663063 253.067808L361.109910 251.324122
L361.556757 249.544273L362.003604 247.727187L362.450450 245.871778
L362.897297 243.976957L363.344144 242.041630L363.790991 240.064713
L364.237838 238.045133L364.684685 235.981840L365.131532 233.873815
L365.578378 231.720082L366.025225 229.519717L366.472072 227.271870
L366.918919 224.975773L367.365766 222.630762L367.812613 220.236292
L368.259459 217.791965L368.706306 215.297547L369.153153 212.752996
L369.600000 210.158487L370.046847 207.514442L370.493694 204.821558
L370.940541 202.080836L371.387387 199.293615L371.834234 196.461600
L372.281081 193.586894L372.727928 190.672021L373.174775 187.719959
L373.621622 184.734151L374.068468 181.718533L374.515315 178.677536
L374.962162 175.616090L375.409009 172.539621L375.855856 169.454033
L376.302703 166.365685L376.749550 163.281346L377.196396 160.208154
L377.643243 157.153551L378.090090 154.125211L378.536937 151.130961
L378.983784 148.178686L379.430631 145.276237L379.877477 142.431331
L380.324324 139.651445L380.771171 136.943720L381.218018 134.314867
L381.664865 131.771078L382.111712 129.317953L382.558559 126.960432
L383.005405 124.702750L383.452252 122.548403L383.899099 120.500126
L384.345946 118.559898L384.792793 116.728950L385.239640 115.007790
L385.686486 113.396248L386.133333 111.893517L386.580180 110.498212
L387.027027 109.208431L387.473874 108.021819L387.920721 106.935634
L388.367568 105.946810L388.814414 105.052025L389.261261 104.247758
L389.708108 103.530342L390.154955 102.896023L390.601802 102.340998
L391.048649 101.861461L391.495495 101.453635L391.942342 101.113804
L392.389189 100.838335L392.836036 100.623704L393.282883 100.466505
L393.729730 100.363467L394.176577 100.311461L394.623423 100.307506
L395.070270 100.348772L395.517117 100.432582L395.963964 100.556411
L396.410811 100.717883L396.857658 100.914768L397.304505 101.144979
L397.751351 101.406566L398.198198 101.697709L398.645045 102.016715
L399.091892 102.362010L399.538739 102.732134L399.985586 103.125735
L400.432432 103.541560L400.879279 103.978455L401.326126 104.435353
L401.772973 104.911271L402.219820 105.405307L402.666667 105.916631
L403.113514 106.444483L403.560360 106.988168L404.007207 107.547049
L404.454054 108.120549L404.900901 108.708139L405.347748 109.309344
L405.794595 109.923731L406.241441 110.550913L406.688288 111.190540
L407.135135 111.842302L407.581982 112.505923L408.028829 113.181161
L408.475676 113.867804L408.922523 114.565669L409.369369 115.274601
L409.816216 115.994472L410.263063 116.725177L410.709910 117.466634
L411.156757 118.218785L411.603604 118.981590L412.050450 119.755033
L412.497297 120.539114L412.944144 121.333853L413.390991 122.139288
L413.837838 122.955474L414.284685 123.782483L414.731532 124.620402
L415.178378 125.469335L415.625225 126.329403L416.072072 127.200741
L416.518919 128.083499L416.965766 128.977842L417.412613 129.883952
L417.859459 130.802024L418.306306 131.732268L418.753153 132.674911
L419.200000 133.630194L419.646847 134.598373L420.093694 135.579720
L420.540541 136.574522L420.987387 137.583084L421.434234 138.605726
L421.881081 139.642785L422.327928 140.694615L422.774775 141.761586
L423.221622 142.844089L423.668468 143.942531L424.115315 145.057339
L424.562162 146.188959L425.009009 147.337857L425.455856 148.504520
L425.902703 149.689454L426.349550 150.893189L426.796396 152.116277
L427.243243 153.359293L427.690090 154.622834L428.136937 155.907522
L428.583784 157.214004L429.030631 158.542952L429.477477 159.895064
L429.924324 161.271065L430.371171 162.671705L430.818018 164.097762
L431.264865 165.550041L431.711712 167.029376L432.158559 168.536626
L432.605405 170.072680L433.052252 171.638452L433.499099 173.234882
L433.945946 174.862939L434.392793 176.523612L434.839640 178.217917
L435.286486 179.946888L435.733333 181.711579L436.180180 183.513058
L436.627027 185.352408L437.073874 187.230718L437.520721 189.149079
L437.967568 191.108580L438.414414 193.110301L438.861261 195.155301
L439.308108 197.244615L439.754955 199.379238L440.201802 201.560115
L440.648649 203.788131L441.095495 206.064088L441.542342 208.388699
L441.989189 210.762557L442.436036 213.186125L442.882883 215.659710
L443.329730 218.183434L443.776577 220.757218L444.223423 223.380744
L444.670270 226.053435L445.117117 228.774420L445.563964 231.542502
L446.010811 234.356132L446.457658 237.213378L446.904505 240.111894
L447.351351 243.048892L447.798198 246.021125L448.245045 249.024864
L448.691892 252.055884L449.138739 255.109463L449.585586 258.180379
L450.032432 261.262923L450.479279 264.350924L450.926126 267.437777
L451.372973 270.516489L451.819820 273.579738L452.266667 276.619937
L452.713514 279.629311L453.160360 282.599988L453.607207 285.524091
L454.054054 288.393835L454.500901 291.201632L454.947748 293.940188
L455.394595 296.602603L455.841441 299.182459L456.288288 301.673902
L456.735135 304.071711L457.181982 306.371352L457.628829 308.569020
L458.075676 310.661662L458.522523 312.646986L458.969369 314.523452
L459.416216 316.290256L459.863063 317.947291L460.309910 319.495106
L460.756757 320.934853L461.203604 322.268227L461.650450 323.497403
L462.097297 324.624969L462.544144 325.653865L462.990991 326.587313
L463.437838 327.428761L463.884685 328.181819L464.331532 328.850212
L464.778378 329.437728L465.225225 329.948176L465.672072 330.385348
L466.118919 330.752991L466.565766 331.054773L467.012613 331.294267
L467.459459 331.474929L467.906306 331.600087L468.353153 331.672931
L468.800000 331.696504L469.246847 331.673697L469.693694 331.607253
L470.140541 331.499758L470.587387 331.353651L471.034234 331.171221
L471.481081 330.954615L471.927928 330.705840L472.374775 330.426767
L472.821622 330.119143L473.268468 329.784590L473.715315 329.424614
L474.162162 329.040612L474.609009 328.633877L475.055856 328.205604
L475.502703 327.756895L475.949550 327.288768L476.396396 326.802156
L476.843243 326.297921L477.290090 325.776849L477.736937 325.239664
L478.183784 324.687025L478.630631 324.119533L479.077477 323.537738
L479.524324 322.942136L479.971171 322.333178L480.418018 321.711269
L480.864865 321.076775L481.311712 320.430020L481.758559 319.771296
L482.205405 319.100859L482.652252 318.418932L483.099099 317.725710
L483.545946 317.021360L483.992793 316.306021L484.439640 315.579808
L484.886486 314.842811L485.333333 314.095098L485.780180 313.336718
L486.227027 312.567695L486.673874 311.788036L487.120721 310.997730
L487.567568 310.196745L488.014414 309.385035L488.461261 308.562534
L488.908108 307.729161L489.354955 306.884819L489.801802 306.029394
L490.248649 305.162757L490.695495 304.284765L491.142342 303.395257
L491.589189 302.494060L492.036036 301.580985L492.482883 300.655825
L492.929730 299.718363L493.376577 298.768364L493.823423 297.805577
L494.270270 296.829736L494.717117 295.840562L495.163964 294.837756
L495.610811 293.821005L496.057658 292.789980L496.504505 291.744333
L496.951351 290.683701L497.398198 289.607701L497.845045 288.515934
L498.291892 287.407980L498.738739 286.283403L499.185586 285.141743
L499.632432 283.982524L500.079279 282.805247L500.526126 281.609390
L500.972973 280.394413L501.419820 279.159751L501.866667 277.904814
L502.313514 276.628992L502.760360 275.331647L503.207207 274.012119
L503.654054 272.669720L504.100901 271.303737L504.547748 269.913430
L504.994595 268.498032L505.441441 267.056750L505.888288 265.588762
L506.335135 264.093220L506.781982 262.569246L507.228829 261.015937
L507.675676 259.432364L508.122523 257.817570L508.569369 256.170574
L509.016216 254.490370L509.463063 252.775933L509.909910 251.026216
L510.356757 249.240157L510.803604 247.416677L511.250450 245.554692
L511.697297 243.653108L512.144144 241.710836L512.590991 239.726791
L513.037838 237.699905L513.484685 235.629130L513.931532 233.513456
L514.378378 231.351913L514.825225 229.143590L515.272072 226.887648
L515.718919 224.583337L516.165766 222.230010L516.612613 219.827147
L517.059459 217.374375L517.506306 214.871491L517.953153 212.318487
L518.400000 209.715579"/>
</g>
<g id="matplotlib.axis1">
<g id="xtick1">
<g id="line2d2">
<defs><path id="m30e32995789d870ad79a2e54c91cf9c6" d="M0.000000 0.000000L0.000000 -4.000000"/></defs>
<g ><use style="fill: none; stroke: #000000; stroke-width: 0.500000; stroke-linejoin: miter; stroke-linecap: butt;  opacity: 1.000000" xlink:href="#m30e32995789d870ad79a2e54c91cf9c6" x="72.000000" y="388.800000"/>
</g></g>
<g id="line2d3">
<defs><path id="m9281cae24120827b11d5ea8a7ad3e96b" d="M0.000000 0.000000L0.000000 4.000000"/></defs>
<g ><use style="fill: none; stroke: #000000; stroke-width: 0.500000; stroke-linejoin: miter; stroke-linecap: butt;  opacity: 1.000000" xlink:href="#m9281cae24120827b11d5ea8a7ad3e96b" x="72.000000" y="43.200000"/>
</g></g>
<defs>
<path id="c_7a2040fe3b94fcd41d0a72c84e93b115" d="M31.781250 -66.406250q-7.609375 0.000000 -11.453125 7.500000q-3.828125 7.484375 -3.828125 22.531250q0.000000 14.984375 3.828125 22.484375q3.843750 7.500000 11.453125 7.500000q7.671875 0.000000 11.500000 -7.500000q3.843750 -7.500000 3.843750 -22.484375q0.000000 -15.046875 -3.843750 -22.531250q-3.828125 -7.500000 -11.500000 -7.500000M31.781250 -74.218750q12.265625 0.000000 18.734375 9.703125q6.468750 9.687500 6.468750 28.140625q0.000000 18.406250 -6.468750 28.109375q-6.468750 9.687500 -18.734375 9.687500q-12.250000 0.000000 -18.718750 -9.687500q-6.468750 -9.703125 -6.468750 -28.109375q0.000000 -18.453125 6.468750 -28.140625q6.468750 -9.703125 18.718750 -9.703125"/>
</defs>
<g style="fill: #000000; opacity: 1.000000" transform="translate(68.976562,401.706250)scale(0.120000)">
<use xlink:href="#c_7a2040fe3b94fcd41d0a72c84e93b115"/>
</g>
</g>
<g id="xtick2">
<g id="line2d4">
<g ><use style="fill: none; stroke: #000000; stroke-width: 0.500000; stroke-linejoin: miter; stroke-linecap: butt;  opacity: 1.000000" xlink:href="#m30e32995789d870ad79a2e54c91cf9c6" x="183.600000" y="388.800000"/>
</g></g>
<g id="line2d5">
<g ><use style="fill: none; stroke: #000000; stroke-width: 0.500000; stroke-linejoin: miter; stroke-linecap: butt;  opacity: 1.000000" xlink:href="#m9281cae24120827b11d5ea8a7ad3e96b" x="183.600000" y="43.200000"/>
</g></g>
<defs>
<path id="c_1260a2df50f305f3db244e29828f968e" d="M10.796875 -72.906250l38.718750 0.000000l0.000000 8.312500l-29.687500 0.000000l0.000000 17.859375q2.140625 -0.734375 4.281250 -1.093750q2.156250 -0.359375 4.312500 -0.359375q12.203125 0.000000 19.328125 6.687500q7.140625 6.687500 7.140625 18.109375q0.000000 11.765625 -7.328125 18.296875q-7.328125 6.515625 -20.656250 6.515625q-4.593750 0.000000 -9.359375 -0.781250q-4.750000 -0.781250 -9.828125 -2.343750l0.000000 -9.921875q4.390625 2.390625 9.078125 3.562500q4.687500 1.171875 9.906250 1.171875q8.453125 0.000000 13.375000 -4.437500q4.937500 -4.437500 4.937500 -12.062500q0.000000 -7.609375 -4.937500 -12.046875q-4.921875 -4.453125 -13.375000 -4.453125q-3.953125 0.000000 -7.890625 0.875000q-3.921875 0.875000 -8.015625 2.734375z"/>
</defs>
<g style="fill: #000000; opacity: 1.000000" transform="translate(180.764062,401.550000)scale(0.120000)">
<use xlink:href="#c_1260a2df50f305f3db244e29828f968e"/>
</g>
</g>
<g id="xtick3">
<g id="line2d6">
<g ><use style="fill: none; stroke: #000000; stroke-width: 0.500000; stroke-linejoin: miter; stroke-linecap: butt;  opacity: 1.000000" xlink:href="#m30e32995789d870ad79a2e54c91cf9c6" x="295.200000" y="388.800000"/>
</g></g>
<g id="line2d7">
<g ><use style="fill: none; stroke: #000000; stroke-width: 0.500000; stroke-linejoin: miter; stroke-linecap: butt;  opacity: 1.000000" xlink:href="#m9281cae24120827b11d5ea8a7ad3e96b" x="295.200000" y="43.200000"/>
</g></g>
<defs>
<path id="c_42baa63129a918535c52adb20d687ea7" d="M12.406250 -8.296875l16.109375 0.000000l0.000000 -55.625000l-17.531250 3.515625l0.000000 -8.984375l17.437500 -3.515625l9.859375 0.000000l0.000000 64.609375l16.109375 0.000000l0.000000 8.296875l-41.984375 0.000000z"/>
</defs>
<g style="fill: #000000; opacity: 1.000000" transform="translate(288.614062,401.706250)scale(0.120000)">
<use xlink:href="#c_42baa63129a918535c52adb20d687ea7"/>
<use xlink:href="#c_7a2040fe3b94fcd41d0a72c84e93b115" x="63.623047"/>
</g>
</g>
<g id="xtick4">
<g id="line2d8">
<g ><use style="fill: none; stroke: #000000; stroke-width: 0.500000; stroke-linejoin: miter; stroke-linecap: butt;  opacity: 1.000000" xlink:href="#m30e32995789d870ad79a2e54c91cf9c6" x="406.800000" y="388.800000"/>
</g></g>
<g id="line2d9">
<g ><use style="fill: none; stroke: #000000; stroke-width: 0.500000; stroke-linejoin: miter; stroke-linecap: butt;  opacity: 1.000000" xlink:href="#m9281cae24120827b11d5ea8a7ad3e96b" x="406.800000" y="43.200000"/>
</g></g>
<g style="fill: #000000; opacity: 1.000000" transform="translate(400.339063,401.550000)scale(0.120000)">
<use xlink:href="#c_42baa63129a918535c52adb20d687ea7"/>
<use xlink:href="#c_1260a2df50f305f3db244e29828f968e" x="63.623047"/>
</g>
</g>
<g id="xtick5">
<g id="line2d10">
<g ><use style="fill: none; stroke: #000000; stroke-width: 0.500000; stroke-linejoin: miter; stroke-linecap: butt;  opacity: 1.000000" xlink:href="#m30e32995789d870ad79a2e54c91cf9c6" x="518.400000" y="388.800000"/>
</g></g>
<g id="line2d11">
<g ><use style="fill: none; stroke: #000000; stroke-width: 0.500000; stroke-linejoin: miter; stroke-linecap: butt;  opacity: 1.000000" xlink:href="#m9281cae24120827b11d5ea8a7ad3e96b" x="518.400000" y="43.200000"/>
</g></g>
<defs>
<path id="c_ed3f3ed3ebfbd18bcb9c012009a68ad1" d="M19.187500 -8.296875l34.421875 0.000000l0.000000 8.296875l-46.281250 0.000000l0.000000 -8.296875q5.609375 -5.812500 15.296875 -15.593750q9.703125 -9.796875 12.187500 -12.640625q4.734375 -5.312500 6.609375 -9.000000q1.890625 -3.687500 1.890625 -7.250000q0.000000 -5.812500 -4.078125 -9.468750q-4.078125 -3.671875 -10.625000 -3.671875q-4.640625 0.000000 -9.796875 1.609375q-5.140625 1.609375 -11.000000 4.890625l0.000000 -9.968750q5.953125 -2.390625 11.125000 -3.609375q5.187500 -1.218750 9.484375 -1.218750q11.328125 0.000000 18.062500 5.671875q6.734375 5.656250 6.734375 15.125000q0.000000 4.500000 -1.687500 8.531250q-1.671875 4.015625 -6.125000 9.484375q-1.218750 1.421875 -7.765625 8.187500q-6.531250 6.765625 -18.453125 18.921875"/>
</defs>
<g style="fill: #000000; opacity: 1.000000" transform="translate(511.595312,401.706250)scale(0.120000)">
<use xlink:href="#c_ed3f3ed3ebfbd18bcb9c012009a68ad1"/>
<use xlink:href="#c_7a2040fe3b94fcd41d0a72c84e93b115" x="63.623047"/>
</g>
</g>
</g>
<g id="matplotlib.axis2">
<g id="ytick1">
<g id="line2d12">
<defs><path id="m3400efa6b1638b3fea9e19e898273957" d="M0.000000 0.000000L4.000000 0.000000"/></defs>
<g ><use style="fill: none; stroke: #000000; stroke-width: 0.500000; stroke-linejoin: miter; stroke-linecap: butt;  opacity: 1.000000" xlink:href="#m3400efa6b1638b3fea9e19e898273957" x="72.000000" y="388.800000"/>
</g></g>
<g id="line2d13">
<defs><path id="m20b58b2501143cb5e0a5e8f1ef6f1643" d="M0.000000 0.000000L-4.000000 0.000000"/></defs>
<g ><use style="fill: none; stroke: #000000; stroke-width: 0.500000; stroke-linejoin: miter; stroke-linecap: butt;  opacity: 1.000000" xlink:href="#m20b58b2501143cb5e0a5e8f1ef6f1643" x="518.400000" y="388.800000"/>
</g></g>
<defs>
<path id="c_6a8d56c819c37117ab4cf023bec22a5a" d="M10.593750 -35.500000l62.593750 0.000000l0.000000 8.296875l-62.593750 0.000000z"/>
<path id="c_3dcfa38a02242cb63ec6726c6e70be7a" d="M40.578125 -39.312500q7.078125 1.515625 11.046875 6.312500q3.984375 4.781250 3.984375 11.812500q0.000000 10.781250 -7.421875 16.703125q-7.421875 5.906250 -21.093750 5.906250q-4.578125 0.000000 -9.437500 -0.906250q-4.859375 -0.906250 -10.031250 -2.718750l0.000000 -9.515625q4.093750 2.390625 8.968750 3.609375q4.890625 1.218750 10.218750 1.218750q9.265625 0.000000 14.125000 -3.656250q4.859375 -3.656250 4.859375 -10.640625q0.000000 -6.453125 -4.515625 -10.078125q-4.515625 -3.640625 -12.562500 -3.640625l-8.500000 0.000000l0.000000 -8.109375l8.890625 0.000000q7.265625 0.000000 11.125000 -2.906250q3.859375 -2.906250 3.859375 -8.375000q0.000000 -5.609375 -3.984375 -8.609375q-3.968750 -3.015625 -11.390625 -3.015625q-4.062500 0.000000 -8.703125 0.890625q-4.640625 0.875000 -10.203125 2.718750l0.000000 -8.781250q5.625000 -1.562500 10.531250 -2.343750q4.906250 -0.781250 9.250000 -0.781250q11.234375 0.000000 17.765625 5.109375q6.546875 5.093750 6.546875 13.781250q0.000000 6.062500 -3.468750 10.234375q-3.468750 4.171875 -9.859375 5.781250"/>
</defs>
<g style="fill: #000000; opacity: 1.000000" transform="translate(52.531250,393.167188)scale(0.120000)">
<use xlink:href="#c_6a8d56c819c37117ab4cf023bec22a5a"/>
<use xlink:href="#c_3dcfa38a02242cb63ec6726c6e70be7a" x="83.789062"/>
</g>
</g>
<g id="ytick2">
<g id="line2d14">
<g ><use style="fill: none; stroke: #000000; stroke-width: 0.500000; stroke-linejoin: miter; stroke-linecap: butt;  opacity: 1.000000" xlink:href="#m3400efa6b1638b3fea9e19e898273957" x="72.000000" y="331.200000"/>
</g></g>
<g id="line2d15">
<g ><use style="fill: none; stroke: #000000; stroke-width: 0.500000; stroke-linejoin: miter; stroke-linecap: butt;  opacity: 1.000000" xlink:href="#m20b58b2501143cb5e0a5e8f1ef6f1643" x="518.400000" y="331.200000"/>
</g></g>
<g style="fill: #000000; opacity: 1.000000" transform="translate(52.765625,335.653125)scale(0.120000)">
<use xlink:href="#c_6a8d56c819c37117ab4cf023bec22a5a"/>
<use xlink:href="#c_ed3f3ed3ebfbd18bcb9c012009a68ad1" x="83.789062"/>
</g>
</g>
<g id="ytick3">
<g id="line2d16">
<g ><use style="fill: none; stroke: #000000; stroke-width: 0.500000; stroke-linejoin: miter; stroke-linecap: butt;  opacity: 1.000000" xlink:href="#m3400efa6b1638b3fea9e19e898273957" x="72.000000" y="273.600000"/>
</g></g>
<g id="line2d17">
<g ><use style="fill: none; stroke: #000000; stroke-width: 0.500000; stroke-linejoin: miter; stroke-linecap: butt;  opacity: 1.000000" xlink:href="#m20b58b2501143cb5e0a5e8f1ef6f1643" x="518.400000" y="273.600000"/>
</g></g>
<g style="fill: #000000; opacity: 1.000000" transform="translate(52.671875,277.975000)scale(0.120000)">
<use xlink:href="#c_6a8d56c819c37117ab4cf023bec22a5a"/>
<use xlink:href="#c_42baa63129a918535c52adb20d687ea7" x="83.789062"/>
</g>
</g>
<g id="ytick4">
<g id="line2d18">
<g ><use style="fill: none; stroke: #000000; stroke-width: 0.500000; stroke-linejoin: miter; stroke-linecap: butt;  opacity: 1.000000" xlink:href="#m3400efa6b1638b3fea9e19e898273957" x="72.000000" y="216.000000"/>
</g></g>
<g id="line2d19">
<g ><use style="fill: none; stroke: #000000; stroke-width: 0.500000; stroke-linejoin: miter; stroke-linecap: butt;  opacity: 1.000000" xlink:href="#m20b58b2501143cb5e0a5e8f1ef6f1643" x="518.400000" y="216.000000"/>
</g></g>
<g style="fill: #000000; opacity: 1.000000" transform="translate(61.953125,220.367188)scale(0.120000)">
<use xlink:href="#c_7a2040fe3b94fcd41d0a72c84e93b115"/>
</g>
</g>
<g id="ytick5">
<g id="line2d20">
<g ><use style="fill: none; stroke: #000000; stroke-width: 0.500000; stroke-linejoin: miter; stroke-linecap: butt;  opacity: 1.000000" xlink:href="#m3400efa6b1638b3fea9e19e898273957" x="72.000000" y="158.400000"/>
</g></g>
<g id="line2d21">
<g ><use style="fill: none; stroke: #000000; stroke-width: 0.500000; stroke-linejoin: miter; stroke-linecap: butt;  opacity: 1.000000" xlink:href="#m20b58b2501143cb5e0a5e8f1ef6f1643" x="518.400000" y="158.400000"/>
</g></g>
<g style="fill: #000000; opacity: 1.000000" transform="translate(62.781250,162.775000)scale(0.120000)">
<use xlink:href="#c_42baa63129a918535c52adb20d687ea7"/>
</g>
</g>
<g id="ytick6">
<g id="line2d22">
<g ><use style="fill: none; stroke: #000000; stroke-width: 0.500000; stroke-linejoin: miter; stroke-linecap: butt;  opacity: 1.000000" xlink:href="#m3400efa6b1638b3fea9e19e898273957" x="72.000000" y="100.800000"/>
</g></g>
<g id="line2d23">
<g ><use style="fill: none; stroke: #000000; stroke-width: 0.500000; stroke-linejoin: miter; stroke-linecap: butt;  opacity: 1.000000" xlink:href="#m20b58b2501143cb5e0a5e8f1ef6f1643" x="518.400000" y="100.800000"/>
</g></g>
<g style="fill: #000000; opacity: 1.000000" transform="translate(62.437500,105.253125)scale(0.120000)">
<use xlink:href="#c_ed3f3ed3ebfbd18bcb9c012009a68ad1"/>
</g>
</g>
<g id="ytick7">
<g id="line2d24">
<g ><use style="fill: none; stroke: #000000; stroke-width: 0.500000; stroke-linejoin: miter; stroke-linecap: butt;  opacity: 1.000000" xlink:href="#m3400efa6b1638b3fea9e19e898273957" x="72.000000" y="43.200000"/>
</g></g>
<g id="line2d25">
<g ><use style="fill: none; stroke: #000000; stroke-width: 0.500000; stroke-linejoin: miter; stroke-linecap: butt;  opacity: 1.000000" xlink:href="#m20b58b2501143cb5e0a5e8f1ef6f1643" x="518.400000" y="43.200000"/>
</g></g>
<g style="fill: #000000; opacity: 1.000000" transform="translate(62.250000,47.567187)scale(0.120000)">
<use xlink:href="#c_3dcfa38a02242cb63ec6726c6e70be7a"/>
</g>
</g>
</g>
<path style="fill: none; stroke: #000000; stroke-width: 1.000000; stroke-linejoin: miter; stroke-linecap: square;  opacity: 1.000000"  d="M72.000000 388.800000L518.400000 388.800000L518.400000 43.200000
L72.000000 43.200000L72.000000 388.800000"/>
</g>
</g>
</svg>
